<?xml version="1.0" encoding="UTF-8"?>
<!DOCTYPE svg PUBLIC "-//W3C//DTD SVG 1.0//EN" "http://www.w3.org/TR/2001/REC-SVG-20010904/DTD/svg10.dtd">
<!-- Creator: CorelDRAW 2017 -->
<svg xmlns="http://www.w3.org/2000/svg" xml:space="preserve" width="356px" height="200px" version="1.0" shape-rendering="geometricPrecision" text-rendering="geometricPrecision" image-rendering="optimizeQuality" fill-rule="evenodd" clip-rule="evenodd"
viewBox="0 0 35600 20025"
 xmlns:xlink="http://www.w3.org/1999/xlink">
 <g id="Layer_x0020_1">
  <metadata id="CorelCorpID_0Corel-Layer"/>
  <g id="_2962558892320">
   <path fill="#E6E7E8" d="M0 0l35600 0 0 20025 -35600 0 0 -20025z"/>
   <path fill="#373435" fill-opacity="0.078431" d="M24262 20025l6060 -5878 -2 2 -4 0 -5 -2 -5 -2 -7 -2 -8 -3 -9 -4 -10 -4 -10 -5 -11 -6 -12 -7 -13 -7 -14 -9 -14 -9 -15 -10 -15 -10 -15 -11 -15 -11 -16 -12 -15 -12 -14 -13 -15 -12 -15 -14 -16 -14 -18 -15 -18 -17 -21 -18 -23 -20 -25 -22 -28 -24 -30 -27 -33 -28 -34 -30 -36 -32 -37 -34 -38 -36 -40 -37 -41 -38 -41 -40 -40 -39 -41 -39 -39 -39 -39 -37 -37 -35 -36 -34 -33 -32 -33 -30 -30 -29 -30 -27 -29 -26 -28 -26 -27 -24 -28 -25 -26 -24 -27 -24 -28 -25 -28 -25 -30 -26 -31 -27 -32 -28 -35 -29 -37 -30 -38 -31 -40 -32 -41 -32 -42 -32 -44 -32 -44 -31 -45 -30 -45 -30 -45 -28 -44 -27 -44 -26 -42 -25 -40 -22 -39 -21 -36 -18 -34 -17 -32 -15 -30 -14 -30 -12 -28 -11 -28 -10 -28 -10 -28 -9 -27 -8 -29 -7 -28 -7 -29 -7 -31 -5 -31 -5 -32 -4 -33 -3 -35 -3 -35 -2 -35 -1 -35 -1 -34 0 -34 1 -32 1 -31 1 -29 2 -28 3 -26 3 -26 4 -26 4 -24 5 -24 5 -24 6 -24 6 -23 7 -24 7 -24 8 -24 8 -25 9 -25 11 -25 11 -26 12 -26 13 -26 14 -27 14 -28 16 -28 17 -28 17 -29 19 -30 20 -32 22 -33 24 -35 27 -38 31 -42 34 -44 39 -49 43 -51 46 -53 49 -54 50 -3221 3125 -38 22 -57 32 -54 30 -51 27 -48 24 -45 22 -42 19 -40 18 -36 16 -34 14 -30 13 -28 11 -26 9 -23 8 -20 7 -18 6 -16 5 -13 3 -12 3 -10 1 -9 0 -8 -2 -8 -3 -8 -5 -8 -8 -9 -9 -10 -12 -11 -14 -12 -16 -13 -19 -13 -19 -14 -22 -14 -22 -14 -24 -15 -26 -14 -26 -15 -27 -15 -28 -15 -30 -16 -30 -16 -32 -17 -32 -17 -34 -18 -34 -19 -35 -19 -36 -18 -36 -19 -37 -18 -36 -18 -36 -17 -37 -17 -36 -16 -37 -16 -37 -16 -37 -17 -39 -16 -40 -18 -42 -18 -44 -18 -45 -19 -47 -20 -48 -20 -49 -20 -50 -20 -50 -20 -51 -21 -51 -20 -52 -21 -54 -22 -54 -23 -58 -24 -60 -26 -64 -28 -67 -30 -72 -32 -76 -33 -77 -33 -77 -33 -76 -32 -74 -31 -69 -29 -65 -25 -58 -24 -53 -21 -47 -20 -43 -18 -39 -17 -36 -17 -35 -17 -33 -17 -33 -18 -32 -17 -32 -18 -31 -17 -30 -17 -29 -17 -28 -16 -26 -15 -25 -15 -24 -15 -23 -14 -22 -15 -21 -14 -20 -14 -20 -14 -20 -15 -20 -15 -20 -15 -19 -15 -19 -14 -19 -15 -19 -15 -18 -14 -17 -14 -17 -13 -17 -14 -15 -13 -15 -13 -15 -13 -14 -13 -14 -13 -14 -14 -13 -13 -12 -14 -12 -14 -12 -14 -12 -14 -11 -15 -11 -15 -11 -15 -11 -16 -11 -15 -10 -16 -10 -16 -9 -16 -9 -16 -9 -15 -8 -16 -7 -16 -7 -16 -6 -16 -5 -16 -5 -17 -4 -16 -5 -17 -4 -18 -3 -17 -4 -18 -3 -18 -2 -18 -3 -18 -2 -17 -2 -17 -1 -16 -1 -16 0 -16 0 -15 1 -14 1 -15 1 -14 1 -14 2 -13 2 -14 2 -14 2 -13 3 -3 1 809 -785 70 -67 65 -64 60 -62 57 -59 53 -56 50 -55 47 -53 46 -52 43 -51 43 -51 42 -51 41 -51 42 -54 43 -54 43 -57 44 -58 44 -59 44 -58 42 -57 39 -54 37 -51 35 -47 30 -42 28 -39 27 -38 27 -39 29 -42 32 -48 36 -54 41 -64 48 -74 53 -84 58 -91 60 -95 62 -98 61 -98 59 -97 57 -92 52 -87 48 -81 44 -76 41 -71 38 -67 35 -64 33 -60 32 -57 29 -56 29 -54 28 -53 26 -52 27 -51 26 -52 26 -52 26 -53 27 -53 27 -55 27 -55 27 -56 27 -56 27 -56 26 -56 27 -56 27 -55 26 -55 26 -54 25 -54 25 -53 25 -52 24 -51 24 -51 24 -51 23 -50 23 -50 24 -50 23 -51 23 -52 24 -53 24 -55 25 -56 25 -58 25 -58 24 -59 25 -57 24 -57 24 -56 23 -53 21 -51 21 -48 20 -47 19 -44 18 -42 17 -41 16 -39 16 -38 15 -38 15 -36 15 -36 15 -36 15 -36 14 -37 15 -37 15 -38 16 -39 17 -40 17 -42 18 -43 18 -43 19 -45 20 -46 21 -46 20 -47 21 -48 22 -49 22 -48 22 -49 23 -48 22 -48 21 -46 21 -47 21 -45 20 -45 20 -45 20 -45 20 -46 21 -46 22 -47 22 -49 23 -49 23 -50 24 -51 24 -51 25 -52 25 -51 26 -52 26 -51 25 -50 26 -49 26 -48 25 -47 25 -46 24 -43 23 -42 23 -39 22 -37 22 -35 21 -34 20 -31 19 -30 20 -28 19 -27 18 -25 19 -24 18 -22 18 -22 18 -21 18 -20 18 -19 18 -18 -7841 7604 -939 -585 2884 -2798 -33 28 -36 25 -38 23 -41 21 -43 18 -47 16 -53 14 -58 11 -64 10 -71 7 -76 5 -11 1 280 -272 31 -35 26 -37 21 -39 17 -41 11 -43 7 -45 3 -46 -1 -31 -4 -31 -5 -31 -8 -30 -10 -30 -12 -29 -14 -30 -16 -29 -19 -28 -22 -27 -24 -25 -26 -23 -30 -22 -5 -4 306 -297 -32 27 -35 25 -37 23 -41 20 -43 19 -47 16 -134 130 -35 -16 -39 -16 -42 -13 -44 -11 -37 -8 273 -264 19 -22 18 -23 17 -25 14 -26 12 -26 11 -27 8 -28 7 -28 5 -29 3 -30 1 -30 -3 -46 -7 -44 -12 -43 -17 -41 -21 -39 -27 -38 -31 -35 -36 -34 -40 -31 -45 -27 -50 -23 -53 -19 -58 -14 -63 -11 -67 -6 -71 -2 -39 1 -38 1 -37 3 -36 4 -35 4 -35 6 -33 7 -32 9 -305 295 0 -57 0 -48 -3 -43 -3 -38 -5 -34 -6 -29 -8 -25 -10 -20 -10 -15 -16 -16 -19 -14 -20 -12 -21 -10 -24 -8 -26 -5 -27 -4 -30 -1 -80 0 0 -58 -1075 1042 -247 -593 -261 253 321 -751 -2268 2200 -655 0 130 -126 16 -21 8 -15 7 -18 5 -23 5 -27 3 -32 3 -35 2 -39 0 -44 0 -1068 665 -645 -41 0 -38 2 -35 2 -32 3 -28 5 -25 5 -22 7 -20 8 -16 8 -15 9 -14 10 -13 10 -11 10 -355 345 0 -102 -1 -48 -2 -44 -3 -38 -5 -34 -6 -29 -8 -24 -9 -20 -10 -15 -17 -16 -18 -14 -20 -12 -22 -10 -24 -8 -25 -5 -28 -4 -29 -1 -81 0 0 -58 -280 272 -15 -19 -15 -18 -17 -16 -18 -14 -19 -13 -20 -12 -21 -10 -23 -9 -24 -8 -26 -6 -28 -5 -29 -3 -31 -2 -33 -1 -302 0 -305 296 0 -296 -258 0 -36 1 -34 1 -31 1 -28 3 -25 3 -23 4 -20 4 -17 5 -20 9 -20 10 -19 12 -18 13 -17 16 -172 166 18 -384 -865 839 -163 -390 -261 253 321 -751 -2268 2200 -114 0 183 -178 23 -28 12 -22 10 -27 9 -34 7 -39 6 -45 4 -51 2 -57 1 -63 0 -1641 894 -867 -109 0 -50 2 -45 6 -42 9 -37 14 -35 16 -30 21 -27 25 -519 503 0 -183 -401 389 405 -887 -1886 1829 -611 -1331 -203 197 0 -151 -1 -50 -2 -47 -4 -43 -5 -39 -6 -36 -8 -32 -10 -29 -11 -25 -9 -16 -11 -16 -12 -15 -14 -15 -16 -13 -18 -13 -19 -13 -21 -12 -24 -10 -27 -9 -31 -8 -33 -6 -37 -5 -40 -4 -44 -2 -47 -1 0 -85 -5276 5118 0 9759 24262 0z"/>
   <g>
    <path fill="#4B4B4D" fill-rule="nonzero" d="M7140 8285l-1211 -2639 0 2095c0,193 22,313 63,361 58,65 149,97 275,97l112 0 0 86 -1103 0 0 -86 113 0c134,0 229,-40 286,-120 33,-50 51,-163 51,-338l0 -2049c0,-138 -16,-239 -47,-301 -22,-45 -62,-82 -120,-113 -59,-30 -153,-45 -283,-45l0 -85 899 0 1131 2452 1120 -2452 890 0 0 85 -109 0c-137,0 -232,41 -289,121 -34,50 -51,163 -51,338l0 2049c0,193 22,313 65,361 58,65 149,97 275,97l109 0 0 86 -1343 0 0 -86 113 0c135,0 230,-40 285,-120 34,-50 51,-163 51,-338l0 -2095 -1206 2639 -76 0z"/>
    <path id="1" fill="#4B4B4D" fill-rule="nonzero" d="M10898 7568l-833 0 -144 337c-36,83 -54,146 -54,187 0,32 16,61 47,86 31,24 98,41 202,48l0 59 -678 0 0 -59c89,-15 147,-36 174,-61 54,-51 113,-155 179,-310l756 -1770 54 0 747 1789c60,144 115,237 164,280 49,43 117,67 205,72l0 59 -847 0 0 -59c85,-4 143,-18 173,-43 31,-24 45,-54 45,-89 0,-46 -21,-120 -63,-220l-127 -306zm-49 -117l-362 -868 -372 868 734 0z"/>
    <path id="2" fill="#4B4B4D" fill-rule="nonzero" d="M13273 6134l22 505 -60 0c-11,-88 -27,-152 -47,-190 -33,-61 -76,-106 -131,-135 -55,-29 -126,-44 -215,-44l-302 0 0 1642c0,132 14,215 42,248 40,44 102,66 185,66l74 0 0 59 -914 0 0 -59 77 0c92,0 157,-27 196,-82 23,-35 35,-112 35,-232l0 -1642 -258 0c-101,0 -172,8 -214,22 -55,20 -102,59 -141,116 -39,57 -62,134 -70,231l-60 0 23 -505 1758 0z"/>
    <path id="3" fill="#4B4B4D" fill-rule="nonzero" d="M15238 7691l52 11 -185 583 -1664 0 0 -59 81 0c90,0 155,-29 194,-88 22,-33 33,-111 33,-233l0 -1391c0,-135 -14,-218 -44,-252 -41,-46 -102,-70 -183,-70l-81 0 0 -58 973 0 0 58c-114,-1 -194,10 -241,32 -46,21 -77,49 -94,82 -16,34 -25,114 -25,240l0 1356c0,88 9,148 25,181 13,23 33,39 59,50 26,10 109,15 248,15l157 0c165,0 281,-12 347,-36 67,-24 128,-67 183,-129 55,-62 110,-159 165,-292z"/>
    <path id="4" fill="#4B4B4D" fill-rule="nonzero" d="M16844 7568l-833 0 -144 337c-36,83 -54,146 -54,187 0,32 15,61 47,86 30,24 98,41 201,48l0 59 -678 0 0 -59c90,-15 148,-36 174,-61 55,-51 114,-155 180,-310l756 -1770 53 0 748 1789c60,144 115,237 164,280 49,43 117,67 205,72l0 59 -848 0 0 -59c86,-4 144,-18 174,-43 30,-24 45,-54 45,-89 0,-46 -21,-120 -63,-220l-127 -306zm-49 -117l-362 -868 -372 868 734 0z"/>
    <path id="5" fill="#4B4B4D" fill-rule="nonzero" d="M19197 7186c149,32 261,82 335,153 102,97 153,216 153,356 0,107 -33,210 -101,308 -68,98 -160,169 -278,214 -117,45 -297,68 -538,68l-1013 0 0 -59 80 0c89,0 153,-28 192,-85 24,-37 36,-116 36,-236l0 -1391c0,-133 -15,-217 -45,-252 -41,-46 -102,-70 -183,-70l-80 0 0 -58 927 0c173,0 311,12 415,38 159,38 279,105 363,202 83,97 125,208 125,334 0,107 -33,203 -98,289 -66,85 -162,148 -290,189zm-829 -88c39,8 84,13 134,17 50,3 105,5 165,5 154,0 270,-17 348,-50 77,-33 136,-83 178,-152 40,-68 61,-143 61,-224 0,-125 -52,-232 -154,-320 -102,-89 -251,-133 -447,-133 -105,0 -200,11 -285,35l0 822zm0 1030c123,29 245,43 364,43 192,0 338,-43 439,-129 100,-86 151,-193 151,-319 0,-83 -23,-164 -70,-241 -47,-77 -122,-138 -224,-182 -102,-44 -229,-66 -380,-66 -65,0 -121,1 -167,3 -47,2 -84,6 -113,11l0 880z"/>
    <g>
     <path fill="#3AC5BE" d="M20234 9162l1592 1249c-487,775 -1253,1543 -2299,2305l-3180 -1982 3887 -1572z"/>
     <path fill="#00524C" d="M21974 10156c62,-88 174,-270 266,-423 92,-153 164,-276 233,-401 70,-125 138,-251 202,-375 66,-125 128,-249 198,-387 68,-137 145,-289 204,-408 59,-120 101,-207 148,-305 47,-99 99,-210 151,-321 54,-111 108,-222 160,-338 52,-117 103,-238 164,-377 62,-140 133,-298 201,-451 66,-153 128,-301 190,-447 61,-145 121,-285 184,-429 62,-144 127,-290 148,-349 21,-60 -1,-31 -78,91 -76,121 -207,336 -307,495 -101,160 -171,264 -236,357 -66,93 -127,175 -196,263 -67,87 -143,181 -232,281 -88,99 -191,203 -271,278 -80,74 -138,118 -213,171 -75,54 -167,115 -241,159 -73,45 -128,72 -185,95 -57,22 -117,41 -176,60 -59,21 -117,43 -167,60 -51,18 -90,30 -132,45 -42,16 -85,34 -138,66 -54,32 -117,76 -195,136 -80,59 -174,132 -296,242 -122,110 -274,259 -389,380 -116,121 -194,215 -275,315 -81,99 -164,205 -214,272 -50,66 -68,94 -77,115 -11,21 -12,36 13,59 24,24 75,57 163,124 89,68 218,169 386,298 167,127 374,283 532,405 158,123 268,213 324,261 57,49 62,56 64,59 2,3 2,0 8,3 6,2 17,8 79,-80l0 1z"/>
     <path fill="#FE9204" d="M19916 12702c14,-3 50,-22 85,-35 36,-14 71,-21 108,-25 37,-5 76,-7 120,-5 44,3 95,10 141,20 46,11 87,23 130,43 42,21 85,47 125,77 40,29 77,59 113,94 35,36 69,75 106,121 38,46 79,98 118,151 38,53 74,106 116,175 43,68 91,153 137,241 45,88 87,180 159,344 73,164 175,399 253,586 78,186 131,324 185,460 54,136 108,269 155,384 47,113 87,207 133,305 47,97 100,196 146,284 46,88 84,165 123,231 38,65 75,119 101,148 26,28 38,31 72,23 33,-8 88,-26 174,-62 86,-36 202,-87 350,-170 148,-82 328,-195 463,-287 134,-92 224,-162 309,-236 87,-74 169,-150 296,-270 127,-118 296,-282 434,-422 138,-140 243,-256 361,-389 117,-132 246,-279 341,-383 94,-106 155,-169 266,-290 110,-119 272,-296 379,-416 107,-119 161,-184 271,-295 110,-111 278,-271 403,-379 124,-110 206,-168 283,-216 76,-48 148,-86 214,-114 68,-29 129,-47 193,-62 64,-14 130,-24 214,-27 84,-4 185,-2 273,8 88,10 161,28 235,52 74,25 147,55 246,107 99,53 225,127 344,209 119,83 231,174 321,249 90,77 157,138 230,204 72,65 149,135 246,228 97,92 212,207 318,304 104,97 197,177 261,233 65,56 101,90 140,123 40,32 83,62 119,84 35,21 62,32 80,38 16,7 23,7 13,-20 -10,-27 -37,-80 -71,-155 -33,-77 -74,-176 -137,-320 -61,-144 -144,-333 -227,-532 -83,-197 -168,-403 -233,-572 -64,-168 -109,-299 -151,-418 -43,-119 -85,-226 -129,-347 -46,-121 -94,-258 -136,-384 -44,-125 -82,-241 -130,-381 -48,-140 -107,-304 -156,-449 -48,-144 -87,-267 -148,-449 -60,-182 -143,-422 -199,-585 -57,-162 -88,-248 -121,-337 -32,-89 -67,-180 -97,-265 -29,-84 -54,-159 -98,-301 -45,-141 -111,-349 -191,-587 -80,-238 -174,-508 -249,-720 -76,-213 -132,-368 -199,-544 -66,-177 -141,-374 -211,-559 -72,-185 -138,-358 -256,-619 -117,-263 -287,-615 -399,-837 -114,-223 -171,-317 -238,-414 -67,-97 -145,-196 -204,-271 -60,-75 -102,-124 -146,-167 -44,-42 -89,-76 -130,-107 -42,-31 -78,-57 -115,-76 -37,-18 -75,-28 -123,-31 -49,-3 -109,1 -158,10 -50,10 -89,26 -133,55 -44,29 -92,70 -141,118 -48,48 -95,103 -145,171 -50,70 -103,154 -166,261 -61,108 -132,240 -200,376 -69,137 -134,277 -192,405 -58,127 -109,241 -165,366 -57,123 -119,258 -173,383 -56,125 -104,241 -146,344 -41,103 -77,193 -119,294 -41,100 -89,211 -148,350 -60,139 -130,306 -195,454 -65,148 -124,277 -188,412 -63,135 -130,277 -202,425 -70,148 -144,302 -215,443 -70,142 -136,271 -217,423 -82,150 -178,323 -323,563 -145,239 -339,544 -458,729 -119,184 -165,248 -250,366 -86,119 -213,291 -328,441 -115,149 -217,273 -347,417 -130,144 -288,306 -510,505 -222,199 -508,434 -654,557 -145,125 -151,138 -136,136l0 0z"/>
    </g>
   </g>
   <path fill="#373435" fill-opacity="0.031373" d="M2082 17547c68,104 112,203 155,312 32,64 49,183 199,183 44,0 107,-14 163,-45 63,-33 111,-83 136,-159l60 -202 146 -72 10 10c-20,77 -25,149 -25,206 0,170 146,234 262,234 68,0 129,-34 129,-95 0,-81 -34,-217 -78,-339 68,-68 136,-136 214,-191l12 6c34,144 53,287 53,381 0,93 -41,196 -75,264 -70,132 -194,238 -344,238 -114,0 -241,-58 -328,-163l-5 0c-82,101 -209,193 -412,193l-63 0c-10,134 -39,229 -83,314 -121,237 -480,404 -818,404 -470,0 -706,-272 -706,-633 0,-223 73,-431 185,-578l92 38c-70,134 -117,262 -117,385 0,338 275,499 592,499 294,0 658,-187 724,-404 -25,-237 -114,-348 -250,-565 41,-72 94,-144 160,-221l12 0zm5421 -1274c99,62 196,136 291,221 -53,74 -119,142 -201,202 -95,-77 -190,-143 -287,-213 66,-74 131,-146 197,-210zm51 926c-160,0 -291,105 -291,183 0,168 320,219 703,217 -48,-196 -216,-400 -412,-400zm-359 895c208,0 390,-6 529,-41 155,-39 286,-118 286,-171 0,-15 0,-31 -5,-46 -87,8 -187,8 -274,8 -282,0 -498,-64 -583,-222 -21,-44 -36,-93 -36,-149 0,-152 66,-303 182,-406 97,-85 204,-138 313,-138 197,0 354,158 464,408 60,136 101,293 101,491 0,132 -36,243 -118,326 -153,148 -435,204 -867,204l-196 0 0 0 -51 0c-107,0 -184,-19 -245,-66l-10 0c3,25 5,50 5,72 0,97 -32,221 -97,320 -192,287 -400,410 -580,410 -182,0 -405,-70 -606,-161l36 -70c65,27 155,46 279,46 325,0 752,-314 805,-619 -12,-25 -34,-58 -65,-93 -95,-113 -155,-208 -211,-307 48,-95 92,-171 133,-239l17 -2c139,282 265,445 546,445l44 0 0 0 204 0zm-1408 299c24,-130 26,-276 26,-413l0 -202c0,-377 -48,-926 -87,-1282 68,-75 163,-161 238,-219l22 6c51,450 63,972 63,1452 0,126 -5,250 -17,340 -7,114 -73,201 -214,332l-31 -14zm-1449 -596c7,177 94,318 398,318 189,0 349,-50 526,-135 32,-14 49,-33 49,-49 0,-111 -85,-258 -228,-392 -139,-126 -323,-237 -495,-311 -59,-25 -78,-52 -78,-77 0,-51 68,-158 124,-235l19 -2c197,103 417,256 580,427 148,157 240,316 240,489 0,128 -39,250 -102,361 -216,109 -446,192 -674,192 -277,0 -466,-130 -466,-436 0,-33 0,-84 12,-150l95 0zm-501 -503l172 278c63,103 122,215 122,392l0 227c0,183 -117,379 -306,573 -148,132 -279,188 -400,188 -180,0 -386,-56 -624,-159l27 -70c75,21 162,37 269,37 342,-2 692,-252 852,-557 19,-35 26,-68 26,-90 0,-36 -19,-75 -34,-110 -87,-165 -184,-315 -291,-453 56,-89 112,-174 173,-258l14 2z"/>
  </g>
 </g>
</svg>
