<?xml version="1.0" encoding="UTF-8"?>
<!DOCTYPE svg PUBLIC "-//W3C//DTD SVG 1.1//EN" "http://www.w3.org/Graphics/SVG/1.1/DTD/svg11.dtd">
<!-- Creator: CorelDRAW 2017 -->
<svg xmlns="http://www.w3.org/2000/svg" xml:space="preserve" width="3.70333in" height="2.08333in" version="1.1" style="shape-rendering:geometricPrecision; text-rendering:geometricPrecision; image-rendering:optimizeQuality; fill-rule:evenodd; clip-rule:evenodd"
viewBox="0 0 3703 2083"
 xmlns:xlink="http://www.w3.org/1999/xlink"
 enable-background="new 0 0 64 64">
 <defs>
  <style type="text/css">
   <![CDATA[
    .str0 {stroke:#00AFEF;stroke-width:13.8858}
    .fil19 {fill:#FEFEFE}
    .fil3 {fill:#00AFEF}
    .fil7 {fill:#06063D}
    .fil16 {fill:#0B696E}
    .fil15 {fill:#10108F}
    .fil8 {fill:#12295B}
    .fil10 {fill:#173475}
    .fil4 {fill:#181860}
    .fil9 {fill:#1C1C70}
    .fil11 {fill:#284372}
    .fil20 {fill:#2D006E}
    .fil18 {fill:#390092}
    .fil6 {fill:#3D5586}
    .fil13 {fill:#4A399E}
    .fil22 {fill:#9E73D9}
    .fil0 {fill:#E6E7E8}
    .fil14 {fill:#F58634}
    .fil17 {fill:#FEFEFE}
    .fil12 {fill:#FFF688}
    .fil5 {fill:#FFF8AF}
    .fil21 {fill:white}
    .fil2 {fill:#373435;fill-opacity:0.031373}
    .fil1 {fill:#373435;fill-opacity:0.101961}
   ]]>
  </style>
 </defs>
 <g id="Layer_x0020_1">
  <metadata id="CorelCorpID_0Corel-Layer"/>
  <polygon class="fil0" points="0,0 3703,0 3703,2083 0,2083 "/>
  <polygon class="fil1" points="1135,2083 1134,2083 1134,2083 1133,2083 1130,2083 1129,2083 1129,2083 1127,2083 1127,2083 1126,2083 1125,2083 1125,2083 1118,2083 1117,2083 1115,2083 1115,2083 1114,2083 1113,2083 1112,2083 1111,2083 1110,2083 1110,2083 1108,2083 1107,2083 1104,2083 1101,2083 1100,2083 1096,2083 1094,2083 1091,2083 1089,2083 1082,2083 1081,2083 1080,2083 1077,2083 1074,2083 1071,2083 1070,2083 1069,2083 1068,2083 1067,2083 1067,2083 1060,2083 1059,2083 1056,2083 1055,2083 1052,2083 1052,2083 1048,2083 1048,2083 1047,2083 1047,2083 1045,2083 1042,2083 1041,2083 1041,2083 1038,2083 1035,2083 1033,2083 1030,2083 1028,2083 1027,2083 1016,2083 1016,2083 1012,2083 1012,2083 1005,2083 1005,2083 1003,2083 1003,2083 1002,2083 1002,2083 1001,2083 999,2083 999,2083 999,2083 996,2083 990,2083 990,2083 989,2083 988,2083 987,2083 987,2083 980,2083 977,2083 976,2083 974,2083 973,2083 968,2083 964,2083 964,2083 964,2083 963,2083 962,2083 959,2083 956,2083 953,2083 952,2083 952,2083 951,2083 949,2083 941,2083 941,2083 938,2083 933,2083 928,2083 926,2083 923,2083 920,2083 920,2083 917,2083 916,2083 908,2083 905,2083 901,2083 899,2083 897,2083 897,2083 896,2083 894,2083 893,2083 892,2083 889,2083 889,2083 887,2083 883,2083 881,2083 877,2083 874,2083 872,2083 872,2083 870,2083 866,2083 864,2083 862,2083 854,2083 854,2083 852,2083 852,2083 851,2083 843,2083 843,2083 842,2083 841,2083 839,2083 834,2083 832,2083 831,2083 831,2083 829,2083 829,2083 828,2083 826,2083 821,2083 821,2083 818,2083 814,2083 814,2083 812,2083 811,2083 811,2083 809,2083 807,2083 805,2083 803,2083 803,2083 800,2083 800,2083 793,2083 791,2083 788,2083 787,2083 784,2083 783,2083 782,2083 782,2083 782,2083 781,2083 780,2083 779,2083 779,2083 775,2083 773,2083 773,2083 773,2083 772,2083 772,2083 770,2083 767,2083 764,2083 761,2083 760,2083 759,2083 755,2083 755,2083 753,2083 750,2083 750,2083 749,2083 749,2083 748,2083 746,2083 746,2083 744,2083 741,2083 741,2083 740,2083 739,2083 738,2083 738,2083 738,2083 737,2083 733,2083 731,2083 731,2083 726,2083 724,2083 723,2083 721,2083 719,2083 719,2083 719,2083 719,2083 718,2083 718,2083 715,2083 714,2083 713,2083 712,2083 711,2083 709,2083 709,2083 709,2083 709,2083 709,2083 708,2083 706,2083 706,2083 704,2083 703,2083 703,2083 703,2083 703,2083 701,2083 699,2083 699,2083 699,2083 698,2083 698,2083 698,2083 693,2083 693,2083 691,2083 691,2083 690,2083 688,2083 687,2083 687,2083 687,2083 686,2083 685,2083 682,2083 680,2083 676,2083 674,2083 673,2083 670,2083 669,2083 669,2083 669,2083 669,2083 664,2083 664,2083 661,2083 660,2083 660,2083 657,2083 656,2083 654,2083 649,2083 649,2083 649,2083 649,2083 649,2083 646,2083 646,2083 645,2083 645,2083 643,2083 642,2083 639,2083 639,2083 633,2083 632,2083 632,2083 631,2083 627,2083 625,2083 623,2083 622,2083 621,2083 616,2083 616,2083 616,2083 616,2083 614,2083 612,2083 611,2083 609,2083 609,2083 605,2083 605,2083 603,2083 598,2083 597,2083 596,2083 596,2083 594,2083 593,2083 590,2083 587,2083 587,2083 586,2083 586,2083 581,2083 580,2083 578,2083 572,2083 565,2083 563,2083 563,2083 555,2083 550,2083 544,2083 543,2083 542,2083 540,2083 532,2083 525,2083 522,2083 512,2083 509,2083 509,2083 509,2083 506,2083 502,2083 498,2083 497,2083 493,2083 492,2083 491,2083 484,2083 483,2083 480,2083 480,2083 477,2083 477,2083 475,2083 474,2083 474,2083 472,2083 472,2083 470,2083 470,2083 469,2083 467,2083 462,2083 462,2083 457,2083 455,2083 454,2083 454,2083 454,2083 452,2083 448,2083 448,2083 448,2083 446,2083 446,2083 443,2083 441,2083 441,2083 439,2083 435,2083 434,2083 432,2083 431,2083 431,2083 431,2083 431,2083 430,2083 427,2083 424,2083 424,2083 424,2083 418,2083 411,2083 408,2083 406,2083 400,2083 395,2083 393,2083 384,2083 381,2083 378,2083 377,2083 375,2083 374,2083 372,2083 371,2083 364,2083 361,2083 358,2083 357,2083 356,2083 355,2083 355,2083 353,2083 352,2083 349,2083 345,2083 345,2083 342,2083 340,2083 339,2083 338,2083 337,2083 335,2083 334,2083 333,2083 333,2083 331,2083 331,2083 329,2083 323,2083 320,2083 320,2083 319,2083 319,2083 317,2083 317,2083 317,2083 317,2083 315,2083 315,2083 314,2083 313,2083 313,2083 310,2083 303,2083 302,2083 300,2083 300,2083 299,2083 299,2083 298,2083 297,2083 296,2083 296,2083 295,2083 292,2083 290,2083 290,2083 284,2083 282,2083 282,2083 279,2083 277,2083 277,2083 276,2083 275,2083 274,2083 273,2083 272,2083 272,2083 272,2083 272,2083 271,2083 269,2083 263,2083 262,2083 261,2083 260,2083 258,2083 258,2083 255,2083 255,2083 253,2083 251,2083 251,2083 251,2083 250,2083 248,2083 248,2083 245,2083 244,2083 243,2083 242,2083 242,2083 241,2083 240,2083 239,2083 238,2083 238,2083 237,2083 236,2083 233,2083 233,2083 232,2083 231,2083 230,2083 226,2083 225,2083 223,2083 222,2083 220,2083 218,2083 218,2083 213,2083 210,2083 207,2083 207,2083 203,2083 202,2083 201,2083 198,2083 197,2083 196,2083 196,2083 192,2083 192,2083 192,2083 192,2083 192,2083 191,2083 189,2083 189,2083 188,2083 185,2083 182,2083 182,2083 182,2083 182,2083 181,2083 171,2083 170,2083 170,2083 169,2083 169,2083 169,2083 169,2083 169,2083 169,2083 166,2083 166,2083 166,2083 161,2083 158,2083 157,2083 156,2083 155,2083 155,2083 153,2083 153,2083 153,2083 151,2083 150,2083 150,2083 149,2083 148,2083 148,2083 148,2083 148,2083 147,2083 147,2083 147,2083 146,2083 145,2083 145,2083 145,2083 144,2083 144,2083 144,2083 144,2083 144,2083 144,2083 143,2083 143,2083 143,2083 137,2083 136,2083 136,2083 136,2083 134,2083 134,2083 134,2083 134,2083 132,2083 131,2083 124,2083 124,2083 123,2083 121,2083 118,2083 116,2083 116,2083 111,2083 100,2083 100,2083 98,2083 97,2083 94,2083 94,2083 92,2083 90,2083 89,2083 87,2083 85,2083 85,2083 84,2083 81,2083 80,2083 80,2083 80,2083 78,2083 73,2083 69,2083 66,2083 65,2083 57,2083 56,2083 56,2083 48,2083 42,2083 36,2083 36,2083 35,2083 35,2083 34,2083 34,2083 33,2083 33,2083 32,2083 27,2083 27,2083 18,2083 15,2083 14,2083 13,2083 12,2083 8,2083 7,2083 7,2083 4,2083 0,2083 0,2083 0,2083 0,2081 0,2080 0,2076 0,2076 0,2074 0,2073 0,2071 0,2069 0,2064 0,2064 0,2064 0,2063 0,2062 0,2060 0,2060 0,2060 0,2058 0,2056 0,2055 0,2054 0,2054 0,2053 0,2053 0,2052 0,2050 0,2049 0,2049 0,2048 0,2047 0,2041 0,2040 0,2039 0,2039 0,2014 0,2008 0,2008 0,2004 0,1997 0,1995 0,1990 0,1988 0,1986 0,1984 0,1979 0,1974 0,1967 0,1962 0,1958 0,1956 0,1952 0,1951 0,1945 0,1944 0,1939 0,1938 0,1938 0,1936 0,1931 0,1930 0,1929 0,1925 0,1924 0,1924 0,1923 0,1920 0,1919 0,1919 0,1918 0,1913 0,1909 0,1907 0,1902 0,1893 0,1887 0,1886 0,1886 0,1870 0,1870 0,1859 0,1856 0,1851 0,1850 0,1844 0,1834 0,1834 0,1834 0,1812 0,1812 0,1795 0,1763 0,1762 0,1762 0,1755 0,1749 0,1735 0,1727 0,1727 0,1724 0,1724 0,1724 1503,566 1503,566 1506,565 1505,565 1504,566 1503,567 1502,567 1502,568 1495,576 1495,576 1495,576 1495,577 1495,577 1494,577 1494,578 1494,578 1494,578 1485,594 1484,595 1483,598 1482,601 1481,604 1480,608 1479,611 1478,613 1478,615 1478,616 1478,617 1478,618 1478,619 1478,620 1478,620 1478,621 1478,622 1478,631 1538,586 1546,580 1555,574 1564,568 1573,562 1583,556 1592,550 1602,543 1612,537 1622,531 1632,525 1643,519 1653,513 1664,507 1675,501 1685,495 1696,489 1707,483 1718,477 1729,471 1740,465 1751,459 1762,453 1772,447 1783,441 1794,435 1805,429 1815,424 1826,418 1836,412 1846,406 1856,401 1866,395 1866,395 1866,395 1866,395 1866,395 1866,395 1866,395 1866,395 1866,395 1869,393 1873,391 1876,390 1880,389 1883,388 1887,387 1891,387 1895,386 1899,386 1903,386 1907,386 1911,387 1915,387 1918,388 1922,389 1925,390 1949,403 1950,403 1950,403 1950,403 1950,403 1950,403 1950,403 1950,403 1950,403 1964,412 1965,412 1965,412 1965,412 1965,412 1965,412 1965,412 1965,412 1965,412 1968,414 1971,416 1974,418 1977,419 1980,421 1984,423 1987,425 1990,427 1998,431 2006,435 2014,440 2023,444 2031,449 2039,454 2048,459 2056,463 2065,468 2073,473 2082,478 2090,483 2099,488 2108,493 2116,498 2125,503 2134,508 2142,513 2151,518 2160,523 2168,528 2177,534 2185,539 2194,544 2202,549 2211,554 2219,559 2228,564 2236,568 2244,573 2252,578 2260,583 2263,585 2266,587 2268,590 2271,593 2273,596 2275,599 2277,602 2279,605 2279,605 2279,605 2279,605 2279,605 2279,605 2279,605 2279,605 2279,605 2279,605 2279,605 2309,585 2309,585 2309,585 2309,585 2309,585 2309,585 2309,585 2309,585 2308,585 2279,606 2279,606 2280,606 2280,606 2280,606 2280,606 2280,606 2280,606 2280,606 2280,606 2280,606 2280,606 2280,606 2280,606 2282,609 2283,612 2284,615 2286,618 2286,620 2287,623 2288,626 2288,629 2288,632 2288,635 2288,638 2288,641 2288,644 2288,647 2288,650 2288,653 2288,820 2461,820 2461,820 2461,820 2461,820 2461,836 2461,836 2461,1098 2491,1079 2492,1078 2493,1078 2494,1078 2495,1078 2496,1078 2496,1078 2497,1078 2498,1079 2499,1079 2500,1079 2501,1079 2501,1080 2502,1080 2503,1081 2503,1082 2504,1082 2504,1083 2505,1084 2505,1085 2505,1086 2505,1087 2505,1088 2505,1089 2505,1090 2505,1091 2505,1092 2505,1094 2505,1095 2504,1097 2504,1099 2502,1107 2516,1098 2608,1142 2608,1166 2461,1260 2461,1275 2586,1275 2591,1275 2596,1274 2600,1273 2605,1271 2609,1269 2614,1267 2461,1362 2461,1457 2339,1533 2486,1533 2424,1570 2461,1643 2337,1718 2610,1718 2579,1736 2610,1736 2015,2083 1986,2083 1729,2083 1728,2083 1721,2083 1711,2083 1694,2083 1673,2083 1656,2083 1651,2083 1643,2083 1640,2083 1631,2083 1627,2083 1626,2083 1614,2083 1611,2083 1599,2083 1597,2083 1589,2083 1583,2083 1582,2083 1581,2083 1579,2083 1578,2083 1576,2083 1573,2083 1569,2083 1565,2083 1562,2083 1559,2083 1558,2083 1557,2083 1551,2083 1549,2083 1545,2083 1545,2083 1544,2083 1544,2083 1542,2083 1538,2083 1533,2083 1532,2083 1531,2083 1527,2083 1521,2083 1518,2083 1517,2083 1513,2083 1512,2083 1506,2083 1504,2083 1500,2083 1497,2083 1493,2083 1486,2083 1485,2083 1484,2083 1481,2083 1480,2083 1479,2083 1479,2083 1469,2083 1468,2083 1465,2083 1464,2083 1463,2083 1461,2083 1459,2083 1453,2083 1450,2083 1447,2083 1447,2083 1447,2083 1442,2083 1440,2083 1437,2083 1431,2083 1430,2083 1425,2083 1422,2083 1417,2083 1411,2083 1409,2083 1409,2083 1407,2083 1407,2083 1404,2083 1403,2083 1395,2083 1393,2083 1393,2083 1390,2083 1389,2083 1386,2083 1382,2083 1380,2083 1379,2083 1376,2083 1372,2083 1367,2083 1367,2083 1356,2083 1352,2083 1351,2083 1351,2083 1348,2083 1347,2083 1341,2083 1337,2083 1336,2083 1336,2083 1336,2083 1335,2083 1333,2083 1333,2083 1332,2083 1331,2083 1324,2083 1322,2083 1322,2083 1322,2083 1318,2083 1317,2083 1311,2083 1309,2083 1309,2083 1308,2083 1307,2083 1298,2083 1298,2083 1296,2083 1294,2083 1285,2083 1280,2083 1279,2083 1277,2083 1276,2083 1275,2083 1273,2083 1268,2083 1265,2083 1264,2083 1264,2083 1263,2083 1262,2083 1261,2083 1256,2083 1256,2083 1255,2083 1253,2083 1250,2083 1250,2083 1244,2083 1242,2083 1239,2083 1231,2083 1228,2083 1226,2083 1225,2083 1216,2083 1214,2083 1210,2083 1210,2083 1207,2083 1206,2083 1205,2083 1201,2083 1199,2083 1197,2083 1196,2083 1196,2083 1193,2083 1191,2083 1187,2083 1187,2083 1183,2083 1181,2083 1177,2083 1176,2083 1175,2083 1173,2083 1170,2083 1167,2083 1162,2083 1160,2083 1154,2083 1152,2083 1146,2083 1144,2083 1143,2083 1142,2083 1140,2083 1137,2083 "/>
  <path class="fil2" d="M218 1826c7,11 12,21 16,32 3,7 5,19 21,19 5,0 11,-1 17,-5 7,-3 12,-9 14,-17l6 -21 15 -7 1 1c-2,8 -3,16 -3,21 0,18 15,24 27,24 7,0 13,-4 13,-10 0,-8 -4,-23 -8,-35 7,-7 14,-14 22,-20l1 1c4,15 6,30 6,40 0,10 -4,20 -8,27 -7,14 -20,25 -36,25 -12,0 -25,-6 -34,-17l-1 0c-9,11 -22,20 -43,20l-7 0c-1,14 -4,24 -9,33 -13,25 -50,42 -85,42 -49,0 -73,-28 -73,-66 0,-23 8,-45 19,-60l10 4c-7,14 -12,27 -12,40 0,35 29,52 62,52 31,0 68,-19 75,-42 -3,-25 -12,-36 -26,-59 4,-7 10,-15 17,-23l1 0 0 0 2 1 0 0 0 0zm564 -133c10,6 20,14 30,23 -6,8 -12,15 -21,21 -10,-8 -20,-15 -30,-22 7,-8 14,-15 20,-22l0 0 1 0 0 0 0 0zm5 96c-17,0 -30,11 -30,19 0,17 33,23 73,23 -5,-20 -22,-42 -43,-42zm-37 93c22,0 41,-1 55,-4 16,-4 30,-12 30,-18 0,-2 0,-3 -1,-5 -9,1 -19,1 -29,1 -29,0 -52,-7 -61,-23 -2,-5 -4,-10 -4,-16 0,-16 7,-32 19,-42 10,-9 21,-14 33,-14 20,0 37,16 48,42 6,14 11,30 11,51 0,14 -4,25 -12,34 -16,15 -45,21 -90,21l-20 0 0 0 -5 0c-11,0 -19,-2 -25,-7l-1 0c0,3 1,5 1,7 0,10 -3,23 -10,33 -20,30 -42,43 -60,43 -19,0 -42,-7 -63,-17l4 -7c7,3 16,5 29,5 34,0 78,-33 84,-64 -1,-3 -4,-6 -7,-10 -10,-12 -16,-22 -22,-32 5,-10 10,-18 14,-25l2 0c14,29 28,46 57,46l5 0 0 0 21 0 0 0 -3 1 0 0 0 0zm-146 31c2,-14 3,-29 3,-43l0 -21c0,-39 -5,-96 -9,-133 7,-8 17,-17 25,-23l2 1c5,47 7,101 7,151 0,13 -1,26 -2,35 -1,12 -8,21 -22,35l-3 -1 0 0 -1 -1 0 0 0 0zm-151 -62c1,18 10,33 41,33 20,0 36,-5 55,-14 3,-1 5,-3 5,-5 0,-12 -9,-27 -24,-41 -14,-13 -34,-25 -51,-32 -6,-3 -8,-5 -8,-8 0,-5 7,-16 13,-24l2 0c20,11 43,27 60,44 15,16 25,33 25,51 0,13 -4,26 -11,38 -22,11 -46,20 -70,20 -29,0 -48,-14 -48,-45 0,-3 0,-9 1,-16l10 0 0 0 0 -1 0 0 0 0zm-52 -52l18 29c7,11 13,22 13,41l0 24c0,19 -12,39 -32,60 -15,14 -29,20 -42,20 -19,0 -40,-6 -65,-17l3 -7c8,2 17,4 28,4 36,0 72,-26 89,-58 2,-4 3,-7 3,-9 0,-4 -2,-8 -4,-11 -9,-17 -19,-33 -30,-47 6,-9 12,-18 18,-27l1 0 0 -2 0 0 0 0z"/>
  <g id="_2328751971632">
   <path class="fil3" d="M1510 1017l-37 15c-11,-13 -23,-26 -37,-36l14 -38c5,-13 -1,-26 -13,-31l-51 -21c-13,-5 -26,1 -31,13l-15 37c-17,-2 -35,-2 -51,1l-15 -37c-5,-12 -17,-15 -29,-10l-50 22c-12,5 -22,17 -16,30l15 37c-13,11 -24,22 -34,36l-37 -15c-13,-4 -26,1 -31,13l-21 51c-5,13 1,26 13,31l38 15c-2,17 -1,35 1,51l-37 15c-12,5 -22,19 -16,31l22 50c5,12 23,20 35,14l37 -15c11,13 22,24 36,34l-15 36c-5,13 1,26 13,31l51 21c13,5 26,-1 31,-13l13 -37c17,2 33,2 49,0l15 37c5,12 23,20 35,14l50 -22c12,-5 15,-22 10,-34l-15 -37c13,-11 26,-23 36,-37l38 14c13,4 26,-1 31,-13l21 -51c4,-13 -1,-26 -13,-31l-37 -13c2,-17 2,-33 0,-49l37 -15c12,-5 13,-21 9,-33l-22 -50c-5,-13 -16,-17 -28,-13l0 3zm-148 240c-58,24 -123,-2 -148,-59 -24,-58 2,-123 59,-148 58,-24 123,2 148,59 24,58 -2,123 -59,148z"/>
   <rect class="fil4" x="1314" y="795" width="1171" height="738"/>
   <rect class="fil5" transform="matrix(-1.61091E-16 0.876936 -0.876936 -1.61091E-16 2461.3 819.983)" width="726" height="1279"/>
   <polygon class="fil6" points="2610,1718 1191,1718 1314,1533 2486,1533 "/>
   <rect class="fil7" x="1191" y="1718" width="1419" height="18"/>
   <polygon class="fil7" points="2461,1643 1340,1643 1394,1548 2413,1548 "/>
   <polygon class="fil8" points="1348,1643 1398,1555 2408,1555 2453,1643 "/>
   <polygon class="fil8" points="1348,1643 1398,1555 2408,1555 2453,1643 "/>
   <polygon class="fil8" points="1348,1643 1398,1555 2408,1555 2453,1643 "/>
   <polygon class="fil9" points="2162,1710 1643,1710 1662,1648 2144,1648 "/>
   <polygon class="fil10" points="1650,1710 1667,1653 2138,1653 2156,1710 "/>
   <polygon class="fil11" points="2329,1574 2320,1555 2254,1555 2261,1574 "/>
   <path class="fil4" d="M2338 1579l-81 0 -12 -31 78 0 14 31zm-74 -11l56 0 -4 -8 -56 0 4 8z"/>
   <polygon class="fil11" points="2184,1574 2178,1555 2099,1555 2105,1574 "/>
   <path class="fil4" d="M2192 1579l-92 0 -10 -31 90 0 11 31 1 0zm-84 -11l67 0 -3 -8 -67 0 3 8z"/>
   <polygon class="fil11" points="2261,1574 2254,1555 2178,1555 2184,1574 "/>
   <path class="fil4" d="M2269 1579l-88 0 -11 -31 87 0 12 31zm-80 -11l64 0 -4 -8 -64 0 3 8 1 0z"/>
   <polygon class="fil11" points="2138,1574 2149,1611 2231,1611 2218,1574 "/>
   <path class="fil4" d="M2239 1616l-94 0 -15 -48 91 0 17 48 1 0zm-85 -11l69 0 -9 -25 -68 0 8 25z"/>
   <polygon class="fil11" points="2418,1574 2408,1555 2320,1555 2329,1574 "/>
   <path class="fil4" d="M2427 1579l-101 0 -14 -31 100 0 15 31zm-94 -11l76 0 -5 -8 -76 0 4 8 1 0z"/>
   <polygon class="fil11" points="1959,1574 1957,1555 1888,1555 1888,1574 "/>
   <path class="fil4" d="M1966 1579l-84 0 0 -31 79 0 5 31zm-72 -11l59 0 -1 -8 -58 0 0 8 0 0z"/>
   <polygon class="fil11" points="1888,1574 1888,1555 1819,1555 1816,1574 "/>
   <path class="fil4" d="M1894 1579l-84 0 4 -31 79 0 0 31 0 0zm-70 -11l59 0 0 -8 -58 0 -1 8z"/>
   <polygon class="fil11" points="2030,1574 2025,1555 1957,1555 1959,1574 "/>
   <path class="fil4" d="M2037 1579l-83 0 -4 -31 79 0 8 31zm-73 -11l58 0 -2 -8 -58 0 1 8z"/>
   <polygon class="fil11" points="2105,1574 2099,1555 2025,1555 2030,1574 "/>
   <path class="fil4" d="M2112 1579l-87 0 -8 -31 85 0 10 31 1 0zm-78 -11l63 0 -3 -8 -63 0 2 8 1 0z"/>
   <polygon class="fil11" points="1715,1574 1615,1574 1601,1611 1703,1611 1780,1611 1789,1574 "/>
   <path class="fil4" d="M1785 1616l-191 0 17 -48 185 0 -12 48zm-175 -11l166 0 6 -25 -164 0 -9 25z"/>
   <polygon class="fil11" points="1637,1569 1538,1569 1525,1605 1626,1605 1703,1605 1713,1569 "/>
   <path class="fil4" d="M1707 1611l-191 0 17 -48 185 0 -12 48zm-175 -11l166 0 6 -25 -164 0 -9 25z"/>
   <polygon class="fil11" points="1539,1574 1470,1574 1453,1611 1525,1611 1601,1611 1615,1574 "/>
   <path class="fil4" d="M1606 1616l-161 0 22 -48 157 0 -17 48 -1 0zm-144 -11l136 0 9 -25 -133 0 -12 25z"/>
   <polygon class="fil11" points="1539,1574 1470,1574 1453,1611 1525,1611 1533,1611 1549,1574 "/>
   <path class="fil4" d="M1537 1616l-93 0 22 -48 91 0 -22 48 1 0zm-75 -11l67 0 12 -25 -67 0 -12 25z"/>
   <polygon class="fil11" points="1770,1574 1699,1574 1690,1611 1765,1611 1842,1611 1842,1574 "/>
   <path class="fil4" d="M1847 1616l-164 0 12 -48 152 0 0 48 0 0zm-149 -11l139 0 0 -25 -132 0 -6 25z"/>
   <polygon class="fil11" points="1816,1574 1819,1555 1751,1555 1746,1574 "/>
   <path class="fil4" d="M1822 1579l-83 0 8 -31 79 0 -5 31zm-68 -11l58 0 1 -8 -58 0 -2 8z"/>
   <polygon class="fil11" points="2064,1574 2073,1611 2150,1611 2138,1574 "/>
   <path class="fil4" d="M2158 1616l-89 0 -12 -48 86 0 15 48 -1 0zm-80 -11l66 0 -8 -25 -64 0 6 25z"/>
   <polygon class="fil11" points="2329,1574 2347,1611 2437,1611 2418,1574 "/>
   <path class="fil4" d="M2446 1616l-103 0 -22 -48 101 0 24 48zm-95 -11l77 0 -13 -25 -76 0 12 25 1 0z"/>
   <polygon class="fil11" points="1591,1574 1598,1555 1522,1555 1515,1574 "/>
   <path class="fil4" d="M1595 1579l-88 0 12 -31 87 0 -11 31zm-72 -11l64 0 3 -8 -64 0 -3 8z"/>
   <polygon class="fil11" points="1515,1574 1522,1555 1456,1555 1447,1574 "/>
   <path class="fil4" d="M1519 1579l-81 0 14 -31 78 0 -12 31zm-64 -11l56 0 4 -8 -55 0 -4 8 -1 0z"/>
   <polygon class="fil11" points="1456,1555 1398,1555 1387,1574 1447,1574 "/>
   <path class="fil4" d="M1450 1579l-72 0 17 -31 69 0 -14 31zm-53 -11l46 0 4 -8 -45 0 -4 8z"/>
   <polygon class="fil11" points="1671,1574 1677,1555 1598,1555 1591,1574 "/>
   <path class="fil4" d="M1675 1579l-92 0 11 -31 90 0 -10 31 1 0zm-76 -11l67 0 3 -8 -67 0 -3 8z"/>
   <polygon class="fil11" points="1470,1574 1387,1574 1367,1611 1453,1611 "/>
   <path class="fil4" d="M1456 1616l-100 0 28 -48 94 0 -22 48 0 0zm-81 -11l74 0 12 -25 -71 0 -14 25z"/>
   <polygon class="fil11" points="1429,1605 1414,1638 1488,1638 1501,1605 "/>
   <path class="fil4" d="M1492 1644l-87 0 21 -44 84 0 -17 44 0 0zm-69 -11l62 0 8 -22 -60 0 -10 22z"/>
   <polygon class="fil11" points="1501,1605 1488,1638 1566,1638 1578,1605 "/>
   <path class="fil4" d="M1570 1644l-90 0 17 -44 89 0 -16 44zm-74 -11l66 0 8 -22 -66 0 -8 22z"/>
   <polygon class="fil11" points="1370,1605 1351,1638 1417,1638 1432,1605 "/>
   <path class="fil4" d="M1420 1644l-79 0 25 -44 75 0 -21 44zm-60 -11l53 0 10 -22 -51 0 -13 22 1 0z"/>
   <polygon class="fil11" points="1660,1605 1578,1605 1566,1638 1649,1638 1728,1638 1736,1605 "/>
   <path class="fil4" d="M1733 1644l-175 0 16 -44 170 0 -11 44 -1 0zm-159 -11l150 0 5 -22 -148 0 -8 22z"/>
   <polygon class="fil11" points="1746,1574 1751,1555 1654,1555 1647,1574 "/>
   <path class="fil4" d="M1750 1579l-111 0 11 -31 108 0 -8 31zm-95 -11l86 0 2 -8 -85 0 -3 8z"/>
   <polygon class="fil11" points="2356,1574 2290,1574 2288,1574 2213,1574 2227,1611 2302,1611 2304,1611 2373,1611 "/>
   <path class="fil4" d="M2382 1616l-159 0 -17 -48 154 0 22 48 0 0zm-151 -11l134 0 -12 -25 -131 0 9 25z"/>
   <polygon class="fil11" points="2289,1574 2254,1574 2253,1574 2213,1574 2220,1611 2260,1611 2261,1611 2298,1611 "/>
   <path class="fil4" d="M2305 1616l-89 0 -9 -48 86 0 12 48zm-80 -11l66 0 -6 -25 -64 0 4 25z"/>
   <polygon class="fil11" points="1855,1574 1785,1574 1775,1611 1851,1611 1927,1611 1927,1574 "/>
   <path class="fil4" d="M1932 1616l-164 0 12 -48 152 0 0 48zm-149 -11l139 0 0 -25 -132 0 -6 25z"/>
   <polygon class="fil11" points="2066,1574 1996,1574 1924,1574 1924,1611 2002,1611 2076,1611 "/>
   <path class="fil4" d="M2084 1616l-164 0 0 -48 152 0 12 48zm-153 -11l139 0 -6 -25 -132 0 0 25z"/>
   <polygon class="fil11" points="2072,1574 2037,1574 2003,1574 2003,1611 2039,1611 2076,1611 "/>
   <path class="fil4" d="M2083 1616l-85 0 0 -48 80 0 5 48zm-75 -11l62 0 -4 -25 -58 0 0 25 0 0z"/>
   <polygon class="fil11" points="1930,1574 1891,1574 1851,1574 1851,1611 1894,1611 1935,1611 "/>
   <path class="fil4" d="M1941 1616l-95 0 0 -48 89 0 6 48zm-85 -11l72 0 -4 -25 -68 0 0 25z"/>
   <polygon class="fil11" points="1811,1605 1806,1638 1888,1638 1888,1605 "/>
   <path class="fil4" d="M1894 1644l-94 0 6 -44 87 0 0 44zm-80 -11l69 0 0 -22 -67 0 -3 22z"/>
   <polygon class="fil11" points="1965,1605 1969,1638 2048,1638 2039,1605 "/>
   <path class="fil4" d="M2055 1644l-90 0 -6 -44 85 0 11 44zm-81 -11l67 0 -5 -22 -64 0 3 22z"/>
   <polygon class="fil11" points="1888,1605 1888,1638 1969,1638 1965,1605 "/>
   <path class="fil4" d="M1976 1644l-94 0 0 -44 87 0 6 44zm-82 -11l69 0 -3 -22 -67 0 0 22z"/>
   <polygon class="fil11" points="1736,1605 1728,1638 1806,1638 1811,1605 "/>
   <path class="fil4" d="M1812 1644l-90 0 11 -44 85 0 -6 44zm-76 -11l67 0 3 -22 -64 0 -5 22z"/>
   <polygon class="fil11" points="2039,1605 2048,1638 2127,1638 2117,1605 "/>
   <path class="fil4" d="M2134 1644l-91 0 -11 -44 88 0 13 44zm-83 -11l67 0 -6 -22 -66 0 5 22 -1 0z"/>
   <polygon class="fil11" points="2360,1638 2452,1638 2434,1605 2344,1605 "/>
   <path class="fil4" d="M2461 1643l-104 0 -21 -44 103 0 22 44zm-97 -11l79 0 -11 -22 -78 0 10 22z"/>
   <polygon class="fil11" points="2274,1605 2287,1638 2361,1638 2345,1605 "/>
   <path class="fil4" d="M2370 1643l-87 0 -17 -44 84 0 21 44 0 0zm-79 -11l62 0 -10 -22 -60 0 8 22z"/>
   <polygon class="fil11" points="2275,1605 2198,1605 2117,1605 2127,1638 2210,1638 2288,1638 "/>
   <path class="fil4" d="M2296 1644l-174 0 -13 -44 170 0 17 44zm-165 -11l148 0 -8 -22 -148 0 6 22 1 0z"/>
   <path class="fil12" d="M2461 820l-12 0c-8,69 -20,129 -31,175 -25,108 -40,165 -86,228 -58,77 -132,118 -164,134 0,0 -64,34 -138,51 -69,16 -235,33 -470,49l900 0 0 -637 1 0z"/>
   <polygon class="fil13" points="1358,836 2461,836 2461,820 1340,820 1340,1457 1358,1457 "/>
   <path class="fil14" d="M1623 901l-207 0c-6,0 -11,-5 -11,-11l0 0c0,-6 5,-11 11,-11l207 0c6,0 11,4 11,11l0 0c0,6 -5,11 -11,11z"/>
   <path class="fil15" d="M1826 901l-157 0c-6,0 -11,-5 -11,-11l0 0c0,-6 5,-11 11,-11l157 0c6,0 11,4 11,11l0 0c0,6 -5,11 -11,11z"/>
   <path class="fil16" d="M1982 901l-103 0c-6,0 -11,-5 -11,-11l0 0c0,-6 5,-11 11,-11l103 0c6,0 11,4 11,11l0 0c0,6 -5,11 -11,11z"/>
   <path class="fil15" d="M2145 901l-112 0c-6,0 -11,-5 -11,-11l0 0c0,-6 4,-11 11,-11l112 0c6,0 11,4 11,11l0 0c0,6 -4,11 -11,11z"/>
   <path class="fil16" d="M2392 901l-202 0c-6,0 -11,-5 -11,-11l0 0c0,-6 4,-11 11,-11l202 0c6,0 11,4 11,11l0 0c0,6 -4,11 -11,11z"/>
   <path class="fil14" d="M1623 1238l-207 0c-6,0 -11,4 -11,11l0 0c0,6 5,11 11,11l207 0c6,0 11,-5 11,-11l0 0c0,-6 -5,-11 -11,-11z"/>
   <path class="fil15" d="M1826 1238l-157 0c-6,0 -11,4 -11,11l0 0c0,6 5,11 11,11l157 0c6,0 11,-5 11,-11l0 0c0,-6 -5,-11 -11,-11z"/>
   <path class="fil16" d="M1982 1238l-103 0c-6,0 -11,4 -11,11l0 0c0,6 5,11 11,11l103 0c6,0 11,-5 11,-11l0 0c0,-6 -5,-11 -11,-11z"/>
   <path class="fil15" d="M2145 1238l-112 0c-6,0 -11,4 -11,11l0 0c0,6 4,11 11,11l112 0c6,0 11,-5 11,-11l0 0c0,-6 -4,-11 -11,-11z"/>
   <path class="fil16" d="M2392 1238l-202 0c-6,0 -11,4 -11,11l0 0c0,6 4,11 11,11l202 0c6,0 11,-5 11,-11l0 0c0,-6 -4,-11 -11,-11z"/>
   <path class="fil14" d="M1511 1345l-95 0c-6,0 -11,4 -11,11l0 0c0,6 5,11 11,11l95 0c6,0 11,-5 11,-11l0 0c0,-6 -5,-11 -11,-11z"/>
   <path class="fil15" d="M1709 1345l-157 0c-6,0 -11,4 -11,11l0 0c0,6 4,11 11,11l157 0c6,0 11,-5 11,-11l0 0c0,-6 -4,-11 -11,-11z"/>
   <path class="fil16" d="M1864 1345l-103 0c-6,0 -11,4 -11,11l0 0c0,6 5,11 11,11l103 0c6,0 11,-5 11,-11l0 0c0,-6 -5,-11 -11,-11z"/>
   <path class="fil14" d="M1623 1102l-207 0c-6,0 -11,-4 -11,-11l0 0c0,-6 5,-11 11,-11l207 0c6,0 11,5 11,11l0 0c0,6 -5,11 -11,11z"/>
   <path class="fil15" d="M1826 1102l-157 0c-6,0 -11,-4 -11,-11l0 0c0,-6 5,-11 11,-11l157 0c6,0 11,5 11,11l0 0c0,6 -5,11 -11,11z"/>
   <path class="fil16" d="M1982 1102l-103 0c-6,0 -11,-4 -11,-11l0 0c0,-6 5,-11 11,-11l103 0c6,0 11,5 11,11l0 0c0,6 -5,11 -11,11z"/>
   <path class="fil15" d="M2145 1102l-112 0c-6,0 -11,-4 -11,-11l0 0c0,-6 4,-11 11,-11l112 0c6,0 11,5 11,11l0 0c0,6 -4,11 -11,11z"/>
   <path class="fil16" d="M2392 1102l-202 0c-6,0 -11,-4 -11,-11l0 0c0,-6 4,-11 11,-11l202 0c6,0 11,5 11,11l0 0c0,6 -4,11 -11,11z"/>
   <path class="fil16" d="M1563 951l-147 0c-6,0 -11,-4 -11,-11l0 0c0,-6 5,-11 11,-11l147 0c6,0 11,5 11,11l0 0c0,6 -4,11 -11,11z"/>
   <path class="fil15" d="M1840 951l-238 0c-6,0 -11,-4 -11,-11l0 0c0,-6 4,-11 11,-11l238 0c6,0 11,5 11,11l0 0c0,6 -4,11 -11,11z"/>
   <path class="fil17" d="M1957 951l-69 0c-6,0 -11,-4 -11,-11l0 0c0,-6 5,-11 11,-11l69 0c6,0 11,5 11,11l0 0c0,6 -5,11 -11,11z"/>
   <path class="fil14" d="M2392 951l-67 0c-6,0 -11,-4 -11,-11l0 0c0,-6 5,-11 11,-11l67 0c6,0 11,5 11,11l0 0c0,6 -4,11 -11,11z"/>
   <path class="fil15" d="M2098 951l-94 0c-6,0 -11,-4 -11,-11l0 0c0,-6 5,-11 11,-11l94 0c6,0 11,5 11,11l0 0c0,6 -5,11 -11,11z"/>
   <path class="fil16" d="M2285 951l-142 0c-6,0 -11,-4 -11,-11l0 0c0,-6 5,-11 11,-11l142 0c6,0 11,5 11,11l0 0c0,6 -5,11 -11,11z"/>
   <path class="fil16" d="M1563 1311l-147 0c-6,0 -11,-5 -11,-11l0 0c0,-6 5,-11 11,-11l147 0c6,0 11,4 11,11l0 0c0,6 -4,11 -11,11z"/>
   <path class="fil15" d="M2098 1149l-94 0c-6,0 -11,-4 -11,-11l0 0c0,-6 5,-11 11,-11l94 0c6,0 11,5 11,11l0 0c0,6 -5,11 -11,11z"/>
   <path class="fil16" d="M1517 1030l-101 0c-6,0 -11,5 -11,11l0 0c0,6 5,11 11,11l101 0c6,0 11,-4 11,-11l0 0c0,-6 -5,-11 -11,-11z"/>
   <path class="fil15" d="M1700 1030l-144 0c-6,0 -11,5 -11,11l0 0c0,6 4,11 11,11l144 0c6,0 11,-4 11,-11l0 0c0,-6 -5,-11 -11,-11z"/>
   <path class="fil14" d="M2392 1030l-67 0c-6,0 -11,5 -11,11l0 0c0,6 5,11 11,11l67 0c6,0 11,-4 11,-11l0 0c0,-6 -4,-11 -11,-11z"/>
   <path class="fil14" d="M2098 1030l-94 0c-6,0 -11,5 -11,11l0 0c0,6 5,11 11,11l94 0c6,0 11,-4 11,-11l0 0c0,-6 -5,-11 -11,-11z"/>
   <path class="fil17" d="M1809 1030l-69 0c-6,0 -11,5 -11,11l0 0c0,6 5,11 11,11l69 0c6,0 11,-4 11,-11l0 0c0,-6 -4,-11 -11,-11z"/>
   <path class="fil16" d="M1950 1030l-94 0c-6,0 -11,5 -11,11l0 0c0,6 5,11 11,11l94 0c6,0 11,-4 11,-11l0 0c0,-6 -4,-11 -11,-11z"/>
   <path class="fil16" d="M2285 1030l-142 0c-6,0 -11,5 -11,11l0 0c0,6 5,11 11,11l142 0c6,0 11,-4 11,-11l0 0c0,-6 -5,-11 -11,-11z"/>
   <path class="fil16" d="M1517 1183l-101 0c-6,0 -11,4 -11,11l0 0c0,6 5,11 11,11l101 0c6,0 11,-5 11,-11l0 0c0,-6 -5,-11 -11,-11z"/>
   <path class="fil15" d="M1700 1183l-144 0c-6,0 -11,4 -11,11l0 0c0,6 4,11 11,11l144 0c6,0 11,-5 11,-11l0 0c0,-6 -5,-11 -11,-11z"/>
   <path class="fil14" d="M2262 1183l-94 0c-6,0 -11,4 -11,11l0 0c0,6 5,11 11,11l94 0c6,0 11,-5 11,-11l0 0c0,-6 -4,-11 -11,-11z"/>
   <path class="fil14" d="M1809 1183l-69 0c-6,0 -11,4 -11,11l0 0c0,6 5,11 11,11l69 0c6,0 11,-5 11,-11l0 0c0,-6 -4,-11 -11,-11z"/>
   <path class="fil16" d="M1950 1183l-94 0c-6,0 -11,4 -11,11l0 0c0,6 5,11 11,11l94 0c6,0 11,-5 11,-11l0 0c0,-6 -4,-11 -11,-11z"/>
   <polygon class="fil18" points="2008,834 2022,834 2024,817 2010,817 "/>
   <path class="fil3 str0" d="M2586 1275l-207 0c-28,0 -50,-23 -50,-50l0 -143c0,-28 23,-50 50,-50l207 0c28,0 50,23 50,50l0 143c0,28 -23,50 -50,50z"/>
   <g>
    <polygon class="fil17" points="2356,1166 2448,1211 2448,1181 2386,1154 2448,1128 2448,1098 2356,1142 "/>
    <path class="fil17" d="M2496 1078c-3,0 -6,1 -8,3 -1,3 -3,7 -4,13l-26 114c-1,6 -2,10 -2,12 0,6 3,9 9,9 3,0 4,-1 6,-2 2,-2 3,-3 3,-5 1,-3 2,-5 3,-9l26 -114c2,-5 2,-9 2,-11 0,-3 -1,-5 -3,-7 -2,-2 -4,-3 -7,-3l0 -1z"/>
    <polygon class="fil17" points="2516,1098 2516,1128 2578,1154 2516,1182 2516,1211 2608,1166 2608,1142 "/>
   </g>
   <g>
    <path class="fil19" d="M2151 778l21 0 0 22 -23 0 -3 32 20 0 0 22 -22 0 -4 39 -23 0 4 -40 -27 0 -4 39 -23 0 4 -40 -20 0 0 -22 23 0 3 -32 -20 0 0 -22 22 0 4 -36 23 0 -4 36 27 0 4 -36 23 0 -4 36zm-345 -221c2,-1 4,-1 6,-2 -3,1 -5,2 -6,2zm31 -9c4,-1 8,-2 12,-2l-1 0c-2,0 -2,1 -3,1 -4,1 -5,1 -7,1zm26 -5c5,-1 10,-1 14,-2 -4,0 -2,1 -7,1 -4,0 -6,0 -8,0zm445 42c0,0 0,0 0,0 0,0 0,0 0,0zm4 1c-5,-8 -12,-20 -20,-24 -93,-55 -201,-120 -295,-170 -9,-5 -18,-11 -27,-16 0,0 0,0 0,0l-16 -9c0,0 0,0 -1,0l-27 -14c-19,-7 -47,-5 -64,5 0,0 0,0 -1,0 -113,66 -261,138 -357,208 -2,2 -2,1 -4,3l-6 8c0,1 -1,1 -2,2l-9 16c-1,3 -7,19 -7,21 0,2 0,5 0,7l0 346c0,27 -2,43 3,69 1,7 5,13 8,20 2,4 3,7 6,9 0,0 0,0 0,1l1 2c2,3 4,6 7,8 5,5 13,11 20,14 117,67 235,141 355,202 2,1 -1,1 4,1 7,1 35,1 41,-1 1,0 1,0 2,-1 94,-48 368,-208 380,-223 2,-2 3,-3 4,-6 0,0 0,-1 0,0 0,1 5,-9 5,-9l5 -11c1,-2 1,-3 2,-5 3,-7 1,-13 1,-23l0 -376c0,-19 2,-35 -9,-52 0,0 0,0 0,0 0,0 0,0 0,0 0,0 0,0 0,0zm-530 310c-3,-2 -9,-15 -10,-18l-2 -5c0,0 0,0 0,-1 -6,-15 -13,-49 -8,-66 2,-9 -1,-5 5,-26 5,-16 14,-33 25,-46 12,-15 26,-27 43,-36 2,-1 4,-2 6,-3l19 -7c3,-1 3,-1 7,-2l10 -3c3,-1 1,0 3,-1 8,-2 26,-1 35,0 10,0 20,4 29,6l12 5c25,10 48,30 62,52 4,6 2,6 9,3 -1,4 -5,3 -9,4 -2,1 -6,3 -8,5 -3,2 -5,3 -8,5 -3,2 -5,3 -8,5l-12 8c0,0 0,0 -1,0 -4,2 -8,3 -16,9 -2,1 0,0 -2,1l-2 1c-1,1 0,0 -2,1 -3,1 -2,1 -4,2 -10,7 -28,16 -40,23 -6,4 -13,5 -16,11 -4,1 -9,5 -12,7l-10 5c-2,1 -5,3 -7,4 -13,8 -31,18 -45,26l-45 26 2 5zm343 -96l-26 0 -3 32 27 0 3 -32z"/>
    <g>
     <path class="fil18" d="M2131 781l19 0 0 20 -21 0 -3 30 18 0 0 20 -20 0 -4 36 -21 0 4 -36 -24 0 -4 36 -21 0 4 -36 -19 0 0 -20 21 0 3 -30 -18 0 0 -20 20 0 3 -33 21 0 -3 33 25 0 3 -33 21 0 -3 33zm-12 -85c-3,1 -69,39 -76,43l-25 15c-1,4 -5,2 -8,4 -2,1 -5,3 -7,4 -3,2 -5,2 -8,4 -3,2 -5,3 -7,5l-11 7c0,0 0,0 0,0 -3,2 -7,3 -15,8 -2,1 0,0 -2,1l-2 1c-1,1 0,0 -2,1 -2,1 -2,1 -4,2 -9,6 -26,14 -37,21 -6,4 -12,5 -14,10 3,1 4,3 6,4l7 4c2,1 5,2 8,3 8,5 10,5 17,10l7 4c1,0 3,1 4,2 6,5 0,1 7,4 3,1 0,0 3,2l10 6c1,1 2,1 3,2 4,2 4,1 7,4 0,0 0,1 4,2 4,2 4,3 7,4 8,4 12,8 22,11l1 2c4,-1 9,3 15,7 5,3 9,6 14,8l56 32c9,6 20,10 28,16 -1,4 -2,3 -3,8 3,-2 3,-4 5,-6 9,4 4,3 9,5 1,1 4,1 5,2l29 16c2,1 3,2 4,3l10 5c3,1 2,2 4,3 2,1 3,1 5,2 3,1 1,1 5,3 3,1 2,1 5,3l7 4c1,1 0,0 3,2l19 11c3,2 1,1 5,3 4,2 3,2 4,3l10 5c7,2 6,6 15,8 4,1 2,1 5,3 1,1 4,2 5,3 6,1 0,0 5,-1 0,2 0,1 -1,2l-1 2c0,0 0,0 0,1 -1,3 -2,3 -1,5 0,0 0,-1 0,0 0,1 5,-8 5,-8l4 -10c1,-2 1,-3 2,-5 2,-7 1,-12 1,-21l0 -345c0,-17 2,-32 -8,-47 0,0 0,0 0,0 0,0 0,0 0,0 0,0 0,0 0,0l-4 -1c-1,1 -3,0 -4,1 -2,1 -3,4 -5,5l-43 25c-5,3 -11,5 -16,9 -2,2 -7,4 -10,6l-69 40c-6,3 1,1 -9,7z"/>
     <polygon class="fil18" points="2107,801 2083,802 2080,831 2104,831 "/>
     <path class="fil20" d="M1528 1046c0,0 0,0 0,1l1 2c2,3 4,5 7,8 5,5 12,10 19,13 108,62 216,129 326,186 2,1 -1,1 4,1 7,1 32,1 37,-1 1,0 1,0 2,-1 87,-45 338,-191 349,-205 2,-2 3,-3 4,-5 0,-2 0,-2 1,-5 0,0 0,0 0,-1l1 -2c1,-1 1,0 1,-2 -5,1 1,3 -5,1 -1,0 -4,-2 -5,-3 -3,-2 -1,-2 -5,-3 -8,-2 -8,-6 -15,-8l-10 -5c-1,-1 0,-1 -4,-3 -4,-2 -2,-1 -5,-3l-19 -11c-2,-1 -1,-1 -3,-2l-7 -4c-2,-2 -2,-1 -5,-3 -4,-2 -2,-1 -5,-3 -2,-1 -3,-1 -5,-2 -2,-1 -1,-2 -4,-3l-10 -5c-2,-1 -2,-2 -4,-3l-29 -16c-1,-1 -4,-2 -5,-2 -5,-2 0,-1 -9,-5 -2,2 -2,4 -5,6l-4 6c-12,19 -29,37 -46,52 -15,13 -33,27 -51,35 -9,4 -13,6 -23,10 -9,3 -13,6 -24,8 -56,16 -122,13 -175,-11 -3,-1 -5,-2 -7,-3l-14 -7c-5,-2 -9,-5 -14,-8 -30,-19 -46,-35 -68,-62l-13 -19c-1,-2 -2,-4 -4,-6 -2,-1 -1,1 -2,-1 -8,6 -20,11 -28,16 -3,2 -6,3 -10,5l-75 44c0,0 -1,1 -2,1l-37 21c1,4 2,3 4,7z"/>
     <path class="fil20" d="M1792 889c3,6 14,19 18,23 39,39 105,49 152,21 2,-1 4,-2 7,-4 10,-6 17,-12 24,-19 4,-4 17,-20 18,-25l-1 -2c-10,-3 -13,-7 -22,-11 -3,-1 -3,-2 -7,-4 -4,-2 -3,-2 -4,-2 -3,-3 -3,-2 -7,-4 -1,-1 -2,-1 -3,-2l-10 -6c-3,-2 0,-1 -3,-2 -7,-4 -1,1 -7,-4 -1,-1 -3,-1 -4,-2l-7 -4c-7,-4 -9,-5 -17,-10 -2,-2 -5,-2 -8,-3l-7 -4c-2,-1 -3,-3 -6,-4 -3,1 -8,4 -11,6l-9 5c-2,1 -5,3 -7,4 -11,7 -29,16 -41,24l-41 24 1 4z"/>
     <path class="fil21" d="M1678 951c2,2 3,4 4,6l13 19c22,27 38,43 68,62 5,3 9,6 14,8l14 7c3,1 5,2 7,3 54,24 120,27 175,11 10,-3 15,-5 24,-8 10,-4 14,-6 23,-10 18,-9 36,-22 51,-35 17,-14 33,-33 46,-52l4 -6c2,-5 3,-4 3,-8 -8,-6 -19,-10 -28,-16l-56 -32c-5,-3 -9,-6 -14,-8 -7,-4 -11,-7 -15,-7 -1,5 -14,20 -18,25 -8,8 -15,13 -24,19 -3,2 -4,3 -7,4 -47,27 -113,18 -152,-21 -5,-5 -16,-17 -18,-23 -3,-2 -8,-13 -9,-17l-2 -5c0,0 0,0 0,-1 -6,-14 -12,-45 -8,-61 2,-8 -1,-4 5,-24 4,-14 13,-31 23,-42 11,-14 24,-25 40,-33 2,-1 4,-2 5,-3l18 -7c3,-1 3,-1 6,-2l10 -3c3,-1 1,0 2,-1 7,-1 24,-1 32,0 9,0 19,3 27,6l11 5c23,9 44,27 57,48 3,5 2,6 9,3l25 -15c7,-4 73,-42 76,-43 2,-4 2,-2 5,-5 -1,-4 -10,-16 -12,-20 -10,-14 -25,-31 -38,-42 -9,-8 -17,-15 -27,-21 -3,-2 -6,-4 -10,-7l-10 -6c-4,-2 -7,-4 -11,-6l-11 -5c-4,-2 -8,-3 -11,-5 -11,-5 -26,-8 -37,-11 -18,-4 -57,-7 -76,-5 -4,0 -3,1 -7,1 -12,1 -7,-1 -21,3 -1,0 -2,1 -3,1 -5,2 -5,0 -10,1 -8,1 -21,7 -25,8 -10,2 -29,12 -39,18 -14,8 -30,19 -42,30 -17,14 -12,12 -24,24 -14,14 -21,27 -30,39 -7,10 -20,43 -23,53 -2,7 -6,18 -7,25l-4 28c-1,20 -3,42 1,61 1,5 1,10 2,15 1,2 1,5 1,7 3,8 4,17 9,30 3,8 7,16 10,23l11 21z"/>
     <path class="fil21" d="M2104 831l-24 0 3 -30 24 0 -3 30zm30 -83l-21 0 -3 33 -25 0 3 -33 -21 0 -3 33 -20 0 0 20 18 0 -3 30 -21 0 0 20 19 0 -4 36 21 0 4 -36 24 0 -4 36 21 0 4 -36 20 0 0 -20 -18 0 3 -30 21 0 0 -20 -19 0 3 -33z"/>
     <path class="fil22" d="M1528 1046c-2,-4 -3,-3 -4,-7l37 -21c1,0 1,-1 2,-1l75 -44c4,-2 7,-3 10,-5 8,-5 20,-11 28,-16 0,2 0,0 2,1l-11 -21c-3,-7 -7,-15 -10,-23 -5,-13 -6,-22 -9,-30 -1,-2 -1,-5 -1,-7 -1,-5 -1,-10 -2,-15 -4,-19 -2,-41 -1,-61l4 -28c1,-7 5,-18 7,-25 3,-10 16,-43 23,-53 9,-12 16,-26 30,-39 12,-12 7,-10 24,-24 12,-11 28,-22 42,-30 10,-5 29,-15 39,-18 22,-7 44,-12 67,-14 19,-2 58,1 76,5 11,3 26,6 37,11 3,1 7,3 11,5l11 5c4,2 7,4 11,6l10 6c4,2 7,5 10,7 10,7 18,13 27,21 13,12 28,28 38,42 3,4 12,16 12,20 -3,3 -3,1 -5,5 11,-6 4,-4 9,-7l69 -40c3,-1 7,-4 10,-6 5,-4 11,-6 16,-9 6,-4 50,-28 53,-31l4 1c-5,-7 -11,-19 -19,-22 -86,-50 -185,-110 -270,-156 -8,-4 -17,-10 -25,-14 0,0 0,0 0,0l-15 -9c0,0 0,0 0,0l-24 -13c-17,-6 -43,-5 -59,5 0,0 0,0 0,0 -104,60 -239,127 -328,191 -2,2 -2,1 -4,3l-6 7c0,1 -1,1 -2,2l-8 14c-1,2 -6,17 -6,20 0,2 0,5 0,7l0 317c0,24 -1,40 3,64 1,6 4,12 7,18 2,3 3,6 6,8z"/>
     <path class="fil22" d="M1792 889l-1 -4 41 -24c12,-8 29,-16 41,-24 2,-1 5,-3 7,-4l9 -5c3,-2 8,-6 11,-6 2,-5 8,-6 14,-10 11,-7 28,-15 37,-21 2,-1 1,-1 4,-2 1,-1 0,0 2,-1l2 -1c2,-1 0,0 2,-1 8,-5 12,-6 15,-8 0,0 0,0 0,0l11 -7c3,-2 4,-3 7,-5 3,-2 5,-2 8,-4 2,-1 5,-3 7,-4 3,-1 7,0 8,-4 -6,2 -5,2 -9,-3 -13,-20 -34,-38 -57,-48l-11 -5c-8,-2 -17,-5 -27,-6 -8,0 -25,-1 -32,0 -1,0 0,0 -2,1l-10 3c-3,1 -4,1 -6,2l-18 7c-2,1 -4,2 -5,3 -15,8 -28,19 -40,33 -10,12 -18,28 -23,42 -6,19 -3,15 -5,24 -4,15 2,47 8,61 0,0 0,0 0,1l2 5c1,3 6,15 9,17z"/>
    </g>
   </g>
   <path class="fil14" d="M1807 1290l-207 0c-6,0 -11,5 -11,11l0 0c0,6 5,11 11,11l207 0c6,0 11,-4 11,-11l0 0c0,-6 -5,-11 -11,-11z"/>
  </g>
 </g>
</svg>
