<?xml version="1.0" encoding="UTF-8"?>
<!DOCTYPE svg PUBLIC "-//W3C//DTD SVG 1.1//EN" "http://www.w3.org/Graphics/SVG/1.1/DTD/svg11.dtd">
<!-- Creator: CorelDRAW -->
<svg xmlns="http://www.w3.org/2000/svg" xml:space="preserve" width="3.70333in" height="2.08333in" version="1.1" style="shape-rendering:geometricPrecision; text-rendering:geometricPrecision; image-rendering:optimizeQuality; fill-rule:evenodd; clip-rule:evenodd"
viewBox="0 0 3703.33 2083.33"
 xmlns:xlink="http://www.w3.org/1999/xlink"
 xmlns:xodm="http://www.corel.com/coreldraw/odm/2003">
 <defs>
  <style type="text/css">
   <![CDATA[
    .fil3 {fill:#00A1C9}
    .fil6 {fill:#040404}
    .fil7 {fill:#67D6E1}
    .fil0 {fill:#E6E7E8}
    .fil4 {fill:#F4D1A1}
    .fil5 {fill:white}
    .fil2 {fill:#373435;fill-opacity:0.031373}
    .fil1 {fill:#373435;fill-opacity:0.101961}
   ]]>
  </style>
 </defs>
 <g id="Layer_x0020_1">
  <metadata id="CorelCorpID_0Corel-Layer"/>
  <polygon class="fil0" points="-1.67,1.74 3701.66,1.74 3701.66,2084.93 -1.67,2084.93 "/>
  <polygon class="fil1" points="772.01,2084.93 766.68,2084.93 765.66,2084.93 759.26,2084.93 757.22,2084.93 748.81,2084.93 748.17,2084.93 748.16,2084.93 748.15,2084.93 745.15,2084.93 744.67,2084.93 742.53,2084.93 741.43,2084.93 740.24,2084.93 730.07,2084.93 727.43,2084.93 724.63,2084.93 722.76,2084.93 721.21,2084.93 711.65,2084.93 699.16,2084.93 698.74,2084.93 692.31,2084.93 691.38,2084.93 682.44,2084.93 681.43,2084.93 652.55,2084.93 652.29,2084.93 631.24,2084.93 622.2,2084.93 595.86,2084.93 584.94,2084.93 582.84,2084.93 582.71,2084.93 580.47,2084.93 574.57,2084.93 573.81,2084.93 571.82,2084.93 571.46,2084.93 571.11,2084.93 570.76,2084.93 553.6,2084.93 549.35,2084.93 548.06,2084.93 541.55,2084.93 540.28,2084.93 530.18,2084.93 528.53,2084.93 523.07,2084.93 521.8,2084.93 521.7,2084.93 520.41,2084.93 494.7,2084.93 493.43,2084.93 490.44,2084.93 489.76,2084.93 486.91,2084.93 486.24,2084.93 483.33,2084.93 481.49,2084.93 480.33,2084.93 480.23,2084.93 480.02,2084.93 472.47,2084.93 471.2,2084.93 467.8,2084.93 467.06,2084.93 446.47,2084.93 424.19,2084.93 423.5,2084.93 422.43,2084.93 415.43,2084.93 393.93,2084.93 332.09,2084.93 325.89,2084.93 260.69,2084.93 245.78,2084.93 226.25,2084.93 215.48,2084.93 203.97,2084.93 194.76,2084.93 151.83,2084.93 142.67,2084.93 138.47,2084.93 131.82,2084.93 131.76,2084.93 131.41,2084.93 131.37,2084.93 111.29,2084.93 71.4,2084.93 58.31,2084.93 17.93,2084.93 1.04,2084.93 0.11,2084.93 -1.67,2084.93 -1.67,2044.15 -1.67,1983.89 -1.67,1950.8 -1.67,1948.98 -1.67,1902.68 -1.67,1901.06 -1.67,1894.6 -1.67,1851.35 -1.67,1848.81 -1.67,1828.39 -1.67,1825.96 -1.67,1823.99 -1.67,1811.04 -1.67,1808.28 -1.67,1803.71 -1.67,1781.48 -1.67,1781.29 -1.67,1773.39 -1.67,1764.63 -1.67,1598.54 -1.67,1593.72 -1.67,1588.51 -1.67,1575.11 -1.67,1575.1 -1.67,1570.22 -1.67,1565.61 698.83,973.06 696.45,975.62 694.06,978.62 691.6,981.91 688.97,985.37 686.1,988.85 684.91,990.28 683.93,991.26 683.13,991.96 682.5,992.59 682.05,993.32 681.73,994.35 681.56,995.86 681.5,998.05 681.5,998.05 698.8,998.05 813.03,901.76 810.59,904.33 808.26,907.32 805.96,910.61 803.6,914.07 801.11,917.55 800.25,918.75 799.42,919.8 798.64,920.76 797.94,921.72 797.35,922.73 796.9,923.86 796.61,925.18 796.5,926.75 1072.52,927.9 1076.76,927.53 1080.15,926.43 1082.93,924.63 992.8,998.05 996.61,998.05 1000.23,998.04 1003.75,998 1007.19,997.94 1010.56,997.87 1013.88,997.78 1014.96,997.75 1226.87,825.53 1220.31,830.99 1213.87,836.65 1207.54,842.5 1201.34,848.55 1186.39,863.5 1183.16,867.39 1179.93,871.31 1176.71,875.26 1173.51,879.24 1170.32,883.24 1167.17,887.27 1164.04,891.33 1160.94,895.41 1157.89,899.52 1154.89,903.66 1151.93,907.82 1149.03,912.02 1146.19,916.24 1143.42,920.48 1140.71,924.75 1138.09,929.05 1135.74,933.35 1133.45,937.64 1131.22,941.92 1129.05,946.21 1126.94,950.52 1124.89,954.87 1122.9,959.25 1120.98,963.7 1119.13,968.2 1117.35,972.8 1115.63,977.48 1113.99,982.26 1112.43,987.15 1110.93,992.18 1109.52,997.34 1108.19,1002.65 1107.12,1006.79 1106.09,1011 1105.09,1015.28 1104.14,1019.63 1103.24,1024.04 1102.38,1028.51 1101.59,1033.02 1100.85,1037.59 1100.19,1042.19 1099.59,1046.82 1099.07,1051.49 1098.64,1056.19 1098.3,1060.9 1098.04,1065.63 1097.89,1070.36 1097.83,1075.11 1096.69,1076.02 1096.76,1081.68 1097.03,1089.32 1097.49,1096.88 1098.12,1104.35 1098.94,1111.74 1098.97,1111.96 1323.07,934.43 1326.45,931.81 1329.91,929.26 1333.45,926.76 1337.07,924.33 1340.77,921.97 1344.54,919.69 1348.39,917.5 1352.3,915.39 1356.26,913.39 1360.29,911.48 1364.37,909.67 1368.51,907.98 1372.69,906.4 1376.91,904.94 1381.18,903.61 1385.48,902.41 1389.82,901.35 1394.19,900.43 1398.58,899.65 1403,899.03 1407.43,898.56 1411.89,898.26 1416.35,898.13 1420.82,898.17 1425.3,898.39 1429.78,898.79 1434.25,899.38 1438.72,900.17 1443.18,901.16 1447.63,902.35 1452.06,903.75 1457.93,905.54 1463.52,907.45 1468.83,909.53 1473.91,911.8 1478.76,914.28 1483.43,917.01 1487.94,920.01 1492.31,923.3 1495.15,925.53 1499.1,929.25 1503.75,933.91 1508.69,938.97 1513.54,943.87 1517.86,948.05 1521.27,950.96 1523.36,952.06 1524.3,951.97 1525.8,951.72 1527.84,951.31 1530.36,950.76 1533.34,950.07 1536.75,949.26 1540.54,948.34 1544.67,947.31 1549.12,946.19 1553.85,944.98 1558.82,943.7 1563.99,942.35 1569.34,940.95 1574.82,939.51 1580.4,938.03 1586.04,936.53 1591.7,935.01 1597.37,933.5 1602.98,931.98 1608.52,930.49 1613.93,929.02 1619.2,927.59 1624.28,926.21 1629.13,924.88 1633.72,923.62 1638.02,922.44 1641.99,921.35 1645.59,920.35 1648.8,919.46 1651.56,918.7 1653.84,918.06 1654.76,917.8 1777.44,823.8 1775.2,825.56 1771.2,828.76 1767.37,831.93 1763.68,835.06 1760.13,838.17 1756.69,841.26 1753.35,844.35 1750.09,847.45 1746.89,850.57 1743.72,853.71 1740.58,856.89 1737.44,860.11 1734.29,863.4 1731.1,866.75 1727.86,870.18 1724.55,873.69 1721.15,877.31 1705.06,898.01 1701.91,902.44 1698.94,906.72 1696.13,910.87 1693.46,914.91 1690.93,918.89 1688.5,922.81 1686.17,926.72 1683.92,930.64 1681.74,934.6 1679.61,938.63 1677.52,942.76 1675.46,947.01 1673.39,951.42 1671.33,956.01 1669.23,960.81 1667.1,965.86 1666.29,967.53 1665.56,969.13 1664.88,970.67 1664.22,972.18 1663.57,973.7 1662.89,975.24 1662.16,976.83 1661.35,978.51 1660.92,980.23 1660.47,981.96 1660,983.68 1659.48,985.41 1658.91,987.13 1658.28,988.86 1657.56,990.58 1656.75,992.31 1500.5,1110.76 1513,1110.76 1508.58,1118.46 1503.56,1126.01 1497.98,1133.35 1491.87,1140.45 1485.27,1147.25 1478.23,1153.7 1470.78,1159.77 1262.1,1317.37 1262.2,1317.41 1267.98,1319.41 1273.78,1321.22 1283.47,1323.97 1293.11,1326.41 1302.71,1328.52 1312.26,1330.31 1321.78,1331.8 1331.24,1332.98 1331.44,1333 1867.21,932.35 1870.72,929.76 1874.37,927.24 1878.17,924.78 1882.17,922.38 1886.37,920.01 1890.82,917.65 1895.55,915.31 1900.56,912.94 1913.93,907.52 1927.05,903.28 1939.9,900.19 1952.44,898.2 1964.66,897.28 1976.52,897.39 1987.98,898.46 1999.04,900.48 2009.65,903.38 2011.83,904.19 2373.31,636.82 2366.18,642.82 2359.87,649.59 2354.46,657.01 2354.31,657.28 2377.2,640.36 2382.78,636.92 2388.62,634.07 2394.65,631.82 2400.85,630.17 2407.15,629.13 2413.51,628.7 2419.88,628.88 2426.22,629.69 2432.48,631.12 2438.61,633.19 2444.57,635.89 2450.16,639.15 2473.15,622.27 2469.29,625.26 2465.41,628.24 2449.75,639.73 2449.54,639.92 2450.3,640.38 2447.65,642.8 2444.2,646.39 2440.25,650.77 2437.23,654.27 2471.67,629.01 2485.08,619.97 2499.75,611.63 2503.78,609.62 2507.87,607.67 2512.04,605.79 2516.27,603.97 2520.57,602.21 2524.93,600.52 2529.34,598.88 2533.82,597.31 2538.35,595.8 2542.93,594.34 2547.56,592.94 2552.23,591.6 2556.94,590.31 2561.7,589.07 2566.5,587.89 2571.34,586.76 2576.21,585.68 2581.11,584.65 2586.04,583.67 2590.99,582.74 2595.97,581.85 2600.96,581 2605.98,580.2 2611.02,579.45 2616.06,578.74 2621.12,578.06 2626.19,577.43 2631.26,576.84 2636.33,576.28 2641.41,575.76 2646.48,575.28 2651.05,574.87 2652.7,573.68 2658.69,573.29 2664.76,572.99 2670.94,572.78 2677.19,572.67 2683.52,572.64 2689.91,572.71 2696.36,572.88 2702.85,573.14 2709.39,573.5 2715.95,573.96 2722.54,574.51 2729.14,575.17 2735.74,575.94 2742.34,576.8 2748.93,577.78 2755.49,578.85 2762.02,580.04 2768.52,581.33 2774.96,582.74 2781.35,584.26 2787.68,585.89 2793.93,587.63 2800.1,589.49 2806.18,591.47 2812.16,593.56 2818.03,595.78 2823.79,598.11 2829.42,600.56 2834.91,603.14 2840.27,605.85 2845.47,608.67 2850.51,611.63 2854.31,614.02 2857.97,616.43 2861.48,618.89 2864.87,621.39 2868.14,623.93 2871.31,626.53 2873.89,628.75 2876.96,626.58 2879.56,625.83 2882.21,624.92 2884.91,623.87 2887.69,622.74 2890.55,621.57 2893.52,620.4 2896.6,619.28 2899.81,618.25 2903.18,617.35 2906.71,616.63 2910.42,616.14 2914.32,615.91 2918.43,615.99 2922.76,616.43 2927.34,617.26 2932.17,618.54 2936.61,619.93 2940.5,621.54 2943.97,623.33 2947.12,625.29 2950.05,627.42 2952.87,629.69 2955.69,632.1 2958.62,634.63 2959.71,635.35 2960.47,635.84 2960.98,636.19 2961.35,636.5 2961.66,636.87 2962.01,637.38 2962.5,638.14 2963.22,639.23 2968.45,646.99 2972.56,654.7 2973.32,656.63 2973.71,657.38 2976.72,665.15 2978.69,672.75 2979.68,680.14 2979.72,687.28 2978.86,694.12 2977.17,700.62 2974.67,706.72 2971.44,712.39 2967.5,717.58 2962.92,722.24 2957.73,726.32 2939.71,738.78 2940.22,739.29 2947.12,736.96 2953.59,733.92 2959.56,730.2 2938.72,744.59 2939.9,749.6 2941.22,755.63 2942.46,761.68 2943.61,767.74 2944.69,773.81 2945.69,779.89 2946.63,785.96 2947.51,792.02 2948.33,798.06 2949.1,804.07 2949.82,810.06 2950.5,816.02 2951.14,821.93 2951.74,827.79 2952.31,833.6 2952.87,839.35 2953.28,844.96 2953.65,850.6 2953.99,856.25 2954.29,861.93 2954.56,867.61 2954.8,873.31 2955,879.03 2955.19,884.76 2955.34,890.5 2955.47,896.25 2955.59,902.01 2955.68,907.78 2955.75,913.56 2955.81,919.34 2955.85,925.13 2955.89,930.92 2955.91,936.72 2955.92,942.52 2955.93,948.32 2955.93,954.12 2955.93,959.92 2955.93,965.72 2955.94,971.51 2955.94,977.3 2955.95,983.09 2955.96,988.87 2955.99,994.64 2956.03,1000.4 2956.08,1006.16 2956.14,1011.9 2956.22,1017.63 2956.32,1023.35 2956.59,1034.35 2956.74,1038.78 2960.92,1036.01 2961.05,1038.36 2965.75,1038.57 2971.58,1039.33 2977.22,1040.55 2982.63,1042.19 2987.77,1044.2 2992.6,1046.56 2997.08,1049.2 3001.17,1052.11 3002.61,1053.22 3004.28,1054.78 3006.09,1056.69 3007.93,1058.86 3009.72,1061.19 3011.36,1063.59 3012.76,1065.96 3013.82,1068.2 3014.22,1072.69 3014.08,1073.02 3014.27,1072.93 3014.06,1073.07 3013.12,1075.23 3003.91,1081.26 3004.97,1081.57 3005.62,1081.71 3006.93,1080.86 3006.66,1081.94 3006.93,1082 3006.59,1082.22 3005.8,1085.47 3004.2,1089.02 3002.16,1091.59 3001.37,1092.15 3001.39,1092.15 3001.28,1092.22 2999.76,1093.3 2991.99,1098.38 2996.57,1098.12 3001.33,1096.9 3004.61,1095.06 2961.01,1123.57 2961.5,1132.94 2962.02,1143.81 2962.48,1154.66 2962.87,1165.48 2963.15,1176.26 2963.32,1187.02 2963.36,1197.74 2963.26,1208.42 2963,1219.06 2962.56,1229.66 2961.93,1240.22 2961.08,1250.73 2960.01,1261.19 2958.7,1271.6 2957.13,1281.96 2955.28,1292.26 2953.15,1302.5 2950.7,1312.69 2947.94,1322.81 2944.83,1332.87 2941.37,1342.86 2937.54,1352.78 2933.32,1362.63 2929.34,1371.05 2925.17,1379.09 2920.79,1386.75 2916.19,1394.06 2911.37,1401.02 2906.33,1407.65 2901.04,1413.96 2895.51,1419.99 2889.72,1425.72 2883.67,1431.19 2877.34,1436.41 2875.93,1437.48 2875.04,1438.2 2868.43,1443.2 2861.54,1448.02 2861.36,1448.13 2893.06,1428.17 2882.65,1435.89 2893.07,1429.33 2893.8,1430.17 2895.07,1431.4 2896.82,1432.98 2898.96,1434.9 2901.43,1437.13 2904.15,1439.64 2907.04,1442.41 2910.04,1445.43 2913.06,1448.66 2916.03,1452.08 2918.88,1455.67 2921.54,1459.41 2923.92,1463.27 2925.96,1467.22 2927.59,1471.25 2928.72,1475.33 2928.94,1478.67 2928.76,1481.78 2928.2,1484.65 2927.29,1487.26 2926.05,1489.61 2924.52,1491.67 2922.72,1493.43 2920.67,1494.88 2915.68,1497.98 2915.8,1498.43 2916.07,1498.33 2915.81,1498.48 2916.07,1499.48 2900.97,1508.87 2902.5,1508.92 2905.78,1508.52 2909.17,1507.54 2911.14,1506.81 2913.48,1505.58 2916.04,1504 1980.79,2084.93 1979.72,2084.93 1974.19,2084.93 1972.49,2084.93 1971.63,2084.93 1969.94,2084.93 1951.97,2084.93 1950.38,2084.93 1931.15,2084.93 1922.15,2084.93 1921.12,2084.93 1919.43,2084.93 1905.21,2084.93 1888.93,2084.93 1880.59,2084.93 1872.69,2084.93 1864.58,2084.93 1856.47,2084.93 1855.42,2084.93 1854.87,2084.93 1851.56,2084.93 1850.06,2084.93 1849.9,2084.93 1849.3,2084.93 1848.82,2084.93 1830.65,2084.93 1794.04,2084.93 1792.83,2084.93 1755.12,2084.93 1642.86,2084.93 1582.59,2084.93 1565.7,2084.93 1561.12,2084.93 1559.11,2084.93 1556.28,2084.93 1554.46,2084.93 1552.59,2084.93 1551.45,2084.93 1549.61,2084.93 1548.56,2084.93 1548.44,2084.93 1548.42,2084.93 1546.23,2084.93 1531.2,2084.93 1530.16,2084.93 1521.2,2084.93 1517.91,2084.93 1516.86,2084.93 1512.18,2084.93 1511.83,2084.93 1510.79,2084.93 1502.57,2084.93 1501.53,2084.93 1500.48,2084.93 1495.2,2084.93 1494.15,2084.93 1490.89,2084.93 1488,2084.93 1484.4,2084.93 1484.29,2084.93 1475.74,2084.93 1474.24,2084.93 1472.19,2084.93 1470.17,2084.93 1468.26,2084.93 1467.21,2084.93 1463.75,2084.93 1463.61,2084.93 1462.15,2084.93 1459.87,2084.93 1459.35,2084.93 1457.79,2084.93 1455.78,2084.93 1453.18,2084.93 1452,2084.93 1440.79,2084.93 1433.74,2084.93 1432.25,2084.93 1431.82,2084.93 1378.62,2084.93 1376.65,2084.93 1357.47,2084.93 1356.46,2084.93 1124.4,2084.93 1123.5,2084.93 997.92,2084.93 992.85,2084.93 991.83,2084.93 990.57,2084.93 989.48,2084.93 987.56,2084.93 982.84,2084.93 981.46,2084.93 976.76,2084.93 970.77,2084.93 955.26,2084.93 954.56,2084.93 953.59,2084.93 953.13,2084.93 951.67,2084.93 950.9,2084.93 950.33,2084.93 948.98,2084.93 948.58,2084.93 947.41,2084.93 947,2084.93 946.87,2084.93 945.42,2084.93 945.06,2084.93 944.99,2084.93 941.88,2084.93 940.82,2084.93 939.64,2084.93 938.04,2084.93 937.54,2084.93 936.72,2084.93 935.78,2084.93 935.74,2084.93 935.68,2084.93 935.63,2084.93 931.56,2084.93 930.74,2084.93 929.72,2084.93 928.6,2084.93 927.04,2084.93 925.79,2084.93 925.36,2084.93 916.34,2084.93 912.51,2084.93 908.99,2084.93 907.97,2084.93 906.98,2084.93 906,2084.93 904.63,2084.93 904.15,2084.93 904.14,2084.93 903.63,2084.93 902.57,2084.93 902.17,2084.93 899.67,2084.93 899.41,2084.93 898.23,2084.93 898.08,2084.93 896.54,2084.93 896.44,2084.93 896.3,2084.93 896.28,2084.93 895.58,2084.93 894.91,2084.93 894.48,2084.93 894.22,2084.93 893.94,2084.93 893.57,2084.93 893.53,2084.93 892.15,2084.93 890.26,2084.93 889.85,2084.93 889.31,2084.93 889.28,2084.93 889.05,2084.93 888.9,2084.93 888.33,2084.93 885.46,2084.93 883.42,2084.93 876.38,2084.93 874.29,2084.93 873.87,2084.93 873.63,2084.93 871.75,2084.93 871.43,2084.93 870.18,2084.93 867.63,2084.93 866.78,2084.93 865.87,2084.93 865.47,2084.93 865.11,2084.93 864.71,2084.93 864.07,2084.93 863.27,2084.93 862.85,2084.93 862.15,2084.93 858.41,2084.93 849.19,2084.93 846.33,2084.93 845.92,2084.93 845.62,2084.93 827.09,2084.93 822.22,2084.93 822.21,2084.93 817.08,2084.93 813.91,2084.93 810.34,2084.93 808.35,2084.93 805.74,2084.93 805.48,2084.93 805.34,2084.93 804.79,2084.93 804.4,2084.93 801.78,2084.93 800.89,2084.93 800.37,2084.93 799.98,2084.93 798.48,2084.93 797.94,2084.93 797.57,2084.93 797.57,2084.93 795.48,2084.93 794.25,2084.93 792.98,2084.93 786.36,2084.93 784.7,2084.93 784.35,2084.93 782.41,2084.93 772.78,2084.93 "/>
  <path class="fil2" d="M217.02 1826.24c7,11 12,21 16,32 3,7 5,19 21,19 5,0 11,-1 17,-5 7,-3 12,-9 14,-17l6 -21 15 -7 1 1c-2,8 -3,16 -3,21 0,18 15,24 27,24 7,0 13,-4 13,-10 0,-8 -4,-23 -8,-35 7,-7 14,-14 22,-20l1 1c4,15 6,30 6,40 0,10 -4,20 -8,27 -7,14 -20,25 -36,25 -12,0 -25,-6 -34,-17l-1 0c-9,11 -22,20 -43,20l-7 0c-1,14 -4,24 -9,33 -13,25 -50,42 -85.01,42 -49,0 -73.01,-28 -73.01,-66 0,-23 8,-45 19,-60l10 4c-7,14 -12,27 -12,40 0,35 29,52 62,52 31,0 68.01,-19 75.01,-42 -3,-25 -12,-36 -26,-59 4,-7 10,-15 17,-23l1 0 0 0 0 0 2 1 0 0 0 0 0 0 0 0 0.02 -0.01zm564.05 -133.01c10,6 20,14 30,23 -6,8 -12,15 -21,21 -10,-8 -20,-15 -30,-22 7,-8 14,-15 20,-22l0 0 0 0 1 0 0 0 0 0 0 -0zm5 96.01c-17,0 -30,11 -30,19 0,17 33,23 73.01,23 -5,-20 -22,-42 -43,-42zm-37 93.01c22,0 41,-1 55,-4 16,-4 30,-12 30,-18 0,-2 0,-3 -1,-5 -9,1 -19,1 -29,1 -29,0 -52,-7 -61,-23 -2,-5 -4,-10 -4,-16 0,-16 7,-32 19,-42 10,-9 21,-14 33,-14 20,0 37,16 48,42 6,14 11,30 11,51 0,14 -4,25 -12,34 -16,15 -45,21 -90.01,21l-20 0 0 0 -5 0c-11,0 -19,-2 -25,-7l-1 0c0,3 1,5 1,7 0,10 -3,23 -10,33 -20,30 -42,43 -60,43 -19,0 -42,-7 -63,-17l4 -7c7,3 16,5 29,5 34,0 78.01,-33 84.01,-64 -1,-3 -4,-6 -7,-10 -10,-12 -16,-22 -22,-32 5,-10 10,-18 14,-25l2 0c14,29 28,46 57,46l5 0 0 0 21 0 0 0 0 0 -3 1 0 0 0 0 0 0 0 0 -0 -0zm-146.01 31c2,-14 3,-29 3,-43l0 -21c0,-39 -5,-96.01 -9,-133.01 7,-8 17,-17 25,-23l2 1c5,47 7,101.01 7,151.01 0,13 -1,26 -2,35 -1,12 -8,21 -22,35l-3 -1 0 0 0 0 -1 -1 0 0 0 0 0 0 0 0 -0 0zm-151.02 -62.01c1,18 10,33 41,33 20,0 36,-5 55,-14 3,-1 5,-3 5,-5 0,-12 -9,-27 -24,-41 -14,-13 -34,-25 -51,-32 -6,-3 -8,-5 -8,-8 0,-5 7,-16 13,-24l2 0c20,11 43,27 60,44 15,16 25,33 25,51 0,13 -4,26 -11,38 -22,11 -46,20 -70.01,20 -29,0 -48,-14 -48,-45 0,-3 0,-9 1,-16l10 0 0 0 0 0 0 -1 0 0 0 0 0 0 0 0 0 0zm-52 -52l18 29c7,11 13,22 13,41l0 24c0,19 -12,39 -32,60 -15,14 -29,20 -42,20 -19,0 -40,-6 -65,-17l3 -7c8,2 17,4 28,4 36,0 72.01,-26 89.01,-58 2,-4 3,-7 3,-9 0,-4 -2,-8 -4,-11 -9,-17 -19,-33 -30,-47 6,-9 12,-18 18,-27l1 0 0 -2 0 0 0 0 0 0 0 0 0 -0z"/>
  <g id="_2326211105104">
   <g>
    <g>
     <path class="fil3" d="M1931.62 1190.11c-33.35,0 -70.15,-14.95 -93.16,-37.95 0,0 0,0 -1.15,-1.15 -50.6,-54.06 -43.7,-124.2 -5.75,-181.71 3.45,-4.6 5.75,-8.05 9.2,-11.5 18.4,-20.7 32.2,-32.2 59.8,-44.85 143.76,-64.4 250.72,81.66 164.46,205.86 -5.75,9.2 -12.65,14.95 -19.55,21.85 -12.65,13.8 -29.9,24.15 -48.3,33.35 -17.25,9.2 -40.25,16.1 -66.7,16.1l1.15 0zm-834.95 -116.15c0,82.8 31.06,151.81 92.01,201.26 24.15,19.55 54.05,36.8 85.11,46 103.5,31.05 200.11,6.9 284.07,-55.2l16.1 -13.8c2.3,-2.3 4.6,-4.6 6.9,-6.9l23 -23c16.1,-20.7 23,-27.61 37.96,-51.75 2.3,-3.45 3.45,-5.75 5.75,-9.2l5.75 -10.35c1.15,8.05 4.6,14.95 6.9,20.7 25.3,69 87.41,123.05 156.41,148.36 41.4,14.95 87.41,19.55 132.26,13.8 52.91,-6.9 77.06,-13.8 125.35,-36.8 17.25,-8.05 34.5,-20.7 49.45,-31.06l21.85 -18.4c14.95,-12.65 26.45,-26.46 40.25,-41.41 39.11,-43.7 66.7,-117.3 66.7,-177.11 0,-49.45 -3.45,-85.11 -23,-125.35 -2.3,-4.6 -2.3,-6.9 -4.6,-10.35 -21.85,-36.8 -13.8,-24.15 -40.26,-55.2 -3.45,-3.45 -5.75,-4.6 -9.2,-8.05 -88.56,-87.41 -221.96,-87.41 -332.37,-43.7 -4.6,2.3 -6.9,3.45 -11.5,5.75 -4.6,2.3 -8.05,3.45 -12.65,5.75 -13.8,6.9 -32.2,18.4 -43.7,27.61 -21.85,17.25 -35.65,32.2 -54.05,51.75l-16.1 20.7c-17.25,24.15 -26.46,40.25 -37.95,67.85 -2.3,4.6 -3.45,8.05 -5.75,12.65 -1.15,4.6 -2.3,9.2 -4.6,13.8 -69,0 -136.86,0 -205.86,0 -57.5,0 -49.45,-8.05 -70.15,33.35 -4.6,10.35 -31.05,63.25 -31.05,72.45 0,14.95 21.85,12.65 29.9,12.65l133.41 0c-21.85,41.4 -71.3,78.2 -120.75,78.2l-18.4 0c-58.65,0 -112.7,-55.2 -112.7,-113.85 0,-44.85 4.6,-73.6 29.91,-108.11 9.2,-12.65 17.25,-20.7 28.75,-29.9 34.5,-28.76 85.11,-49.45 132.26,-33.35 16.1,4.6 28.75,10.35 40.25,19.55 5.75,3.45 27.6,28.76 31.05,28.76 6.9,0 116.16,-29.91 132.26,-34.5 9.2,-2.3 11.5,-1.15 17.25,-8.05 -1.15,-12.65 -25.3,-50.6 -33.35,-62.1 -40.25,-54.05 -115,-96.6 -192.06,-96.6 -94.3,0 -180.56,32.2 -246.11,97.75l-14.95 14.95c-17.25,20.7 -34.5,42.55 -48.3,65.55 -12.65,23 -23,44.85 -29.9,73.6 -5.75,21.85 -10.35,47.15 -10.35,72.45l-1.17 -1.15z"/>
     <path class="fil3" d="M681.5 998.05l315.11 0c19.55,0 34.5,-1.15 54.06,-1.15 1.15,-1.15 14.95,-27.6 5.75,-27.6l-349.62 0c-8.05,0 -12.65,10.35 -20.7,19.55 -3.45,4.6 -4.6,2.3 -4.6,9.2l0 0z"/>
     <path class="fil3" d="M796.5 926.75l276.01 1.15c12.65,0 13.8,-8.05 23,-21.85 2.3,-2.3 5.75,-8.05 -1.15,-8.05l-272.56 0c-9.2,0 -13.8,10.35 -20.7,19.55 -2.3,3.45 -4.6,4.6 -4.6,9.2z"/>
     <path class="fil3" d="M870.11 1068.21l165.61 0c6.9,0 6.9,-8.05 6.9,-14.95 0,-5.75 3.45,-14.95 -3.45,-14.95l-154.11 0c-5.75,0 -12.65,16.1 -16.1,21.85 -1.15,3.45 -4.6,6.9 2.3,6.9l-1.15 1.15z"/>
    </g>
   </g>
   <g>
    <path class="fil4" d="M2628.55 797.94c-20.7,3.45 -36.8,32.2 -19.55,48.3 13.8,13.8 42.55,-9.2 65.55,-5.75 21.85,2.3 43.7,25.3 58.65,1.15 13.8,-21.85 -20.7,-42.56 -31.06,-44.85 -13.8,13.8 -41.4,17.25 -59.8,11.5 -9.2,-3.45 -9.2,-5.75 -14.95,-10.35l1.15 0z"/>
    <path class="fil4" d="M2433.04 1476.48c-2.3,4.6 -4.6,8.05 -8.05,12.65 -2.3,4.6 -6.9,10.35 -3.45,16.1 13.8,21.85 47.15,-18.4 64.41,-28.75 4.6,-2.3 9.2,-3.45 13.8,-6.9 -1.15,-1.15 0,0 -1.15,-1.15l-1.15 -1.15c-1.15,-1.15 -2.3,-1.15 -3.45,-1.15l-19.55 -11.5c-4.6,-2.3 -8.05,-5.75 -11.5,-8.05 -3.45,-3.45 -8.05,-5.75 -11.5,-9.2 -6.9,3.45 -28.75,20.7 -32.2,24.15 -11.5,13.8 -16.1,31.05 -3.45,37.95l13.8 -25.3 4.6 2.3 -1.15 0z"/>
    <path class="fil4" d="M2852.81 1458.07c2.3,2.3 1.15,1.15 3.45,3.45 1.15,1.15 2.3,2.3 3.45,3.45 3.45,2.3 4.6,4.6 6.9,6.9 3.45,3.45 3.45,3.45 6.9,6.9 2.3,3.45 4.6,5.75 5.75,8.05 21.85,20.7 18.4,18.4 36.8,11.5 -1.15,-5.75 -5.75,-18.4 -10.35,-23 -2.3,-3.45 -2.3,-2.3 0,-6.9 9.2,2.3 10.35,18.4 14.95,25.3 4.6,-2.3 9.2,-9.2 8.05,-19.55 -3.45,-21.85 -33.35,-41.41 -35.65,-46l-31.05 23c-3.45,2.3 -6.9,4.6 -10.35,6.9l1.15 0z"/>
    <path class="fil4" d="M2331.83 1078.56c10.35,1.15 6.9,-6.9 13.8,-1.15 -2.3,4.6 -3.45,3.45 -8.05,6.9 0,0 -1.15,0 -1.15,0 0,0 0,0 -1.15,0 2.3,10.35 6.9,13.8 18.4,10.35 9.2,-2.3 13.8,-5.75 20.7,-10.35 9.2,-5.75 12.65,-2.3 13.8,-16.1 1.15,-9.2 1.15,-18.4 0,-28.75 -13.8,-2.3 -29.91,3.45 -40.26,8.05 -5.75,3.45 -10.35,6.9 -13.8,11.5 -4.6,5.75 -8.05,10.35 -3.45,17.25l1.15 2.3z"/>
    <path class="fil4" d="M2963.22 1078.56c12.65,6.9 41.41,28.75 44.85,1.15 -5.75,-1.15 -6.9,-2.3 -10.35,-5.75l3.45 -3.45c0,0 17.25,10.35 13.8,-4.6 -1.15,-5.75 -8.05,-13.8 -12.65,-16.1 -9.2,-8.05 -25.3,-12.65 -41.4,-13.8l2.3 41.4 0 1.15z"/>
    <path class="fil5" d="M2720.56 682.94c16.1,-3.45 27.6,9.2 29.9,21.85 2.3,16.1 -6.9,29.9 -19.55,33.35 -34.5,8.05 -44.85,-48.3 -10.35,-55.2l-0 0zm134.56 32.2c3.45,-25.3 -6.9,-48.3 -18.4,-63.25 -2.3,-2.3 -3.45,-3.45 -5.75,-5.75 -3.45,-3.45 -2.3,-2.3 -5.75,-4.6 -50.6,-37.95 -129.96,-9.2 -141.46,51.75 -5.75,26.45 4.6,48.3 17.25,63.25 6.9,6.9 12.65,12.65 24.15,18.4 49.45,24.15 123.06,-1.15 129.96,-58.65l0 -1.15z"/>
    <path class="fil5" d="M2479.04 722.04c-4.6,-39.1 48.3,-43.7 52.9,-6.9 3.45,37.95 -48.3,43.7 -52.9,6.9zm-16.1 0c3.45,44.85 43.7,75.9 94.3,70.15 43.7,-5.75 81.66,-37.95 75.91,-87.41 -10.35,-105.81 -180.56,-87.41 -171.36,16.1l1.15 1.15z"/>
    <path class="fil5" d="M2669.96 845.09c0,12.65 -3.45,32.2 -1.15,43.7 1.15,5.75 5.75,10.35 10.35,12.65 5.75,3.45 10.35,1.15 16.1,-2.3 10.35,-5.75 5.75,-26.45 4.6,-39.1 0,-9.2 -2.3,-8.05 -11.5,-11.5 -6.9,-2.3 -11.5,-4.6 -18.4,-4.6l0 1.15z"/>
    <path class="fil5" d="M2661.91 846.24c-6.9,1.15 -11.5,3.45 -18.4,5.75 -3.45,1.15 -14.95,3.45 -17.25,5.75 -4.6,8.05 1.15,33.35 5.75,39.1 11.5,16.1 26.45,-3.45 27.6,-5.75 0,0 2.3,-42.56 1.15,-44.85l1.15 0z"/>
    <path class="fil6" d="M2433.04 1476.48l-4.6 -2.3 -13.8 25.3c-12.65,-6.9 -8.05,-25.3 3.45,-37.95 3.45,-3.45 25.3,-21.85 32.2,-24.15 4.6,2.3 8.05,5.75 11.5,9.2 3.45,2.3 8.05,5.75 11.5,8.05l19.55 11.5c1.15,1.15 2.3,1.15 3.45,1.15l1.15 1.15c1.15,1.15 1.15,1.15 1.15,1.15 -5.75,2.3 -9.2,3.45 -13.8,6.9 -18.4,10.35 -51.76,50.6 -64.41,28.75 -3.45,-5.75 1.15,-11.5 3.45,-16.1 3.45,-4.6 4.6,-8.05 8.05,-12.65l1.15 0zm418.63 -17.25c3.45,-2.3 6.9,-4.6 10.35,-6.9l31.06 -23c2.3,3.45 31.05,24.15 35.65,46 1.15,9.2 -2.3,16.1 -8.05,19.55 -5.75,-6.9 -6.9,-23 -14.95,-25.3 -2.3,3.45 -2.3,3.45 0,6.9 3.45,5.75 9.2,17.25 10.35,23 -18.4,6.9 -14.95,9.2 -36.8,-11.5 -2.3,-2.3 -3.45,-4.6 -5.75,-8.05 -2.3,-3.45 -3.45,-3.45 -6.9,-6.9 -2.3,-2.3 -3.45,-4.6 -6.9,-6.9 -1.15,-1.15 -2.3,-2.3 -3.45,-3.45 -2.3,-2.3 -2.3,-1.15 -3.45,-3.45l-1.15 -0zm-519.83 -380.67c-4.6,-8.05 -1.15,-11.5 3.45,-17.25 3.45,-4.6 8.05,-8.05 13.8,-11.5 10.35,-5.75 26.45,-11.5 40.25,-8.05 1.15,9.2 0,19.55 0,28.75 -1.15,13.8 -4.6,10.35 -13.8,16.1 -6.9,4.6 -11.5,8.05 -20.7,10.35 -11.5,2.3 -16.1,0 -18.4,-10.35 0,0 1.15,0 1.15,0 0,0 0,0 1.15,0 4.6,-2.3 5.75,-2.3 8.05,-6.9 -8.05,-5.75 -4.6,2.3 -13.8,1.15l-1.15 -2.3zm675.09 2.3c-4.6,27.6 -32.2,5.75 -44.85,-1.15l-2.3 -41.4c16.1,0 31.06,5.75 41.4,13.8 3.45,2.3 10.35,10.35 12.65,16.1 3.45,14.95 -13.8,4.6 -13.8,4.6l-3.45 3.45c3.45,3.45 4.6,4.6 10.35,5.75l0 -1.15zm-356.52 -504.88c64.4,-4.6 144.91,5.75 197.81,37.95 20.7,12.65 34.5,26.46 49.45,44.85 37.95,49.45 47.15,120.76 52.9,182.86 4.6,59.8 2.3,123.06 3.45,184.01 2.3,116.15 25.3,234.61 -23,339.27 -20.7,46 -49.45,73.6 -92.01,96.61 -42.55,23 -97.76,33.35 -152.96,35.65 -120.76,5.75 -226.56,-32.2 -270.26,-108.11 -55.2,-94.3 -21.85,-224.26 -21.85,-335.82 0,-144.91 -59.8,-354.22 103.51,-439.32 42.55,-23 97.76,-33.35 151.81,-36.8l1.15 -1.16zm-259.91 169.06c-35.65,-10.35 -55.2,-49.45 -32.2,-83.96 20.7,-32.2 62.1,-41.4 92.01,-20.7 -5.75,4.6 -23,25.3 -27.6,32.2 -17.25,-5.75 -28.76,-10.35 -36.8,6.9 -9.2,17.25 5.75,27.6 14.95,33.35 -2.3,10.35 -8.05,20.7 -10.35,32.2l0 -0zm487.62 -116.15c13.8,-4.6 28.76,-17.25 55.2,-8.05 11.5,3.45 18.4,9.2 26.45,16.1 2.3,2.3 2.3,1.15 4.6,4.6 31.06,42.55 11.5,83.95 -25.3,93.15 -3.45,-14.95 -10.35,-28.75 -13.8,-42.55 4.6,-6.9 13.8,-12.65 4.6,-28.76 -5.75,-10.35 -13.8,-10.35 -28.76,-8.05 -3.45,-8.05 -18.4,-20.7 -21.85,-25.3l-1.16 -1.15zm62.1 110.4c37.95,-10.35 58.65,-54.05 34.5,-93.15 -23,-36.8 -69,-44.85 -100.06,-20.7 -3.45,-2.3 -5.75,-4.6 -9.2,-6.9 -92,-67.85 -274.86,-58.65 -369.17,-10.35 -23,11.5 -25.3,17.25 -40.26,26.45 -9.2,-4.6 -14.95,-8.05 -27.6,-10.35 -55.2,-11.5 -101.2,48.3 -79.35,92.01 8.05,18.4 20.7,24.15 40.25,33.35 -3.45,23 -8.05,41.4 -10.35,67.85 -3.45,50.6 2.3,96.61 5.75,146.06 2.3,21.85 5.75,51.75 4.6,72.45 -16.1,0 -31.06,3.45 -43.7,9.2 -8.05,4.6 -25.3,17.25 -20.7,31.06 1.15,4.6 4.6,4.6 5.75,8.05 1.15,3.45 1.15,5.75 3.45,9.2 12.65,20.7 43.7,-6.9 55.2,-9.2 -4.6,112.7 -35.65,261.06 57.5,347.32 -2.3,2.3 -5.75,4.6 -9.2,6.9 -8.05,5.75 -18.4,13.8 -24.15,20.7 -9.2,11.5 -17.25,28.75 -5.75,41.4 2.3,2.3 2.3,2.3 4.6,3.45 9.2,4.6 3.45,4.6 11.5,10.35 13.8,8.05 31.05,-5.75 40.25,-13.8 9.2,-8.05 24.15,-20.7 34.5,-24.15 11.5,-3.45 11.5,-2.3 21.85,1.15 13.8,5.75 28.76,10.35 44.85,13.8 33.35,8.05 70.15,10.35 106.96,10.35 36.8,0 71.3,-4.6 104.65,-13.8 14.95,-3.45 29.91,-9.2 43.7,-14.95 23,-9.2 21.85,-17.25 36.8,-1.15 8.05,8.05 21.85,25.3 28.75,31.05 5.75,4.6 13.8,8.05 23,4.6 4.6,-1.15 14.95,-9.2 17.25,-11.5 17.25,-17.25 -2.3,-44.85 -16.1,-57.5 -4.6,-4.6 -13.8,-9.2 -16.1,-14.95 6.9,-4.6 18.4,-19.55 24.15,-27.6 48.3,-72.45 49.45,-178.26 44.85,-263.36 -1.15,-14.95 -3.45,-33.35 -2.3,-47.15 9.2,4.6 20.7,14.95 35.65,12.65 14.95,-2.3 10.35,-12.65 17.25,-19.55 2.3,-2.3 3.45,-3.45 4.6,-8.05 1.15,-12.65 -12.65,-24.15 -20.7,-28.76 -10.35,-6.9 -24.15,-9.2 -37.95,-10.35 -3.45,-18.4 -1.15,-56.35 -1.15,-77.06 0,-49.45 0,-101.2 -6.9,-149.51 -1.15,-11.5 -3.45,-23 -5.75,-33.35 -2.3,-11.5 -5.75,-21.85 -6.9,-33.35l1.15 1.14z"/>
    <path class="fil6" d="M2669.96 845.09c8.05,0 12.65,1.15 18.4,4.6 9.2,3.45 10.35,1.15 11.5,11.5 1.15,12.65 4.6,33.35 -4.6,39.1 -5.75,3.45 -10.35,4.6 -16.1,2.3 -4.6,-2.3 -9.2,-6.9 -10.35,-12.65 -2.3,-12.65 1.15,-31.06 1.15,-43.7l0 -1.15zm-8.05 0c0,2.3 -1.15,44.85 -1.15,44.85 -1.15,2.3 -16.1,21.85 -27.6,5.75 -4.6,-5.75 -11.5,-31.05 -5.75,-39.1 1.15,-2.3 13.8,-4.6 17.25,-5.75 5.75,-2.3 11.5,-4.6 18.4,-5.75l-1.15 0zm-33.35 -48.3c5.75,4.6 5.75,8.05 14.95,10.35 18.4,5.75 46,2.3 59.8,-11.5 10.35,2.3 43.7,23 31.06,44.85 -14.95,24.15 -36.8,1.15 -58.65,-1.15 -23,-3.45 -51.75,19.55 -65.55,5.75 -17.25,-16.1 -1.15,-46 19.55,-48.3l-1.15 0zm-1.15 -4.6c-14.95,2.3 -27.6,14.95 -29.9,29.9 -3.45,18.4 6.9,32.2 23,33.35 -1.15,16.1 -1.15,34.5 8.05,44.85 4.6,4.6 9.2,9.2 19.55,5.75 6.9,-2.3 10.35,-6.9 14.95,-11.5 4.6,5.75 6.9,9.2 14.95,12.65 6.9,2.3 14.95,-1.15 19.55,-4.6 10.35,-8.05 5.75,-32.2 5.75,-47.15 13.8,3.45 19.55,2.3 28.75,-5.75 18.4,-17.25 8.05,-32.2 -5.75,-44.85 -5.75,-5.75 -13.8,-8.05 -21.85,-13.8 -1.15,-12.65 -3.45,-17.25 -11.5,-21.85 -18.4,-11.5 -63.25,-10.35 -66.7,24.15l1.15 -1.15z"/>
    <path class="fil6" d="M2855.12 715.14c-6.9,57.5 -79.36,82.8 -129.96,58.65 -11.5,-5.75 -17.25,-11.5 -24.15,-18.4 -13.8,-13.8 -23,-36.8 -17.25,-63.25 11.5,-59.8 90.85,-88.56 141.46,-51.75 3.45,2.3 2.3,2.3 5.75,4.6 2.3,2.3 3.45,3.45 5.75,5.75 11.5,14.95 20.7,37.96 18.4,63.26l0 1.15zm4.6 3.45c4.6,-27.6 -8.05,-64.4 -29.91,-80.51 -14.95,-10.35 -24.15,-16.1 -47.15,-18.4 -51.76,-4.6 -96.61,28.75 -104.66,71.3 -16.1,80.5 80.51,124.2 146.06,80.5 16.1,-10.35 31.06,-26.45 35.65,-52.9z"/>
    <path class="fil6" d="M2462.94 722.04c-9.2,-104.65 161.01,-121.91 171.36,-16.1 4.6,49.45 -32.2,81.66 -75.9,87.41 -50.61,5.75 -90.86,-25.3 -94.31,-70.15l-1.15 -1.15zm75.91 -92c-48.3,5.75 -86.26,41.4 -80.51,95.45 5.75,46 48.3,79.36 101.21,72.45 117.3,-14.95 101.2,-180.56 -20.7,-166.76l0 -1.15z"/>
    <path class="fil6" d="M2479.04 722.04c4.6,35.65 56.35,31.06 52.9,-6.9 -3.45,-36.8 -57.5,-31.06 -52.9,6.9z"/>
    <path class="fil6" d="M2720.56 682.94c-34.5,8.05 -23,64.4 10.35,55.2 12.65,-3.45 21.85,-17.25 19.55,-33.35 -2.3,-13.8 -13.8,-25.3 -29.91,-21.85l0.01 0z"/>
    <path class="fil7" d="M2628.55 793.34c3.45,-33.35 47.15,-35.65 66.7,-24.15 9.2,5.75 11.5,10.35 11.5,21.85 8.05,5.75 14.95,8.05 21.85,13.8 13.8,13.8 23,27.6 5.75,44.85 -8.05,8.05 -14.95,8.05 -28.76,5.75 0,14.95 5.75,39.1 -5.75,47.15 -4.6,3.45 -13.8,6.9 -19.55,4.6 -8.05,-2.3 -10.35,-6.9 -14.95,-12.65 -4.6,4.6 -8.05,9.2 -14.95,11.5 -9.2,3.45 -14.95,-1.15 -19.55,-5.75 -9.2,-10.35 -10.35,-28.75 -8.05,-44.85 -16.1,-1.15 -26.46,-16.1 -23,-33.35 3.45,-13.8 14.95,-27.6 29.9,-29.9l-1.15 1.15zm-89.7 -163.31c121.91,-13.8 139.16,151.81 20.7,166.76 -54.06,6.9 -96.61,-25.3 -101.21,-72.45 -5.75,-54.05 32.2,-89.7 80.51,-95.45l0 1.15zm322.02 88.56c-4.6,26.45 -19.55,42.55 -35.65,52.9 -65.55,43.7 -162.16,0 -146.06,-80.5 8.05,-42.56 52.91,-75.9 104.66,-71.3 21.85,2.3 32.2,8.05 47.15,18.4 21.85,16.1 34.5,52.91 29.91,80.51zm-209.31 -143.76c-54.05,4.6 -109.26,14.95 -151.81,36.8 -163.31,85.11 -103.51,295.57 -103.51,439.33 0,111.56 -33.35,240.36 21.85,335.82 43.7,75.9 149.51,113.85 270.26,108.11 55.2,-2.3 109.26,-13.8 152.96,-35.65 42.56,-21.85 71.3,-50.6 92.01,-96.61 47.15,-104.66 25.3,-221.96 23,-339.27 -1.15,-60.95 1.15,-124.2 -3.45,-184.01 -5.75,-60.95 -14.95,-133.41 -52.9,-182.86 -14.95,-18.4 -28.75,-32.2 -49.45,-44.85 -52.9,-32.2 -134.56,-42.55 -197.81,-37.95l-1.15 1.15z"/>
    <path class="fil7" d="M2878.11 627.74c3.45,4.6 18.4,18.4 21.85,25.3 13.8,-2.3 21.85,-2.3 28.75,8.05 9.2,16.1 0,23 -4.6,28.75 3.45,12.65 10.35,27.61 13.8,42.56 36.8,-10.35 56.35,-51.75 25.3,-93.16 -2.3,-3.45 -1.15,-2.3 -4.6,-4.6 -8.05,-6.9 -13.8,-12.65 -26.45,-16.1 -26.46,-8.05 -41.41,4.6 -55.2,8.05l1.15 1.15z"/>
    <path class="fil7" d="M2390.49 743.89c2.3,-11.5 8.05,-21.85 10.35,-32.2 -10.35,-5.75 -24.15,-16.1 -14.95,-33.35 9.2,-17.25 20.7,-12.65 36.8,-6.9 4.6,-6.9 21.85,-27.6 27.6,-32.2 -29.9,-19.55 -71.3,-11.5 -92,20.7 -23,35.65 -3.45,73.6 32.2,83.96l-0 0z"/>
   </g>
  </g>
 </g>
</svg>
