<?xml version="1.0" encoding="UTF-8"?>
<!DOCTYPE svg PUBLIC "-//W3C//DTD SVG 1.0//EN" "http://www.w3.org/TR/2001/REC-SVG-20010904/DTD/svg10.dtd">
<!-- Creator: CorelDRAW 2017 -->
<svg xmlns="http://www.w3.org/2000/svg" xml:space="preserve" width="356px" height="200px" version="1.0" shape-rendering="geometricPrecision" text-rendering="geometricPrecision" image-rendering="optimizeQuality" fill-rule="evenodd" clip-rule="evenodd"
viewBox="0 0 35600 20025"
 xmlns:xlink="http://www.w3.org/1999/xlink">
 <g id="Layer_x0020_1">
  <metadata id="CorelCorpID_0Corel-Layer"/>
  <g id="_1475060368112">
   <path fill="#E6E7E8" d="M0 0l35600 0 0 20025 -35600 0 0 -20025z"/>
   <path fill="#373435" fill-opacity="0.078431" d="M23118 20025l-23118 0 0 -5988 11467 -9901 -2 5 -2 4 -1 3 -1 4 0 3 0 3 1 3 0 3 5 27 6 28 5 27 5 27 6 28 5 27 4 28 4 27 9 74 6 73 4 74 0 73 -2 73 -6 74 -8 73 -12 73 -23 105 -29 102 -35 99 -40 97 -46 94 -51 92 -57 90 -60 88 -61 80 -63 79 -66 75 -68 74 -70 72 -73 69 -74 68 -1606 1387 -49 59 -46 61 -45 62 -43 64 -52 92 -41 93 -32 95 -21 96 -10 99 0 100 10 94 1314 -1135 69 -60 69 -58 70 -58 71 -57 110 -90 108 -91 -1809 1562 19 98 18 65 21 64 24 62 26 62 29 60 30 60 33 58 34 57 1894 -1636 -75 69 -59 58 -57 60 -53 61 -51 64 -48 67 -44 68 -40 72 -37 74 -33 81 -28 82 -21 83 -15 83 -8 78 1207 -1042 71 -60 71 -58 73 -56 74 -56 124 -90 126 -88 128 -86 129 -84 130 -82 131 -81 132 -80 132 -78 7 -4 6 -4 7 -4 6 -4 7 -4 6 -4 7 -4 6 -4 -2570 2219 3 20 11 63 15 62 17 61 20 60 22 59 25 58 27 58 29 57 36 65 38 64 41 62 42 61 44 60 45 59 46 58 48 57 17 22 18 21 16 23 17 23 15 23 16 23 14 24 14 24 36 73 27 74 18 75 9 76 1 76 -8 77 -17 77 -24 78 -23 54 -25 53 -28 50 -30 50 -34 47 -35 46 -38 44 -40 44 -3 3 -4 4 -4 4 -3 4 -4 5 -4 4 -3 4 -4 4 4 0 3 1 3 0 2 0 3 -1 2 -1 2 0 2 -1 81 -50 80 -52 78 -54 76 -57 73 -60 -1074 927 71 -4 93 -5 93 -6 92 -6 93 -7 92 -6 93 -8 92 -8 84 -8 84 -10 83 -9 84 -11 84 -10 84 -12 83 -11 84 -11 99 -15 99 -16 99 -17 99 -19 98 -20 98 -22 98 -23 97 -24 7 -1 6 -2 6 -2 6 -2 6 -3 6 -2 6 -3 5 -4 57 -36 45 -27 698 -602 -16 15 -15 15 -2 3 -3 3 -2 4 -2 3 -3 5 -3 4 -3 5 -3 6 9 -3 8 -2 8 -2 7 -1 7 -2 6 -2 6 -1 7 -2 30 -7 31 -8 30 -8 31 -7 31 -8 30 -6 31 -6 31 -4 73 -4 72 2 70 10 68 16 66 23 64 29 62 37 60 42 77 68 64 73 52 77 38 83 25 88 7 47 2908 -2511 0 15 0 15 0 14 0 14 0 13 0 13 0 13 0 13 0 146 0 146 0 146 0 145 0 146 0 146 0 146 0 146 0 146 0 146 0 146 0 146 0 145 0 146 0 146 0 146 0 146 0 146 0 146 0 145 0 146 0 88 1749 -1511 16 68 16 66 16 66 16 66 15 66 16 65 16 66 15 66 9 -3 8 -2 8 -2 8 -2 7 -2 7 -2 7 -2 7 -2 103 -35 103 -32 103 -30 105 -27 105 -24 105 -21 107 -18 107 -15 80 -8 80 -7 80 -5 80 -1 80 1 80 5 80 9 80 13 93 23 91 32 87 43 78 57 70 74 56 91 42 111 25 134 4 55 1375 -1187 40 130 40 131 40 130 40 130 40 131 40 130 40 130 40 130 40 130 40 131 40 130 40 130 40 130 40 131 11 36 2164 -1869 -14 107 -16 106 -16 107 -17 106 -18 106 -18 105 -19 106 -20 105 -21 105 -21 105 -22 105 -23 104 -24 104 -24 105 -25 104 -26 104 -27 103 -25 97 1872 -1617 16 66 16 66 15 65 16 65 15 65 16 65 16 66 15 65 24 -8 23 -7 23 -8 22 -7 21 -7 22 -7 21 -7 21 -7 134 -41 134 -36 135 -32 136 -27 138 -21 138 -15 139 -9 140 -2 53 1 52 4 53 4 51 7 52 9 51 12 51 14 50 17 74 31 66 38 59 45 51 51 45 57 36 64 30 70 22 77 14 76 8 76 5 77 1 77 -1 78 -1 79 0 80 2 81 -645 557 27 -2 98 -6 98 -3 97 -1 98 0 98 1 98 1 3 0 2 0 3 1 3 1 4 1 4 2 5 1 6 2 0 17 0 16 0 17 0 16 0 16 0 16 0 15 0 16 0 99 0 98 -1 99 0 99 0 99 1 99 0 99 1 98 -1 17 -2 15 -3 15 -5 13 -7 12 -9 12 -10 11 -13 11 -1171 1011 44 2 138 -7 137 -17 137 -29 136 -39 94 -34 91 -39 88 -44 85 -48 84 -53 81 -56 79 -59 78 -62 6 -5 7 -6 8 -5 7 -6 9 -6 8 -7 9 -6 10 -8 9 58 9 57 8 56 9 55 8 55 9 54 8 54 8 53 57 5 85 3 103 1 110 0 108 -2 96 -3 73 -4 40 -6 -6548 5655z"/>
   <g>
    <g>
     <path fill="#EC2025" fill-rule="nonzero" d="M28811 11877c-9,-217 18,-422 -28,-624 -49,-214 -177,-358 -383,-433 -133,-49 -272,-66 -413,-68 -376,-5 -738,69 -1094,183 -56,18 -112,37 -177,58 -42,-176 -83,-346 -125,-523 22,-11 40,-22 59,-30 567,-239 1156,-352 1772,-309 195,14 385,54 566,130 362,155 576,428 648,811 19,104 29,211 29,316 2,973 1,1945 1,2918 0,22 0,44 0,64 -56,17 -565,21 -672,6 -22,-142 -44,-286 -68,-442 -27,21 -46,34 -64,49 -206,168 -425,312 -680,395 -364,119 -731,123 -1096,9 -411,-129 -634,-422 -697,-842 -35,-232 -23,-461 53,-685 85,-255 246,-452 465,-603 221,-152 468,-238 727,-295 298,-65 599,-83 903,-85 88,0 176,0 274,0zm-1 555l0 0c-16,-5 -23,-8 -30,-8 -261,-2 -522,-9 -782,28 -158,23 -314,61 -455,141 -152,86 -253,210 -292,381 -32,139 -32,278 2,417 57,233 205,375 439,427 147,33 293,22 438,-17 238,-65 441,-192 631,-344 37,-29 50,-59 50,-106 -2,-263 -1,-527 -1,-790 0,-42 0,-83 0,-129z"/>
     <path fill="#EC2025" fill-rule="nonzero" d="M21850 14380c-227,0 -446,0 -671,0 -23,-146 -45,-291 -69,-448 -27,22 -46,36 -64,52 -217,177 -450,327 -721,408 -352,104 -706,105 -1055,-5 -363,-115 -590,-362 -676,-735 -62,-275 -54,-548 41,-815 105,-294 309,-504 578,-655 237,-133 494,-205 760,-250 288,-48 578,-57 869,-55 47,0 93,0 136,0 7,-9 12,-13 12,-16 -2,-173 8,-346 -9,-517 -40,-389 -292,-516 -542,-565 -213,-42 -427,-32 -640,-7 -287,34 -565,107 -838,202 -18,6 -37,10 -61,17 -42,-177 -83,-348 -126,-529 123,-46 241,-95 362,-136 474,-160 961,-231 1461,-195 207,14 409,56 600,141 348,157 553,426 622,798 19,102 29,206 30,309 2,977 1,1955 1,2933 0,20 0,39 0,68zm-861 -1957l0 0c-97,0 -186,0 -274,0 -202,-1 -403,6 -603,41 -129,23 -254,58 -370,121 -166,89 -272,223 -310,409 -28,134 -27,269 7,402 62,243 221,382 465,427 138,26 274,14 409,-22 238,-63 441,-190 631,-342 36,-29 51,-59 50,-106 -2,-285 -1,-571 -1,-856 0,-22 -2,-43 -4,-74z"/>
     <path fill="#EC2025" fill-rule="nonzero" d="M25095 10203c308,0 605,0 908,0 -264,1448 -670,2844 -1291,4177 -358,0 -712,0 -1072,0 -426,-1389 -853,-2779 -1280,-4168 54,-17 820,-23 928,-7 7,20 16,43 23,66 253,815 509,1630 757,2447 61,199 98,406 146,609 15,62 29,124 51,187 202,-533 367,-1076 506,-1627 139,-554 248,-1114 324,-1684z"/>
     <path fill="#EC2025" fill-rule="nonzero" d="M17025 8712c307,0 602,0 907,0 1,23 3,47 3,70 0,167 0,335 0,502 0,1423 -1,2847 -1,4270 0,253 -14,506 -42,759 -57,532 -316,943 -743,1256 -187,136 -427,264 -605,320 -136,-160 -275,-323 -418,-491 21,-14 39,-26 57,-36 174,-99 330,-222 469,-367 196,-206 303,-450 337,-731 31,-257 35,-515 35,-774 1,-1556 1,-3112 1,-4668 0,-34 0,-68 0,-110z"/>
    </g>
    <path fill="#EC2025" fill-rule="nonzero" d="M10283 10564c-15,-11 -21,-14 -26,-19 -302,-274 -600,-552 -872,-856 -149,-168 -289,-342 -406,-533 -94,-153 -172,-314 -216,-489 -69,-278 -27,-538 125,-780 110,-174 246,-326 393,-470 197,-193 413,-365 629,-537 231,-185 464,-369 691,-560 205,-173 392,-365 551,-583 168,-231 289,-484 341,-767 36,-195 37,-391 9,-587 -10,-73 -26,-146 -40,-219 -1,-8 -2,-15 5,-28 12,15 25,30 37,45 127,171 207,363 241,573 55,326 -8,636 -138,936 -114,262 -273,496 -456,715 -243,291 -520,547 -816,783 -190,151 -374,308 -537,489 -136,150 -255,311 -342,495 -85,180 -128,368 -118,567 9,159 50,309 111,455 73,173 170,333 275,488 116,170 236,338 349,510 68,103 126,213 188,320 7,13 12,28 22,52z"/>
    <path fill="#EC2025" fill-rule="nonzero" d="M12883 6546c-17,11 -34,21 -52,32 -353,208 -703,424 -1032,669 -198,147 -388,303 -552,488 -76,86 -143,177 -197,279 -103,199 -114,402 -32,611 56,141 137,268 223,391 67,97 136,192 204,287 70,99 127,205 157,323 42,171 25,337 -43,498 -56,135 -138,253 -236,360 -171,190 -373,343 -593,472 -5,2 -11,4 -21,2 10,-11 19,-22 29,-32 109,-114 198,-240 253,-388 77,-208 65,-412 -42,-606 -36,-65 -80,-126 -127,-183 -128,-152 -247,-310 -340,-486 -80,-151 -139,-309 -166,-478 -38,-234 -5,-458 92,-673 92,-202 229,-372 389,-524 198,-187 421,-340 658,-474 441,-249 909,-431 1395,-571 10,-3 21,-4 32,-6 0,3 1,6 1,9z"/>
   </g>
   <path fill="#0D8AC7" fill-rule="nonzero" d="M12755 12792c16,-40 42,-58 72,-74 242,-127 474,-269 688,-440 164,-131 314,-276 433,-452 74,-109 132,-227 159,-358 56,-279 -31,-507 -253,-681 -157,-122 -337,-176 -535,-155 -83,9 -164,36 -245,54 -17,4 -33,8 -58,15 10,-16 14,-25 21,-33 39,-42 84,-78 139,-98 294,-107 591,-124 886,-6 203,81 363,214 463,410 113,221 108,446 14,671 -61,149 -156,276 -268,389 -166,167 -359,296 -567,405 -293,154 -603,262 -922,349 -7,2 -15,2 -27,4zm1854 2007c-1,42 -15,82 -32,121 -30,73 -76,135 -131,191 -106,107 -234,184 -368,249 -220,106 -451,178 -686,236 -296,74 -595,125 -897,165 -368,49 -738,81 -1108,101 -535,29 -1071,34 -1607,18 -244,-7 -488,-20 -731,-37 -345,-23 -689,-60 -1028,-131 -138,-28 -274,-62 -406,-115 -33,-13 -65,-30 -97,-46 1,-2 2,-5 3,-9 44,7 88,13 132,19 391,58 784,92 1178,115 513,31 1027,37 1540,24 319,-9 637,-27 955,-48 341,-23 682,-62 1020,-111 436,-64 869,-145 1293,-267 218,-62 432,-136 635,-238 89,-46 175,-96 252,-162 28,-24 55,-50 83,-75zm-712 -611c65,33 127,69 170,131 35,52 40,108 7,161 -25,40 -57,77 -92,108 -81,72 -178,120 -276,165 -216,99 -441,167 -670,226 -306,78 -616,136 -928,183 -284,43 -568,78 -854,100 -282,21 -563,37 -845,51 -368,17 -736,17 -1104,8 -269,-7 -539,-20 -808,-35 -223,-13 -446,-30 -668,-52 -260,-26 -520,-57 -779,-91 -197,-25 -392,-56 -588,-88 -117,-18 -233,-46 -342,-96 -43,-19 -85,-44 -121,-73 -75,-61 -85,-138 -34,-220 34,-55 81,-98 132,-136 125,-96 266,-165 412,-225 257,-106 523,-181 800,-217 132,-17 266,-25 397,7 34,8 65,22 106,36 -13,7 -16,10 -19,10 -230,3 -449,54 -665,128 -103,36 -206,74 -300,131 -40,24 -80,52 -114,85 -54,53 -49,107 14,151 26,19 57,34 87,47 175,73 358,117 543,153 292,57 586,91 881,117 711,61 1423,68 2135,51 345,-8 690,-26 1035,-46 364,-22 727,-56 1089,-104 297,-39 593,-85 883,-160 114,-29 226,-63 333,-114 63,-30 123,-64 172,-116 32,-34 56,-72 60,-121 3,-45 -11,-84 -36,-121 -6,-9 -12,-17 -19,-27 2,-2 4,-4 6,-7zm-5187 -958c-22,19 -38,32 -53,46 -87,83 -78,158 30,208 57,26 119,46 180,57 116,21 232,37 349,48 195,17 391,31 587,43 197,12 393,5 590,-9 357,-24 710,-85 1062,-150 22,-4 39,-1 58,11 186,109 380,203 580,284 10,4 19,9 36,17 -22,10 -39,17 -55,24 -352,144 -716,243 -1091,306 -392,66 -787,89 -1184,73 -360,-15 -716,-62 -1062,-169 -124,-39 -246,-85 -358,-152 -39,-24 -76,-51 -111,-81 -26,-21 -48,-46 -67,-73 -53,-76 -49,-156 8,-229 35,-44 80,-77 127,-106 94,-57 251,-120 374,-148zm-284 -1284c-13,14 -25,24 -35,36 -26,32 -55,62 -76,97 -54,89 -35,165 56,217 35,20 74,38 113,47 88,19 177,36 267,46 168,17 338,29 507,42 240,19 481,22 722,19 342,-4 681,-32 1020,-76 273,-35 545,-80 816,-132 28,-6 50,-1 72,19 118,106 252,187 398,247 15,6 29,13 50,22 -38,12 -70,22 -101,31 -370,101 -746,178 -1126,231 -497,70 -996,103 -1498,91 -345,-8 -687,-35 -1026,-102 -168,-33 -334,-75 -492,-144 -67,-29 -131,-62 -187,-110 -117,-99 -123,-207 -13,-312 41,-39 88,-72 137,-102 118,-73 247,-121 377,-167 4,-1 9,0 19,0zm485 -1342c-19,6 -38,11 -58,16 -267,70 -532,144 -788,249 -78,32 -155,71 -230,113 -33,18 -64,46 -90,75 -35,40 -30,80 13,111 32,22 69,40 106,53 98,36 202,52 306,66 370,49 743,54 1115,50 303,-3 606,-10 908,-24 303,-15 605,-36 907,-63 291,-26 583,-61 873,-99 263,-34 524,-77 789,-117 -10,7 -17,12 -26,16 -161,76 -319,155 -468,253 -14,10 -31,15 -48,19 -259,66 -522,119 -787,156 -223,30 -446,61 -670,82 -246,23 -493,37 -740,52 -334,20 -669,21 -1004,17 -329,-3 -659,-18 -987,-49 -261,-25 -521,-55 -774,-122 -84,-22 -166,-53 -246,-86 -36,-14 -69,-39 -98,-66 -45,-42 -46,-92 -8,-140 33,-42 76,-73 123,-96 79,-40 159,-80 240,-115 359,-156 732,-265 1120,-322 173,-26 346,-40 521,-38 0,3 1,6 1,9z"/>
   <path fill="#373435" fill-opacity="0.031373" d="M2082 17547c68,103 112,202 155,312 32,63 49,183 199,183 44,0 107,-14 163,-45 63,-33 112,-83 136,-159l60 -202 146 -72 10 10c-20,76 -25,148 -25,206 0,169 146,233 263,233 68,0 128,-33 128,-95 0,-80 -34,-216 -77,-338 67,-68 135,-136 213,-192l12 6c34,145 53,287 53,382 0,93 -41,196 -75,264 -70,132 -194,237 -344,237 -114,0 -240,-58 -328,-163l-5 0c-82,101 -208,194 -412,194l-63 0c-10,134 -39,229 -83,314 -121,237 -480,404 -817,404 -471,0 -706,-272 -706,-633 0,-223 72,-431 184,-578l92 37c-70,134 -116,262 -116,386 0,338 274,499 592,499 293,0 657,-188 723,-404 -24,-237 -114,-349 -250,-565 41,-72 95,-145 160,-221l12 0zm5421 -1275c99,62 196,137 291,221 -53,74 -119,143 -201,202 -95,-76 -190,-142 -287,-212 66,-74 131,-147 197,-211zm51 927c-160,0 -291,105 -291,183 0,167 320,219 703,217 -48,-196 -216,-400 -412,-400zm-359 895c208,0 390,-7 529,-42 155,-39 286,-117 286,-171 0,-14 0,-31 -5,-45 -87,8 -187,8 -274,8 -281,0 -497,-64 -582,-223 -22,-43 -37,-93 -37,-148 0,-153 66,-303 182,-406 97,-85 204,-139 313,-139 197,0 355,159 464,409 60,136 102,293 102,491 0,132 -37,243 -119,325 -153,149 -435,205 -866,205l-197 0 0 0 -51 0c-107,0 -184,-19 -245,-66l-10 0c3,24 5,49 5,72 0,97 -31,220 -97,319 -192,287 -400,411 -580,411 -182,0 -405,-70 -606,-161l36 -70c66,27 155,45 279,45 325,0 752,-313 806,-619 -13,-24 -34,-57 -66,-92 -95,-114 -155,-209 -211,-308 49,-94 92,-171 133,-239l17 -2c139,283 265,446 546,446l44 0 0 0 204 0zm-1408 299c24,-130 27,-277 27,-413l0 -202c0,-377 -49,-926 -88,-1283 68,-74 163,-161 238,-218l22 6c51,449 63,971 63,1452 0,126 -5,249 -17,340 -7,113 -73,200 -214,332l-31 -14zm-1449 -596c7,177 94,317 398,317 189,0 349,-49 526,-134 32,-14 49,-33 49,-49 0,-112 -85,-258 -228,-392 -138,-126 -323,-237 -495,-312 -58,-24 -78,-51 -78,-76 0,-51 68,-159 124,-235l19 -2c197,103 418,256 580,427 148,157 240,315 240,489 0,128 -38,249 -101,360 -216,110 -447,192 -675,192 -277,0 -466,-130 -466,-435 0,-33 0,-84 12,-150l95 0zm-501 -504l173 279c63,103 121,214 121,392l0 226c0,184 -117,380 -306,574 -148,132 -279,187 -400,187 -180,0 -386,-55 -624,-158l27 -70c75,20 163,37 269,37 342,-2 692,-252 852,-557 19,-35 27,-68 27,-91 0,-35 -20,-74 -34,-109 -88,-165 -185,-316 -291,-454 55,-89 111,-173 172,-258l14 2z"/>
  </g>
 </g>
</svg>
