<?xml version="1.0" encoding="UTF-8"?>
<!DOCTYPE svg PUBLIC "-//W3C//DTD SVG 1.1//EN" "http://www.w3.org/Graphics/SVG/1.1/DTD/svg11.dtd">
<!-- Creator: CorelDRAW 2017 -->
<svg xmlns="http://www.w3.org/2000/svg" xml:space="preserve" width="3.70333in" height="2.08333in" version="1.1" style="shape-rendering:geometricPrecision; text-rendering:geometricPrecision; image-rendering:optimizeQuality; fill-rule:evenodd; clip-rule:evenodd"
viewBox="0 0 3703 2083"
 xmlns:xlink="http://www.w3.org/1999/xlink"
 enable-background="new 0 0 64 64">
 <defs>
  <style type="text/css">
   <![CDATA[
    .fil3 {fill:#373435}
    .fil9 {fill:#1D9100}
    .fil7 {fill:#23B000}
    .fil8 {fill:#29CF00}
    .fil0 {fill:#E6E7E8}
    .fil5 {fill:#FEFEFE;fill-rule:nonzero}
    .fil4 {fill:#23B000;fill-rule:nonzero}
    .fil2 {fill:#373435;fill-opacity:0.031373}
    .fil1 {fill:#373435;fill-opacity:0.101961}
    .fil6 {fill:#1D9100;fill-rule:nonzero;fill-opacity:0.501961}
   ]]>
  </style>
 </defs>
 <g id="Layer_x0020_1">
  <metadata id="CorelCorpID_0Corel-Layer"/>
  <polygon class="fil0" points="-3,0 3706,0 3706,2083 -3,2083 "/>
  <polygon class="fil1" points="2168,2083 -3,2083 -3,1362 866,473 860,479 854,486 848,494 842,501 837,509 833,517 828,526 824,534 821,543 818,552 815,561 813,571 811,580 810,590 809,600 809,610 809,1474 809,1484 810,1493 811,1503 813,1513 815,1522 818,1531 821,1540 824,1549 828,1558 833,1566 837,1574 842,1582 848,1590 854,1597 860,1604 866,1611 873,1617 880,1623 887,1629 895,1634 903,1640 911,1644 919,1649 928,1652 937,1656 946,1659 955,1662 964,1664 974,1666 983,1667 993,1668 1003,1668 2700,1668 2710,1668 2720,1667 2730,1666 2739,1664 2748,1662 2758,1659 2767,1656 2776,1652 2784,1649 2792,1644 2801,1640 2808,1634 "/>
  <g>
   <path class="fil0" d="M863 476l3 -3 -6 7c-2,2 -4,5 -6,7l-6 7c2,-2 4,-5 6,-7l6 -7 3 -3zm-15 18l-5 8c2,-3 4,-5 5,-8zm-5 8l-5 8c2,-3 3,-5 5,-8zm-5 8l-5 8c2,-3 3,-5 5,-8zm-5 8l-4 8c1,-3 3,-6 4,-8zm-4 8l-4 9c1,-3 3,-6 4,-9zm-4 9l-3 9c1,-3 2,-6 3,-9zm-3 9l-3 9c1,-3 2,-6 3,-9zm-3 9l-3 9c1,-3 2,-6 3,-9zm-3 9l-2 9c1,-3 1,-6 2,-9zm-2 9l-2 10c0,-3 1,-6 2,-10zm-2 10l-1 10c0,-3 1,-6 1,-10zm-1 10l-1 10c0,-3 0,-7 1,-10zm-1 10l0 10c0,-3 0,-7 0,-10zm0 874l0 10c0,-3 0,-7 0,-10zm0 10l1 10c0,-3 -1,-7 -1,-10zm1 10l1 10c0,-3 -1,-6 -1,-10zm1 10l2 10c-1,-3 -1,-6 -2,-10zm2 10l2 9c-1,-3 -2,-6 -2,-9zm2 9l3 9c-1,-3 -2,-6 -3,-9zm3 9l3 9c-1,-3 -2,-6 -3,-9zm3 9l3 9c-1,-3 -2,-6 -3,-9zm3 9l4 9c-1,-3 -3,-6 -4,-9zm4 9l4 8c-2,-3 -3,-6 -4,-8zm4 8l5 8c-2,-3 -3,-5 -5,-8zm5 8l5 8c-2,-3 -3,-5 -5,-8zm5 8l5 8c-2,-2 -4,-5 -5,-8zm5 8l6 7c-2,-2 -4,-5 -6,-7zm6 7l6 7c-2,-2 -4,-5 -6,-7zm6 7l6 7c-2,-2 -4,-4 -6,-7zm7 7l7 6c-2,-2 -4,-4 -7,-6zm7 6l7 6c-2,-2 -5,-4 -7,-6zm7 6l7 6c-2,-2 -5,-4 -7,-6zm7 6l8 5c-3,-2 -5,-4 -8,-5zm8 5l8 5c-3,-2 -5,-3 -8,-5zm8 5l8 5c-3,-2 -5,-3 -8,-5zm8 5l8 4c-3,-1 -6,-3 -8,-4zm8 4l9 4c-3,-1 -6,-3 -9,-4zm9 4l9 3c-3,-1 -6,-2 -9,-3zm9 3l9 3c-3,-1 -6,-2 -9,-3zm9 3l9 3c-3,-1 -6,-2 -9,-3zm9 3l9 2c-3,-1 -6,-1 -9,-2zm9 2l10 2c-3,0 -6,-1 -10,-2zm10 2l10 1c-3,0 -6,-1 -10,-1zm10 1l10 1c-3,0 -7,0 -10,-1zm10 1l10 0c-3,0 -7,0 -10,0zm1707 0l10 0c-3,0 -7,0 -10,0zm10 0l10 -1c-3,0 -7,1 -10,1zm10 -1l10 -1c-3,0 -6,1 -10,1zm10 -1l10 -2c-3,1 -6,1 -10,2zm10 -2l9 -2c-3,1 -6,2 -9,2zm9 -2l9 -3c-3,1 -6,2 -9,3zm9 -3l9 -3c-3,1 -6,2 -9,3zm9 -3l9 -3c-3,1 -6,2 -9,3zm9 -3l9 -4c-3,1 -6,3 -9,4zm9 -4l8 -4c-3,2 -6,3 -8,4zm8 -4l8 -5c-3,2 -5,3 -8,5zm8 -5l8 -5c-3,2 -5,3 -8,5z"/>
  </g>
  <path class="fil2" d="M215 1826c7,11 12,21 16,32 3,7 5,19 21,19 5,0 11,-1 17,-5 7,-3 12,-9 14,-17l6 -21 15 -7 1 1c-2,8 -3,16 -3,21 0,18 15,24 27,24 7,0 13,-4 13,-10 0,-8 -4,-23 -8,-35 7,-7 14,-14 22,-20l1 1c4,15 6,30 6,40 0,10 -4,20 -8,27 -7,14 -20,25 -36,25 -12,0 -25,-6 -34,-17l-1 0c-9,11 -22,20 -43,20l-7 0c-1,14 -4,24 -9,33 -13,25 -50,42 -85,42 -49,0 -73,-28 -73,-66 0,-23 8,-45 19,-60l10 4c-7,14 -12,27 -12,40 0,35 29,52 62,52 31,0 68,-19 75,-42 -3,-25 -12,-36 -26,-59 4,-7 10,-15 17,-23l1 0 0 0 0 0 2 1 0 0 0 0 0 0 0 0zm565 -133c10,6 20,14 30,23 -6,8 -12,15 -21,21 -10,-8 -20,-15 -30,-22 7,-8 14,-15 20,-22l0 0 0 0 1 0 0 0 0 0 0 0 0 0zm5 96c-17,0 -30,11 -30,19 0,17 33,23 73,23 -5,-20 -22,-42 -43,-42zm-37 93c22,0 41,-1 55,-4 16,-4 30,-12 30,-18 0,-2 0,-3 -1,-5 -9,1 -19,1 -29,1 -29,0 -52,-7 -61,-23 -2,-5 -4,-10 -4,-16 0,-16 7,-32 19,-42 10,-9 21,-14 33,-14 20,0 37,16 48,42 6,14 11,30 11,51 0,14 -4,25 -12,34 -16,15 -45,21 -90,21l-20 0 0 0 -5 0c-11,0 -19,-2 -25,-7l-1 0c0,3 1,5 1,7 0,10 -3,23 -10,33 -20,30 -42,43 -60,43 -19,0 -42,-7 -63,-17l4 -7c7,3 16,5 29,5 34,0 78,-33 84,-64 -1,-3 -4,-6 -7,-10 -10,-12 -16,-22 -22,-32 5,-10 10,-18 14,-25l2 0c14,29 28,46 57,46l5 0 0 0 21 0 0 0 0 0 -3 1 0 0 0 0 0 0 0 0zm-146 31c2,-14 3,-29 3,-43l0 -21c0,-39 -5,-96 -9,-133 7,-8 17,-17 25,-23l2 1c5,47 7,101 7,151 0,13 -1,26 -2,35 -1,12 -8,21 -22,35l-3 -1 0 0 0 0 -1 -1 0 0 0 0 0 0 0 0zm-151 -62c1,18 10,33 41,33 20,0 36,-5 55,-14 3,-1 5,-3 5,-5 0,-12 -9,-27 -24,-41 -14,-13 -34,-25 -51,-32 -6,-3 -8,-5 -8,-8 0,-5 7,-16 13,-24l2 0c20,11 43,27 60,44 15,16 25,33 25,51 0,13 -4,26 -11,38 -22,11 -46,20 -70,20 -29,0 -48,-14 -48,-45 0,-3 0,-9 1,-16l10 0 0 0 0 0 0 -1 0 0 0 0 0 0 0 0zm-52 -52l18 29c7,11 13,22 13,41l0 24c0,19 -12,39 -32,60 -15,14 -29,20 -42,20 -19,0 -40,-6 -65,-17l3 -7c8,2 17,4 28,4 36,0 72,-26 89,-58 2,-4 3,-7 3,-9 0,-4 -2,-8 -4,-11 -9,-17 -19,-33 -30,-47 6,-9 12,-18 18,-27l1 0 0 -2 0 0 0 0 0 0 0 0z"/>
  <rect class="fil3" x="809" y="416" width="2085" height="1252" rx="140" ry="194"/>
  <g>
   <path class="fil4" d="M1842 1536c-5,0 -11,-1 -15,-4l-49 -29c-7,-4 -4,-6 -1,-6 10,-3 12,-4 22,-10 1,-1 3,0 4,0l37 22c1,1 3,1 5,0l146 -84c1,-1 2,-2 2,-4l0 -168c0,-2 -1,-3 -2,-4l-146 -84c-1,-1 -3,-1 -4,0l-146 84c-1,1 -2,2 -2,4l0 168c0,2 1,3 2,4l40 23c22,11 35,-2 35,-15l0 -166c0,-2 2,-4 4,-4l18 0c2,0 4,2 4,4l0 166c0,29 -16,45 -43,45 -8,0 -15,0 -34,-9l-38 -22c-9,-6 -15,-16 -15,-27l0 -168c0,-11 6,-21 15,-26l146 -84c9,-5 22,-5 31,0l146 84c9,5 15,16 15,27l0 168c0,11 -6,21 -15,27l-146 84c-5,3 -10,4 -15,4l0 0 0 0 0 0z"/>
   <path class="fil4" d="M2097 1244c0,15 -13,28 -28,28 -15,0 -28,-13 -28,-28 0,-16 13,-28 28,-28 15,0 28,12 28,28l0 0 0 0 0 0zm-52 0c0,13 10,24 23,24 13,0 24,-11 24,-24 0,-13 -11,-23 -24,-23 -13,0 -23,10 -23,23l0 0 0 0zm13 -16l11 0c4,0 11,0 11,8 0,6 -4,7 -6,8 4,0 5,3 5,7 0,2 1,7 2,8l-7 0c0,-1 -1,-9 -1,-10 0,-2 -1,-3 -3,-3l-5 0 0 13 -6 0 0 -32 0 0 0 0zm6 14l5 0c4,0 5,-3 5,-4 0,-4 -3,-4 -5,-4l-5 0 0 9 0 0zm-177 178c-64,0 -77,-29 -77,-54 0,-2 2,-4 4,-4l19 0c2,0 4,1 4,3 3,19 11,29 50,29 31,0 44,-7 44,-23 0,-9 -4,-16 -52,-21 -40,-4 -64,-13 -64,-45 0,-29 25,-47 66,-47 47,0 70,16 73,51 0,1 0,2 -1,3 -1,1 -2,1 -3,1l-19 0c-2,0 -4,-1 -4,-3 -5,-20 -16,-27 -46,-27 -34,0 -37,12 -37,20 0,11 5,14 50,20 45,6 66,14 66,46 0,32 -26,50 -73,50l0 0 0 0 0 0z"/>
   <path class="fil5" d="M2649 940c6,-3 9,-9 9,-16l0 -43c0,-7 -3,-13 -9,-16l-153 -89c-6,-3 -13,-3 -19,0l-155 89c-6,3 -9,9 -9,16l0 178c0,7 4,13 9,16l153 87c6,3 13,3 18,0l93 -52c3,-2 5,-5 5,-8 0,-3 -2,-6 -5,-8l-156 -89c-3,-2 -5,-5 -5,-8l0 -56c0,-3 2,-6 5,-8l48 -28c3,-2 6,-2 9,0l48 28c3,2 5,5 5,8l0 44c0,3 2,6 5,8 3,2 6,2 9,0l93 -54 0 0 0 0zm-515 -391c-3,-2 -6,-2 -9,0 -3,2 -5,5 -5,8l0 237c0,2 -1,4 -3,6 -2,1 -5,1 -6,0l-39 -22c-6,-3 -13,-3 -19,0l-155 89c-6,3 -9,9 -9,16l0 179c0,7 4,13 9,16l155 89c6,3 13,3 19,0l155 -89c6,-3 9,-9 9,-16l0 -445c0,-7 -4,-13 -10,-16l-92 -51 0 0 0 0zm-14 454c0,2 -1,3 -2,4l-53 30c-1,1 -3,1 -5,0l-53 -30c-1,-1 -2,-2 -2,-4l0 -61c0,-2 1,-3 2,-4l53 -31c1,-1 3,-1 5,0l53 31c1,1 2,2 2,4l0 61 0 0zm-729 -125c0,-7 -4,-13 -9,-16l-155 -89c-3,-2 -5,-2 -8,-2l-2 0c-3,0 -6,1 -8,2l-155 89c-6,3 -9,9 -9,16l0 239c0,3 2,6 5,8 3,2 6,2 9,0l92 -53c6,-3 9,-10 9,-16l0 -112c0,-7 3,-13 9,-16l39 -22c3,-2 6,-3 9,-3 3,0 6,1 9,3l39 22c6,3 9,9 9,16l0 112c0,7 4,13 9,16l92 53c3,2 6,2 9,0 3,-2 5,-5 5,-8l0 -239 0 0 0 0z"/>
   <path class="fil6" d="M2484 931c1,-1 2,-1 4,0l30 17c1,1 2,2 2,3l0 34c0,1 -1,2 -2,3l-30 17c-1,1 -3,1 -4,0l-30 -17c-1,-1 -2,-2 -2,-3l0 -34c0,-1 1,-2 2,-3l30 -17z"/>
   <path class="fil7" d="M1640 1166l0 0 -1 0c0,0 -1,0 -1,0l0 0 -1 0c-1,0 -1,0 -2,0l0 0 0 0c0,0 0,0 -1,0l0 0 0 0 0 0 0 0 0 0 0 0 0 0 0 0 0 0 0 0 0 0c0,0 -1,0 -1,0l-9 -6 0 0 0 0 -44 -25 0 0 0 0 -32 -18 0 0 -44 -25 0 0 0 0 -24 -14c0,0 -1,0 -1,-1l0 0 0 0c-2,-1 -4,-3 -5,-5l0 0 0 0c-1,-1 -2,-3 -2,-4l0 0 0 0c0,-1 0,-1 -1,-2l0 0 0 0c0,-1 0,-3 0,-4l0 -178c0,-3 1,-5 2,-7l0 0 0 0c0,0 0,0 0,0l0 0 0 0c1,-1 1,-2 2,-3l0 0 0 0c1,-1 2,-2 3,-3l0 0 0 0c1,-1 1,-1 2,-2l111 -64 0 0 0 0 42 -24 0 0c0,0 0,0 1,0l0 0 0 0c0,0 0,0 0,0l0 0 0 0 0 0 0 0 0 0 0 0 0 0 0 0c0,0 0,0 1,0l0 0 0 0c0,0 0,0 1,0l0 0c0,0 1,0 1,0l0 0 0 0c0,0 1,0 1,0l1 0 0 0c1,0 2,0 2,0 1,0 2,0 2,0l0 0 1 0c0,0 1,0 1,0l0 0 0 0c0,0 1,0 1,0l0 0 0 0c0,0 0,0 1,0l0 0 0 0 0 0 0 0 0 0 0 0 0 0 0 0 0 0 0 0 0 0c0,0 1,0 1,1l154 89c0,0 0,0 1,0l0 0 0 0c0,0 0,0 1,1l0 0 0 0c1,0 1,1 1,1l0 0 0 0c1,1 1,1 2,2l0 0 0 0c0,0 1,1 1,1l0 0 0 0c0,0 0,1 1,1l0 0 0 0c1,1 1,2 2,3l0 0 0 0c0,0 0,1 0,1l0 0 0 0c0,1 1,2 1,4l0 0 0 0c0,1 0,1 0,2l0 178c0,1 0,1 0,2l0 0 0 0c0,1 0,2 -1,3l0 0 0 0c0,0 0,0 0,1l0 0 0 0c0,0 0,0 0,1l0 0 0 0c-1,1 -1,2 -2,3l0 0 0 0c0,0 0,1 0,1l0 0 0 0c0,0 0,1 -1,1l0 0 0 0c-1,1 -2,2 -2,2l0 0 0 0c-1,1 -2,1 -2,2l-3 2 0 0 0 0 -93 54 -57 33c0,0 -1,0 -1,1l0 0 0 0 0 0 0 0 0 0c0,0 0,0 0,0l0 0 0 0 0 0 0 0 0 0c0,0 0,0 0,0l0 0 0 0c-1,0 -1,0 -2,0l-1 0 0 0c0,0 -1,0 -1,0l-1 0 0 0c-1,0 -1,0 -2,0l0 0 0 0z"/>
   <path class="fil8" d="M1636 1165l0 0 0 0c0,0 0,0 -1,0l0 0 0 0c0,0 -1,0 -1,0 0,0 0,0 0,0l0 0 0 0c0,0 0,0 0,0l0 0 0 0 0 0 0 0 0 0 0 0 0 0 0 0 0 0 -22 -13 -39 -22 0 0 0 0 -44 -25 0 0 0 0 -44 -25 0 0 0 0 -5 -3 0 0 0 0 0 0c0,0 0,0 -1,-1l0 0 0 0 0 0 0 0 0 0c0,0 -1,0 -1,0l0 0 0 0c-1,-1 -2,-2 -3,-3l20 -35 0 0 0 0 23 -39 0 0 0 0 79 -134 0 0 0 0 23 -39 0 0 0 0 29 -49c0,0 1,0 1,0l0 0 0 0c0,0 1,0 1,0l0 0 0 0c0,0 1,0 1,0l0 0 0 0c0,0 0,0 0,0l0 0 0 0c0,0 1,0 1,1l53 30 101 58c0,0 0,0 1,0l0 0 0 0c0,0 0,0 1,0l0 0 0 0c0,0 1,1 1,1l0 0 0 0c1,0 1,1 2,2l-98 179 0 0 -64 118 0 0 0 0 0 0c0,0 -1,0 -1,0l0 0 0 0c-1,0 -1,0 -2,0l0 0 0 0 0 0c-2,0 -4,0 -6,-1l0 0 0 0z"/>
   <path class="fil9" d="M1638 1156l0 0 -8 -14 -8 -14 -8 -14 -15 -28 0 0 0 0 -8 -14 0 0 0 0 -8 -14 0 0 0 0 -8 -14 0 0 0 0 -8 -14 0 0 0 0 -8 -14 0 0 0 0 -8 -14 0 0 0 0 -8 -14 0 0 0 0 -8 -14 0 0 0 0 -8 -14 0 0 0 0 -8 -14 0 0 0 0 -8 -14 0 0 0 0 -8 -14 0 0 0 0 -8 -14 0 0 0 0 -8 -14 0 0 0 0 -8 -14 0 0 0 0 -7 -13 118 -68 35 -20c1,0 1,-1 2,-1l0 0 0 0 0 0 0 0 0 0c1,0 2,-1 2,-1l0 0 0 0c0,0 1,0 1,0l0 0 0 0c0,0 1,0 1,0l0 0c1,0 1,0 1,0l0 0c1,0 1,0 2,0l0 0 0 0c0,0 1,0 1,0l168 288 0 0c0,0 0,1 0,1l0 0 0 0c0,0 0,0 0,1l0 0 0 0c0,1 0,1 -1,1l0 0 0 0c0,0 0,0 0,1l0 0 0 0c0,0 0,0 0,0l0 0 0 0c0,0 0,0 0,0l0 0 0 0c0,0 0,0 0,1l0 0 0 0c0,1 -1,1 -1,2l0 0 0 0 0 0 0 0 0 0 0 0 0 0 0 0c-1,1 -1,1 -2,2l0 0 0 0 0 0 0 0 0 0c0,0 -1,0 -1,1l0 0 0 0 0 0 0 0 0 0c0,0 -1,0 -1,1l-12 7 0 0 0 0 -101 58 0 0 0 0 -41 24c-1,0 -1,0 -1,1l0 0 0 0 0 0 0 0 0 0c-1,0 -1,1 -2,1l0 0 0 0c0,0 -1,0 -1,0l0 0 0 0c0,0 -1,0 -1,0l-5 -9 0 0 0 0z"/>
  </g>
 </g>
</svg>
