<?xml version="1.0" encoding="UTF-8"?>
<!DOCTYPE svg PUBLIC "-//W3C//DTD SVG 1.1//EN" "http://www.w3.org/Graphics/SVG/1.1/DTD/svg11.dtd">
<!-- Creator: CorelDRAW -->
<svg xmlns="http://www.w3.org/2000/svg" xml:space="preserve" width="3.70333in" height="2.08333in" version="1.1" style="shape-rendering:geometricPrecision; text-rendering:geometricPrecision; image-rendering:optimizeQuality; fill-rule:evenodd; clip-rule:evenodd"
viewBox="0 0 3703.33 2083.33"
 xmlns:xlink="http://www.w3.org/1999/xlink"
 xmlns:xodm="http://www.corel.com/coreldraw/odm/2003">
 <defs>
  <style type="text/css">
   <![CDATA[
    .fil0 {fill:#E6E7E8}
    .fil7 {fill:#FEFEFE}
    .fil6 {fill:#FEFEFE;fill-rule:nonzero}
    .fil3 {fill:#262C3B;fill-rule:nonzero}
    .fil8 {fill:#347AB4;fill-rule:nonzero}
    .fil4 {fill:#61CAFF;fill-rule:nonzero}
    .fil5 {fill:#FF3333;fill-rule:nonzero}
    .fil9 {fill:#FFEA00;fill-rule:nonzero}
    .fil2 {fill:#373435;fill-opacity:0.031373}
    .fil1 {fill:#373435;fill-opacity:0.101961}
   ]]>
  </style>
 </defs>
 <g id="Layer_x0020_1">
  <metadata id="CorelCorpID_0Corel-Layer"/>
  <polygon class="fil0" points="-2.5,0 3705.83,0 3705.83,2083.33 -2.5,2083.33 "/>
  <polygon class="fil1" points="-2.5,823.22 -2.5,785.97 686.57,360.11 680.76,364.31 675.39,369.04 670.52,374.23 666.17,379.86 662.38,385.89 659.2,392.28 656.66,399 654.8,406 653.66,413.26 653.27,420.74 653.27,538.36 653.27,1638.85 653.81,1649.09 655.41,1659.04 658,1668.65 661.55,1677.85 665.98,1686.61 671.26,1694.87 677.33,1702.59 684.13,1709.7 691.61,1716.17 699.72,1721.94 708.41,1726.95 717.61,1731.17 727.29,1734.54 737.39,1737.01 747.85,1738.53 758.62,1739.05 2263.64,1739.05 2584.79,1609.44 2608.7,1607.94 2632.29,1605.28 2655.52,1601.51 2678.36,1596.64 2700.78,1590.7 2722.76,1583.72 2744.28,1575.72 2336.89,1739.05 2479.42,1739.05 2490.19,1738.53 2500.65,1737.01 2510.75,1734.54 2520.43,1731.17 1629.02,2083.33 1609.58,2083.33 1478.13,2083.33 1410.57,2083.33 22.53,2083.33 -2.5,2083.33 -2.5,1956.03 -2.5,932.6 "/>
  <path class="fil2" d="M214.37 1825.52c7.08,10.73 11.67,21.04 16.15,32.5 3.33,6.67 5.1,18.96 20.73,18.96 4.58,0 11.15,-1.35 16.98,-4.58 6.56,-3.44 11.56,-8.65 14.17,-16.56l6.25 -21.04 15.21 -7.5 1.04 1.04c-2.08,7.92 -2.6,15.52 -2.6,21.46 0,17.6 15.21,24.27 27.29,24.27 7.08,0 13.44,-3.44 13.44,-9.9 0,-8.33 -3.54,-22.5 -8.13,-35.21 7.08,-7.08 14.17,-14.17 22.29,-19.9l1.25 0.63c3.54,15 5.52,29.79 5.52,39.69 0,9.69 -4.27,20.42 -7.81,27.4 -7.29,13.75 -20.21,24.69 -35.83,24.69 -11.87,0 -25.1,-5.94 -34.17,-16.98l-0.52 0c-8.54,10.63 -21.77,20.21 -42.92,20.21l-6.56 0c-1.04,13.96 -4.06,23.85 -8.65,32.71 -12.6,24.58 -50,41.98 -85.21,41.98 -48.96,0 -73.54,-28.23 -73.54,-65.83 0,-23.23 7.6,-44.79 19.27,-60.1l9.58 3.96c-7.29,13.96 -12.19,27.08 -12.19,40 0,35.21 28.65,51.98 61.67,51.98 30.63,0 68.54,-19.48 75.42,-42.08 -2.6,-24.69 -11.87,-36.25 -26.04,-58.75 4.27,-7.5 9.79,-15 16.67,-23.02l1.25 0 0 0 0 0zm564.69 -132.5c10.31,6.46 20.42,14.06 30.31,22.81 -5.52,7.81 -12.4,14.9 -20.94,21.15 -9.9,-8.02 -19.79,-14.9 -29.9,-22.19 6.87,-7.71 13.65,-15.1 20.52,-21.77l0 0 0 0 0 0 0 0 0 0zm5.31 96.25c-16.67,0 -30.31,10.94 -30.31,19.06 0,17.4 33.33,22.81 73.23,22.6 -5,-20.42 -22.5,-41.67 -42.92,-41.67zm-37.4 93.13c21.67,0 40.63,-0.63 55.1,-4.27 16.15,-4.06 29.79,-12.19 29.79,-17.81 0,-1.46 0,-3.23 -0.52,-4.69 -9.06,0.83 -19.48,0.83 -28.54,0.83 -29.37,0 -51.87,-6.67 -60.73,-23.13 -2.19,-4.58 -3.75,-9.69 -3.75,-15.52 0,-15.94 6.87,-31.46 18.96,-42.19 10.1,-8.85 21.25,-14.37 32.6,-14.37 20.52,0 36.87,16.46 48.33,42.4 6.25,14.17 10.52,30.52 10.52,51.15 0,13.75 -3.75,25.31 -12.29,33.85 -15.94,15.42 -45.31,21.25 -90.31,21.25l-20.42 0 0 0 -5.31 0c-11.15,0 -19.17,-1.98 -25.52,-6.87l-1.04 0c0.31,2.6 0.52,5.1 0.52,7.5 0,10.1 -3.33,23.02 -10.1,33.33 -20,29.69 -41.67,42.6 -60.42,42.6 -18.96,0 -42.19,-7.29 -63.13,-16.77l3.75 -7.29c6.77,2.81 16.15,4.69 29.06,4.69 33.85,0 78.33,-32.5 83.85,-64.27 -1.25,-2.6 -3.54,-6.04 -6.77,-9.69 -9.9,-11.77 -16.15,-21.56 -21.98,-31.87 5,-9.9 9.58,-17.81 13.85,-25l1.77 -0.21c14.48,29.48 27.6,46.35 56.87,46.35l4.58 0 0 0 21.25 0 0 0 0 0 0 0 0 0 0 -0zm-146.67 31.15c2.5,-13.54 2.71,-28.75 2.71,-42.92l0 -21.04c0,-39.27 -5,-96.35 -9.06,-133.54 7.08,-7.6 16.98,-16.56 24.79,-22.6l2.29 0.63c5.31,46.77 6.56,100.94 6.56,151.04 0,13.13 -0.52,25.94 -1.77,35.31 -0.73,11.87 -7.6,20.83 -22.29,34.58l-3.23 -1.46zm-150.94 -61.98c0.73,18.44 9.79,32.92 41.46,32.92 19.69,0 36.35,-5.1 54.79,-13.85 3.33,-1.46 5.1,-3.44 5.1,-5.1 0,-11.56 -8.85,-26.87 -23.75,-40.83 -14.48,-13.13 -33.65,-24.69 -51.56,-32.4 -6.15,-2.6 -8.13,-5.31 -8.13,-7.92 0,-5.31 7.08,-16.46 12.92,-24.48l1.98 -0.21c20.52,10.73 43.44,26.67 60.42,44.37 15.42,16.35 25,32.92 25,50.94 0,13.33 -4.06,25.83 -10.63,37.5 -22.5,11.35 -46.46,20 -70.21,20 -28.85,0 -48.54,-13.54 -48.54,-45.31 0,-3.44 0,-8.75 1.25,-15.63l9.9 0 0 0 0 0 0 0 0 0 0 0zm-52.19 -52.4l17.92 28.96c6.56,10.73 12.71,22.4 12.71,40.83l0 23.54c0,19.06 -12.19,39.48 -31.87,59.69 -15.42,13.65 -29.06,19.48 -41.67,19.48 -18.75,0 -40.21,-5.83 -65,-16.46l2.81 -7.29c7.81,2.08 16.87,3.85 28.02,3.85 35.63,-0.21 72.08,-26.25 88.75,-58.02 1.98,-3.65 2.71,-7.08 2.71,-9.48 0,-3.65 -1.98,-7.71 -3.54,-11.35 -9.06,-17.08 -19.17,-32.71 -30.31,-47.19 5.83,-9.17 11.67,-18.02 18.02,-26.77l1.46 0.21 0 0 0 0 0 0 0 0 0 -0z"/>
  <g id="_1694230092000">
   <g>
    <path class="fil3" d="M2584.78 420.74c0,-40.38 -33.83,-73.12 -75.56,-73.12l-1780.41 0c-41.74,0 -75.55,32.74 -75.55,73.12l0 117.62 1931.52 0 0 -117.62z"/>
    <path class="fil4" d="M2584.78 538.36l0 1100.49c0,55.34 -47.18,100.2 -105.37,100.2l-1720.8 0c-58.19,0 -105.35,-44.86 -105.35,-100.2l0 -1100.49 1931.52 0z"/>
    <polygon class="fil5" points="1103.56,689.11 1375.66,689.11 1375.66,633.73 1103.56,633.73 "/>
    <path class="fil6" d="M2132.26 633.73l-357.5 0 0 55.38 357.5 0 0 -55.38zm-398.81 0l-49.27 0 0 55.38 49.27 0 0 -55.38zm-118.56 55.38l-163.13 0 0 -55.38 163.13 0 0 55.38z"/>
    <polygon class="fil5" points="1103.56,1458.43 1375.66,1458.43 1375.66,1403.06 1103.56,1403.06 "/>
    <path class="fil6" d="M1370.67 1512.97l-122.53 0 0 55.38 122.53 0 0 -55.38zm-144.59 55.38l-122.51 0 0 -55.38 122.51 0 0 55.38z"/>
    <path class="fil3" d="M1975.57 1403.06l-200.81 0 0 55.38 200.81 0 0 -55.38zm-242.13 0l-49.27 0 0 55.38 49.27 0 0 -55.38zm-118.55 55.38l-163.14 0 0 -55.38 163.14 0 0 55.38z"/>
    <path class="fil3" d="M2055.61 743.63l-75.81 0 0 55.38 75.81 0 0 -55.38zm-114.7 55.38l-284.11 0 0 -55.38 284.11 0 0 55.38z"/>
    <polygon class="fil5" points="1198.82,799.01 1614.9,799.01 1614.9,743.63 1198.82,743.63 "/>
    <polygon class="fil5" points="1198.82,1238.63 1723.03,1238.63 1723.03,1183.26 1198.82,1183.26 "/>
    <path class="fil3" d="M1614.89 963.44l-171.97 0 0 55.38 171.97 0 0 -55.38zm326.02 55.38l-284.11 0 0 -55.38 284.11 0 0 55.38z"/>
    <path class="fil5" d="M815.86 1512.97l-35.59 0 0 55.38 35.59 0 0 -55.38zm0 -109.91l-35.59 0 0 55.38 35.59 0 0 -55.38zm0 -109.9l-35.59 0 0 55.38 35.59 0 0 -55.38zm0 -109.9l-35.59 0 0 55.38 35.59 0 0 -55.38zm0 -109.91l-35.59 0 0 55.38 35.59 0 0 -55.38zm0 -109.9l-35.59 0 0 55.38 35.59 0 0 -55.38zm0 -109.91l-35.59 0 0 55.38 35.59 0 0 -55.38zm0 -109.9l-35.59 0 0 55.38 35.59 0 0 -55.38zm0 -54.53l-35.59 0 0 -55.38 35.59 0 0 55.38z"/>
    <path class="fil3" d="M948.9 1512.97l-97.45 0 0 55.38 97.45 0 0 -55.38zm0 -109.91l-97.45 0 0 55.38 97.45 0 0 -55.38zm0 -109.9l-97.45 0 0 55.38 97.45 0 0 -55.38zm0 -109.9l-97.45 0 0 55.38 97.45 0 0 -55.38zm0 -109.91l-97.45 0 0 55.38 97.45 0 0 -55.38zm0 -109.9l-97.45 0 0 55.38 97.45 0 0 -55.38zm0 -109.91l-97.45 0 0 55.38 97.45 0 0 -55.38zm0 -109.9l-97.45 0 0 55.38 97.45 0 0 -55.38zm0 -54.53l-97.45 0 0 -55.38 97.45 0 0 55.38z"/>
    <polygon class="fil5" points="1309.42,908.91 1406.87,908.91 1406.87,853.53 1309.42,853.53 "/>
    <polygon class="fil5" points="1442.92,908.91 1491.64,908.91 1491.64,853.53 1442.92,853.53 "/>
    <polygon class="fil3" points="1565.66,1128.72 1696.75,1128.72 1696.75,1073.35 1565.66,1073.35 "/>
    <polygon class="fil3" points="1533.34,908.91 1754.8,908.91 1754.8,853.53 1533.34,853.53 "/>
    <polygon class="fil5" points="1309.42,1348.54 1406.87,1348.54 1406.87,1293.16 1309.42,1293.16 "/>
   </g>
   <g>
    <circle class="fil7" cx="2566.24" cy="1129.34" r="480.49"/>
    <g>
     <path class="fil8" d="M2233.87 1140.35c0,-7.43 0,-14.86 0,-22.3 0,-1.15 0,-1.15 0,-2.56 0,-13.71 1.28,-26.14 3.71,-38.57 2.56,-13.71 6.15,-27.42 11.15,-39.85 7.56,-17.42 16.27,-32.29 31.26,-44.84 11.15,-9.86 23.57,-16.02 37.28,-19.86 8.71,-2.44 17.3,-2.44 26.14,-2.44 74.7,0 148.12,0 222.82,0 0,0 1.28,0 1.28,0 0,-7.56 0,-14.99 0,-22.42 -53.56,0 -107.12,0 -161.83,0 0,-1.28 0,-1.28 0,-2.44 0,-23.7 0,-48.69 0,-72.39 0,-1.15 0,-1.15 0,-2.44 0,-2.43 0,-6.15 1.28,-8.59 2.44,-11.27 7.43,-19.86 16.02,-27.55 8.84,-8.59 19.99,-14.86 31.13,-19.86 17.56,-7.43 36.26,-11.27 54.84,-13.71 13.71,-1.15 27.42,-2.44 41,-2.44 0,0 1.41,0 1.41,0 8.71,0 17.3,0 26.14,0 0,0 1.15,0 2.44,0 16.27,0 31.13,1.28 46,3.72 14.99,2.56 29.98,6.15 43.57,11.27 13.71,5 27.42,12.43 38.69,23.57 8.59,8.71 16.15,19.99 18.57,32.42 1.28,6.28 1.28,12.43 1.28,17.43 0,48.56 0,97.12 0,145.56 0,7.56 -1.28,16.27 -2.44,23.7 -5,19.86 -14.86,36.13 -32.42,46 -17.42,11.28 -36.13,16.27 -54.84,16.27 -52.15,0 -105.84,0 -158.11,0 -9.87,0 -21.14,1.28 -31.13,3.71 -18.45,5 -33.57,15 -44.72,29.86 -12.56,18.7 -18.71,38.57 -18.71,61.12 0,26.01 0,52.28 0,78.29 0,0 0,1.28 0,2.44 -1.28,0 -1.28,0 -2.44,0 -18.71,0 -37.41,0 -56.12,0 -3.59,0 -7.43,0 -11.02,-1.15 -15.12,-2.43 -27.55,-9.86 -38.83,-19.86 -12.43,-11.15 -21.01,-26.14 -27.29,-42.28 -5,-13.84 -8.71,-27.42 -11.28,-41.13 -2.44,-12.43 -3.59,-26.14 -3.59,-38.57 0,-3.84 0,-7.56 -1.28,-11.27l0 0 0 1.15 0 0 0 0.01zm241.53 -291.11l0 0c-16.27,0 -28.7,12.43 -28.7,28.57 0,16.15 12.43,28.7 28.7,29.85 16.15,0 28.57,-13.71 28.57,-28.7 0,-16.15 -12.43,-28.57 -28.57,-28.57l0 0 0 -1.15z"/>
     <path class="fil9" d="M2897.46 1083.08c0,29.98 0,59.83 0,89.82 0,2.43 -1.28,4.87 -1.28,7.43 -2.56,13.71 -5,26.14 -10,38.57 -6.28,17.3 -16.15,33.57 -29.98,46 -13.59,12.56 -29.72,19.99 -47.15,22.56 -6.28,1.15 -12.43,1.15 -18.71,1.15 -73.55,0 -148.12,0 -221.67,0 0,0 -1.15,0 -1.15,0 0,7.43 0,15 0,22.42 53.43,0 107.11,0 161.7,0 0,1.15 0,1.15 0,2.56 0,26.14 0,51 0,77.14 0,2.43 0,4.87 -1.15,8.71 -2.44,12.43 -8.71,21.02 -18.71,28.7 -11.28,9.87 -24.86,16.02 -39.85,21.01 -19.86,6.28 -39.72,10.12 -60.99,11.28 -12.3,1.28 -24.72,1.28 -36,1.28 -16.27,0 -31.13,0 -46,-2.44 -10.12,-1.41 -18.71,-2.56 -27.55,-3.85 -16.15,-2.56 -31.13,-7.43 -44.84,-14.86 -13.59,-6.41 -26.01,-16.27 -34.72,-28.7 -6.28,-8.71 -10,-18.71 -11.27,-28.57 0,-3.84 0,-7.56 0,-11.27 0,-47.41 0,-95.84 0,-143.25 0,-8.59 0,-17.43 2.43,-24.86 5,-19.86 15,-36.01 32.42,-47.28 17.43,-11.28 36.13,-16.27 55.99,-16.27 52.41,0 105.84,0 158.11,0 10,0 21.15,-1.15 31.14,-3.59 17.55,-5 32.42,-13.71 42.41,-28.7 13.71,-17.56 18.71,-37.42 19.86,-59.71 0,-26.14 0,-53.69 0,-79.7 0,-1.28 0,-1.28 0,-2.56 1.28,0 1.28,0 2.44,0 17.55,0 36.13,0 53.69,0 11.02,0 22.3,2.56 32.29,7.56 14.86,7.43 27.42,19.86 36,33.7 13.71,21.01 20.12,43.43 23.71,68.29 0,2.56 1.28,5 1.28,8.84l0 0 -2.43 -1.41 0 0 0 -0zm-239.09 326.35l0 0c16.27,0 28.7,-12.43 29.85,-28.7 0,-16.15 -12.43,-28.57 -28.57,-28.57 -16.15,0 -28.7,12.43 -28.7,28.57 0,16.27 12.56,28.7 28.7,28.7l-1.28 0z"/>
    </g>
   </g>
  </g>
 </g>
</svg>
