<?xml version="1.0" encoding="UTF-8"?>
<!DOCTYPE svg PUBLIC "-//W3C//DTD SVG 1.1//EN" "http://www.w3.org/Graphics/SVG/1.1/DTD/svg11.dtd">
<!-- Creator: CorelDRAW -->
<svg xmlns="http://www.w3.org/2000/svg" xml:space="preserve" width="3.70333in" height="2.08333in" version="1.1" style="shape-rendering:geometricPrecision; text-rendering:geometricPrecision; image-rendering:optimizeQuality; fill-rule:evenodd; clip-rule:evenodd"
viewBox="0 0 3703.33 2083.33"
 xmlns:xlink="http://www.w3.org/1999/xlink"
 xmlns:xodm="http://www.corel.com/coreldraw/odm/2003">
 <defs>
  <style type="text/css">
   <![CDATA[
    .fil9 {fill:#06589C}
    .fil10 {fill:#1EBBFD}
    .fil8 {fill:#45D1FD}
    .fil11 {fill:#4B4B4D}
    .fil0 {fill:#E6E7E8}
    .fil7 {fill:#FEFEFE}
    .fil4 {fill:#FEFEFE;fill-rule:nonzero}
    .fil5 {fill:#FEC240;fill-rule:nonzero}
    .fil3 {fill:#2C3C43;fill-rule:nonzero}
    .fil6 {fill:#06589C;fill-rule:nonzero}
    .fil2 {fill:#373435;fill-opacity:0.031373}
    .fil1 {fill:#373435;fill-opacity:0.101961}
   ]]>
  </style>
 </defs>
 <g id="Layer_x0020_1">
  <metadata id="CorelCorpID_0Corel-Layer"/>
  <polygon class="fil0" points="-2.67,1.74 3702.66,1.74 3702.66,2084.93 -2.67,2084.93 "/>
  <path class="fil1" d="M2880.62 1732.37l-0.02 0.01 -1.25 0.71 -0.01 0 -0.05 0.03 -1.23 0.67 -0.05 0.02m-7.13 3.1l9.74 -4.54 0 0m-112.67 52.73l46.5 -21.69m58.28 -27.19l0.01 0 0.87 -0.36 0.48 -0.2 -87.9 41 -0.7 0.33 -17.38 8.11m0.06 0l6.17 -2.88 0.69 -0.32 98.75 -46.06 0.77 -0.36 0.87 -0.41 -0.09 0.04 -0.33 0.15 -0.91 0.41 -0 0m-88.59 41.33l-17.38 8.11m107.31 -50.03l0 0 0.87 -0.41 0.45 -0.21 -1.75 0.81m1.75 -0.81l0.01 0 -0.01 0zm-627.3 350.49l-13.33 0 -106.86 0 -0.39 0 -0.32 0 -0.89 0 -0.57 0 -0.67 0 -0.75 0 -0.3 0 -0.01 0 -0.01 0 -0.04 0 -0.05 0 -0 0 -0.09 0 -0.24 0 -0.09 0 -0.23 0 -0.4 0 -0.3 0 -0.2 0 -0.57 0 -0.25 0 -0.42 0 -0.69 0 -0.07 0 -0.83 0 -0.93 0 -1.01 0 -1.1 0 -0 0 -1.19 0 -0 0 -1.28 0 -1.37 0 -0 0 -489.59 0 -52.28 0 -0.01 0 -1.45 0 -0.01 0 -1.52 0 -0.01 0 -1.59 0 -0.01 0 -1.65 0 -0.01 0 -1.72 0 -0.01 0 -1.78 0 -0 0 -1.84 0 -0.01 0 -1.89 0 -0.02 0 -1.95 0 -2.02 0 -0.01 0 -4.21 0 -0.01 0 -112.77 0 -37.55 0 -0.01 0 -44.24 0 -49.6 0 -97.61 0 -46.81 0 -25.68 0 -28.64 0 -13.16 0 -18.91 0 -18.51 0 -8.51 0 -5.93 0 -38.15 0 -3.14 0 -2.03 0 -15.25 0 -2.37 0 -8.2 0 -1.53 0 -23.8 0 -28.89 0 -6.11 0 -5.74 0 -18.44 0 -34.37 0 -0.01 0 -3.13 0 -13.68 0 -18.04 0 -0.41 0 -0.37 0 -6.5 0 -1.09 0 -14.06 0 -8.21 0 -64.06 0 -4.96 0 -1.66 0 -9.52 0 -25.09 0 -24.86 0 -11.7 0 -18.22 0 -41.93 0 -5.85 0 -4.24 0 -9.27 0 -3.53 0 -9.86 0 -30.58 0 -20.43 0 -1.34 0 -23.09 0 -10 0 -6.59 0 -21.94 0 -7.85 0 -19.72 0 -1.1 0 -0.79 0 -1.08 0 -1.2 0 -0.28 0 -0.83 0 -29.98 0 -0.01 0 -1.35 0 -31.76 0 -34.28 0 -3.5 0 -7.11 0 -39.65 0 -48.12 0 -49.57 0 -1.03 0 -122.03 0 -41.69 0 0 -26.43 0 -8.44 0 -75.3 0 -50.8 0 -0.41 0 -0.41 0 -3.76 0 -709.24 1090.14 -801.95 -19.91 15.64 -19.11 16.56 -18.3 17.44 -17.44 18.3 -16.56 19.11 -15.64 19.9 -14.69 20.66 -13.7 21.37 -12.69 22.06 -11.63 22.72 -10.55 23.33 -9.43 23.93 -8.28 24.48 -7.1 25 -5.88 25.49 -4.63 25.94 -3.35 26.37 -2.04 26.76 -0.69 27.11 0.69 27.11 2.04 26.76 3.35 26.37 4.63 25.94 5.88 25.49 7.1 25 8.28 24.48 9.43 23.93 10.55 23.33 11.63 22.72 12.69 22.06 11.62 18.12 1230.94 -808.59 -5.1 3.89 -4.71 4.35 -4.28 4.79 -3.81 5.2 -3.32 5.56 -2.79 5.9 -2.23 6.2 -1.63 6.47 -1 6.7 -0.34 6.91 0 270.42 41.39 -25.79 0.02 0 0 54.91 523.5 -323.07 -0.2 0.14 0.43 -0.27 2.12 -0.8 -5.21 3.22 -0.01 0.01 5.23 -3.23 0.3 -0.07 -5.81 3.59 -0.02 0.02 5.85 -3.61 0.3 -0.06 -6.46 3.99 -0.09 0.09 -1.46 2.08 -1.19 2.4 -0.89 2.67 -0.56 2.9 -0.19 3.08 0 4.15 -0.05 2.41 -0.15 2.24 -0.24 2.07 -0.33 1.9 -0.43 1.74 -0.51 1.59 -0.6 1.44 -0.68 1.31 -512.63 314.87 0 0.01 512.63 -314.86 -0.59 0.94 -0.64 0.86 -0.68 0.79 -0.73 0.71 -0.77 0.65 -0.42 0.3 0.16 -0.1 0 0 -0.19 0.12 -0.35 0.25 0.09 -0.06 0 0 -0.12 0.07 -0.88 0.54 0.09 -0.05 0 0 0.46 -0.28 -508.08 311.96 0 978.62 0.2 5.35 0.59 5.22 0.98 5.09 1.34 4.93 1.69 4.76 2.02 4.57 2.33 4.36 2.63 4.14 2.92 3.89 3.19 3.63 3.44 3.35 3.67 3.06 0 0 3.89 2.75 4.09 2.42 0 0 4.28 2.07 4.46 1.71 0.01 0 0.35 0.11 0.35 0.11 0.35 0.11 0.35 0.11 0.35 0.11 0.35 0.1 0.35 0.11 0.35 0.1 0.01 0 1.43 0.38 1.43 0.34 0.02 0 1.44 0.3 0.01 0 1.46 0.26 0.01 0 1.47 0.22 0.01 0 1.48 0.19 0.01 0 1.5 0.14 0.01 0 1.5 0.11 0.01 0 1.52 0.06 0.01 0 1.53 0.02 0.01 0 586.05 0 0 0 1.53 -0.02 0 0 1.52 -0.06 0 0 1.51 -0.11 0 0 1.5 -0.14 -97.08 45.31 0.52 0 0.57 0 0.52 0 0.47 0 0.52 0 0.37 0 0.52 0 0.28 0 0.53 0 0.8 0 0.52 0 0.01 0 0.42 0 0.34 0 0.2 0 0.06 0 0.16 0 0.06 0 0.02 0 0.02 0 0.45 0 1.66 0 0.82 0 0.19 0 0.6 0 114.82 0 6.78 -0.35 6.58 -1.02 6.35 -1.67 6.09 -2.27 -663.13 305.15zm465.01 -1699.33l-507.62 311.68 507.62 -311.68zm0.46 -0.28l-0 0 0 0zm-457.72 1354.05l-64.99 32.32 64.99 -32.32zm2.98 0.41l-66.48 33.05 66.48 -33.05zm4.55 0.31l-68.86 34.21 68.86 -34.21zm1.54 0.02l-69.7 34.63 69.7 -34.63zm496.13 44.98l97.48 -45.5 -1.49 0.19 -0 0m-95 45.31l97.98 -45.72 -1.48 0.22 -0 0m-95.61 45.5l98.55 -45.99 -1.46 0.26 -0 0m-96.28 45.72l99.2 -46.29 -1.45 0.3 -0.01 0m-96.42 45.99l100.75 -47 -1.42 0.38 -0.01 0 -1.44 0.34 -0 0m-97.35 46.29l101.64 -47.42 -1.41 0.41 -0.01 0m1.42 -0.41l0 0 1.4 -0.45 -102.61 47.87m0.34 0l91.26 -42.57 12.4 -5.78 -0.26 0.09 -0.22 0.08 -0.9 0.31 -0 0m-102.02 47.87l46.5 -21.69 1.4 -0.66 56.88 -26.53 -1.37 0.52 -0 0 -12.29 5.73m-0.82 0.38l-90.55 42.24m105.9 -49.24l4.45 -2.07 -0.05 0.02 -1.25 0.63m2.59 -1.35l-0.01 0"/>
  <path class="fil2" d="M219.02 1825.24c7,11 12,21 16,32 3,7 5,19 21,19 5,0 11,-1 17,-5 7,-3 12,-9 14,-17l6 -21 15 -7 1 1c-2,8 -2,15 -2,21 0,18 15,24 27,24 7,0 13,-3 13,-10 0,-8 -4,-22 -8,-35 7,-7 14,-14 22,-20l1 1c4,15 6,30 6,40 0,10 -4,20 -8,27 -7,14 -20,25 -36,25 -12,0 -25,-6 -34,-17l-1 0c-9,11 -22,20 -43,20l-7 0c-1,14 -4,24 -9,33 -13,25 -50,42 -85.01,42 -49,0 -73.01,-28 -73.01,-66 0,-23 7,-45 19,-60l10 4c-7,14 -12,27 -12,40 0,35 29,52 61,52 30,0 68.01,-20 75.01,-42 -2,-25 -12,-36 -26,-59 4,-7 10,-15 17,-23l1 0 0 0 2 1 0 0 0 0 0.02 -0.01 -0.01 0.01zm563.05 -132.01c10,6 20,14 30,23 -6,8 -12,15 -21,21 -10,-8 -20,-15 -30,-22 7,-8 14,-15 20,-22l1 0 0 0 0 0 0 0zm5 96.01c-17,0 -30,11 -30,19 0,17 33,23 73.01,23 -5,-20 -22,-42 -43,-42l-0.01 0zm-37 93.01c22,0 41,-1 55,-4 16,-4 30,-12 30,-18 0,-2 0,-3 -1,-5 -9,1 -19,1 -29,1 -29,0 -52,-7 -60,-23 -2,-4 -4,-10 -4,-15 0,-16 7,-32 19,-42 10,-9 21,-14 33,-14 20,0 37,17 48,42 6,14 11,30 11,51 0,14 -4,25 -12,34 -16,15 -45,21 -90.01,21l-20 0 0 0 -5 0c-11,0 -19,-2 -25,-7l-1 0c0,2 1,5 1,7 0,10 -3,23 -10,33 -20,30 -42,43 -60,43 -19,0 -42,-7 -63,-17l4 -7c7,3 16,5 29,5 34,0 78.01,-33 84.01,-64 -1,-3 -3,-6 -7,-10 -10,-12 -16,-22 -22,-32 5,-10 10,-18 14,-25l2 0c14,29 28,46 57,46l4 0 0 0 21 0 0 0 -3 0 0 0 0 0 0 0zm-146.01 31c2,-14 3,-29 3,-43l0 -21c0,-39 -5,-96.01 -9,-133.01 7,-8 17,-17 25,-23l2 1c5,47 7,101.01 7,151.01 0,13 -1,26 -2,35 -1,12 -8,21 -22,35l-3 -1 0 0 -1 -1 0 0 0 0 0 0zm-151.02 -62.01c1,18 10,33 41,33 20,0 36,-5 55,-14 3,-2 5,-3 5,-5 0,-12 -9,-27 -24,-41 -14,-13 -34,-25 -51,-32 -6,-3 -8,-5 -8,-8 0,-5 7,-17 13,-24l2 0c20,11 43,27 60,44 15,16 25,33 25,51 0,13 -4,26 -11,38 -22,11 -46,20 -70.01,20 -29,0 -48,-13 -48,-45 0,-3 0,-9 1,-16l10 0 0 0 0 -1 0 0 0 0 0 0 0.01 0zm-52 -52l18 29c7,11 13,22 13,41l0 24c0,19 -12,39 -32,60 -15,14 -29,20 -42,20 -19,0 -40,-6 -65,-17l3 -7c8,2 17,4 28,4 35,0 72.01,-26 88.01,-58 2,-4 3,-7 3,-9 0,-4 -2,-8 -4,-11 -9,-17 -19,-33 -30,-47 6,-9 12,-18 18,-27l2 0 0 0 0 -2 0 0 0 0 0 0 -0.01 0z"/>
  <g id="_2812672482976">
   <g>
    <path class="fil3" d="M2911.69 1675.91c0,35.49 -26.58,64.2 -59.36,64.2l-586.05 0c-32.86,0 -59.44,-28.71 -59.44,-64.2l0 -1255.72c0,-72.31 26.58,-75.83 59.44,-75.83l117.37 0c6.82,0 12.4,7.75 12.4,17.36l0 4.15c0,22.52 12.32,22.59 27.47,22.59l271.48 0c15.26,0 27.47,-0.07 27.47,-22.59l0 -4.15c0,-9.61 5.5,-17.36 12.44,-17.36l117.41 0c32.78,0 59.36,9.61 59.36,75.83l0 1255.72zm-24.92 -1374.33l-655.06 0c-36.58,0 -66.26,30.19 -66.26,67.5l0 1348.52c0,37.24 29.69,67.5 66.26,67.5l655.06 0c36.62,0 66.34,-30.26 66.34,-67.5l0 -1348.52c0,-37.31 -29.72,-67.5 -66.34,-67.5z"/>
    <path class="fil4" d="M2596.29 360.33l-74.05 0c-2.52,0 -4.57,-2.05 -4.57,-4.57 0,-2.53 2.05,-4.57 4.57,-4.57l74.05 0c2.53,0 4.57,2.05 4.57,4.57 0,2.53 -2.05,4.57 -4.57,4.57z"/>
    <path class="fil4" d="M2911.7 420.19l0 1255.72c0,35.49 -26.58,64.2 -59.36,64.2l-586.05 0c-32.86,0 -59.44,-28.71 -59.44,-64.2l0 -1255.72c0,-72.31 26.58,-75.83 59.44,-75.83l117.37 0c6.82,0 12.41,7.75 12.41,17.36l0 4.15c0,22.52 12.32,22.59 27.47,22.59l271.48 0c15.26,0 27.47,-0.07 27.47,-22.59l0 -4.15c0,-9.61 5.5,-17.36 12.44,-17.36l117.41 0c32.78,0 59.36,9.61 59.36,75.83z"/>
    <path class="fil5" d="M2911.68 420.19l0 193.52 -704.85 0 0 -193.52c0,-72.31 26.58,-75.83 59.44,-75.83l117.41 0c6.82,0 12.4,7.75 12.4,17.36l0 4.15c0,22.52 12.32,22.59 27.43,22.59l271.48 0c15.27,0 27.52,-0.07 27.52,-22.59l0 -4.15c0,-9.61 5.5,-17.36 12.43,-17.36l117.37 0c32.78,0 59.36,9.61 59.36,75.83z"/>
    <polygon class="fil5" points="2332.57,1079.33 2785.99,1079.33 2785.99,1043.17 2332.57,1043.17 "/>
    <path class="fil6" d="M2679.02 937.79c-19.79,12.3 -41.79,21.7 -65.69,27.5 -61.79,15.1 -123.79,3.5 -173.88,-27.6 -49,-30.3 -86.69,-79.19 -101.49,-139.59 -29.8,-122.29 45,-245.57 167.28,-275.37 122.19,-29.89 245.48,44.99 275.37,167.28 24,98.39 -19.9,197.38 -101.59,247.78z"/>
    <polygon class="fil5" points="2332.57,1169.38 2785.99,1169.38 2785.99,1133.22 2332.57,1133.22 "/>
    <polygon class="fil5" points="2332.57,1608.43 2785.99,1608.43 2785.99,1223.28 2332.57,1223.28 "/>
   </g>
   <g>
    <circle class="fil7" cx="1402.69" cy="830.38" r="526.84"/>
    <path class="fil8" d="M1003.6 829.17l116.81 118.02c13.38,-3.65 23.11,-19.47 32.85,-27.99l401.51 -401.51c15.82,-15.81 52.32,-47.45 62.05,-63.27l-215.35 0c-14.6,0 -17.04,-2.43 -26.77,4.87l-307.83 307.83c-15.82,15.81 -47.45,52.31 -63.27,62.05l1.22 0 0 0 -1.22 0z"/>
    <path class="fil8" d="M1294.4 888.78l115.59 113.15 4.87 0 200.76 -200.76c-68.14,-1.22 -136.28,0 -204.41,-1.22 -37.72,0 -23.11,-6.08 -65.7,37.72 -13.38,13.38 -42.59,37.72 -52.32,53.54l0 -1.22 1.22 0 0 -1.22z"/>
    <path class="fil9" d="M1294.4 1119.96c7.3,13.38 57.19,58.4 75.43,76.65 15.81,15.81 12.17,13.38 38.94,13.38 68.13,-1.22 137.49,0 205.63,0 -7.3,-13.38 -150.87,-153.31 -176.43,-178.85 -4.87,-4.87 -7.3,-7.3 -13.38,-12.17 -7.3,-7.3 -7.3,-6.08 -10.95,-17.03l-4.87 0c-2.43,12.17 -45.02,48.67 -57.19,59.62 -17.03,17.03 -41.37,43.8 -59.62,57.19l1.22 1.22 0 0 0 0 1.21 0z"/>
    <path class="fil10" d="M1294.4 1119.96c17.03,-13.38 41.37,-41.37 59.62,-57.19 12.17,-12.17 53.54,-47.45 57.19,-59.62l-115.59 -113.15c-6.08,2.43 -2.43,0 -7.3,4.87 -24.33,21.9 -88.82,94.91 -110.72,108.29l118.02 116.8 0 -1.22 -1.22 0 0 1.22z"/>
    <path class="fil11" d="M1762.83 1566.49l7.3 0c35.29,0 64.49,27.99 64.49,64.48l-141.14 0c7.3,-32.85 30.42,-64.48 68.13,-64.48l1.22 0zm-111.94 86.38c0,65.7 46.24,124.11 100.99,124.11 46.24,0 71.78,-1.22 105.85,-38.94 7.3,-7.3 10.95,-14.6 15.81,-21.9 -8.52,-4.87 -23.11,-12.17 -34.07,-15.82 -21.9,32.85 -37.72,41.37 -75.43,41.37 -40.15,0 -73,-37.72 -73,-79.08l184.94 0 0 -21.9c0,-59.62 -43.8,-111.94 -102.2,-111.94l-17.03 0c-62.05,0 -105.85,60.84 -105.85,124.11l0 -1.22 -1.22 0 0 0 1.22 1.21z"/>
    <path class="fil11" d="M746.88 1449.69l0 318.78c0,10.95 14.6,6.08 41.37,6.08l0 -143.57 136.27 0 0 -38.94 -136.27 0 0 -111.94 152.09 0 0 -38.93 -184.94 0c-4.87,0 -6.08,1.22 -6.08,6.08l-1.22 1.22 0 0 0 0 -1.22 1.22z"/>
    <path class="fil11" d="M1079.04 1699.11c0,13.38 2.43,24.33 6.08,34.07 21.9,60.83 105.85,62.05 143.57,24.33 4.87,-4.87 10.95,-13.38 14.6,-15.81l0 32.85 38.94 0 0 -234.82 -41.37 0 0 125.32c0,25.55 -6.08,41.37 -17.03,55.97 -4.87,7.3 -12.17,13.38 -19.47,17.03 -25.55,14.6 -58.4,10.95 -75.43,-13.38 -17.03,-21.9 -10.95,-94.91 -10.95,-124.1 0,-12.17 0,-21.9 0,-34.07 0,-32.85 7.3,-26.76 -41.37,-26.76l0 160.61 1.22 -1.22 0 0 0 0 1.21 -0z"/>
    <path class="fil11" d="M1364.97 1537.29l-41.37 0 0 36.5c51.1,0 41.37,-12.17 41.37,62.05 0,41.37 -6.08,100.99 15.81,125.32 18.25,20.69 57.19,25.55 82.74,13.39l0 -38.94c-17.03,3.65 -1.22,6.08 -32.85,6.08 -15.81,0 -25.55,-17.03 -25.55,-32.85l0 -136.27 57.19 0c0,-46.24 12.17,-36.5 -57.19,-36.5l0 -65.7 -41.37 0 0 65.7 0 1.22 1.22 -1.22 0 0 0 1.22z"/>
    <path class="fil11" d="M1531.66 1537.29l-41.37 0 0 36.5c51.1,0 41.37,-12.17 41.37,62.05 0,23.11 0,46.24 0,71.78 0,26.77 1.22,41.37 15.81,55.97 27.99,27.99 57.19,19.47 82.74,13.39l0 -38.94c-7.3,2.43 -57.19,23.11 -57.19,-23.12l0 -138.7 55.97 0 0 -36.5 -55.97 0 0 -65.7 -41.37 0 0 65.7 0 0 0 -1.22 0 0 0 -1.21z"/>
    <path class="fil11" d="M1962.37 1575.01l0 -36.5c-25.55,0 -38.94,-3.65 -38.94,6.08l0 223.87c0,10.95 14.6,6.09 41.37,6.09l0 -131.41c0,-37.72 24.33,-73 65.7,-73 15.81,0 18.25,4.87 30.42,6.08l0 -42.59c-17.04,-1.22 -40.15,-14.6 -71.79,8.52 -6.08,3.65 -12.17,7.3 -15.81,13.39 -4.87,6.08 -4.87,13.38 -12.17,17.03l0 1.22 0 -1.22 0 0 1.21 2.44z"/>
    <polygon class="fil11" points="984.14,1773.33 1025.51,1773.33 1025.51,1443.6 984.14,1443.6 "/>
   </g>
  </g>
 </g>
</svg>
