<?xml version="1.0" encoding="UTF-8"?>
<!DOCTYPE svg PUBLIC "-//W3C//DTD SVG 1.0//EN" "http://www.w3.org/TR/2001/REC-SVG-20010904/DTD/svg10.dtd">
<!-- Creator: CorelDRAW 2017 -->
<svg xmlns="http://www.w3.org/2000/svg" xml:space="preserve" width="356px" height="200px" version="1.0" shape-rendering="geometricPrecision" text-rendering="geometricPrecision" image-rendering="optimizeQuality" fill-rule="evenodd" clip-rule="evenodd"
viewBox="0 0 35600 20025"
 xmlns:xlink="http://www.w3.org/1999/xlink">
 <g id="Layer_x0020_1">
  <metadata id="CorelCorpID_0Corel-Layer"/>
  <g id="_1623895606208">
   <polygon fill="#E6E7E8" points="0,0 35600,0 35600,20025 0,20025 "/>
   <polygon fill="#373435" fill-opacity="0.078431" points="14432,5956 14241,6163 14246,6142 14272,6023 14297,5905 14173,5962 14051,6021 13929,6082 13808,6146 13689,6212 13590,6269 14015,5809 13893,5776 13770,5745 13647,5715 13523,5687 13399,5661 13274,5637 13149,5615 13023,5595 12897,5576 12770,5560 12642,5545 12514,5533 12386,5523 12285,5516 12489,5296 12370,5275 12249,5255 12144,5238 12239,5135 12194,5075 12138,5004 12075,4925 12008,4840 11941,4751 11876,4661 11817,4573 11766,4488 11681,4555 11580,4621 11466,4686 11343,4748 11214,4806 11197,4813 11659,4313 11529,4307 11393,4296 11277,4283 11557,3980 11489,3888 11424,3786 11362,3676 11304,3557 11248,3430 11195,3297 11144,3156 11095,3010 10988,3044 10882,3079 10777,3115 10673,3153 10571,3192 10470,3232 10370,3274 10272,3317 10175,3362 10080,3407 9986,3455 9893,3504 9802,3554 9713,3606 9625,3660 9539,3715 9394,3872 9359,3862 9171,4065 9164,4056 9100,3969 9015,4008 8936,4056 8863,4113 8795,4178 8444,4557 8405,4545 8338,4523 8271,4502 8205,4479 8140,4456 8076,4432 8012,4408 8010,4411 7982,4394 7968,4387 0,13007 0,13075 0,13692 0,13813 0,13827 0,13836 0,13986 0,14034 0,14469 0,15012 0,15244 0,15414 0,15913 0,16483 0,16654 0,16820 0,16925 0,17216 0,17587 0,17942 0,17951 0,18249 0,18282 0,18374 0,18482 0,18806 0,19861 0,19880 0,20025 56,20025 202,20025 216,20025 393,20025 448,20025 496,20025 527,20025 629,20025 681,20025 765,20025 874,20025 887,20025 901,20025 938,20025 1016,20025 1041,20025 1151,20025 1244,20025 1244,20025 1270,20025 1385,20025 1426,20025 1436,20025 1540,20025 1980,20025 2099,20025 2232,20025 2379,20025 2395,20025 2466,20025 2587,20025 2646,20025 2662,20025 2773,20025 2775,20025 2778,20025 2835,20025 3059,20025 3138,20025 3190,20025 3243,20025 3292,20025 3522,20025 3766,20025 3834,20025 4356,20025 4396,20025 4493,20025 4583,20025 4592,20025 4627,20025 4816,20025 4849,20025 5025,20025 5051,20025 5054,20025 5078,20025 5257,20025 5401,20025 5561,20025 5597,20025 5753,20025 5767,20025 5867,20025 5867,20025 6045,20025 6114,20025 6133,20025 6160,20025 6448,20025 6448,20025 7054,20025 7429,20025 7630,20025 7843,20025 8366,20025 8737,20025 8777,20025 8832,20025 8994,20025 9105,20025 9736,20025 10088,20025 10093,20025 10434,20025 10446,20025 10650,20025 11269,20025 11322,20025 11332,20025 11612,20025 11777,20025 11830,20025 11927,20025 12017,20025 12195,20025 12320,20025 12655,20025 12667,20025 13198,20025 13249,20025 13670,20025 14200,20025 14320,20025 14461,20025 14668,20025 15571,20025 15727,20025 16074,20025 16420,20025 16432,20025 16636,20025 16656,20025 17255,20025 17308,20025 17318,20025 17598,20025 17763,20025 17913,20025 18003,20025 18218,20025 18306,20025 18530,20025 18641,20025 18653,20025 18859,20025 19433,20025 19493,20025 19886,20025 19959,20025 20035,20025 20173,20025 20304,20025 20436,20025 20518,20025 20851,20025 21111,20025 21559,20025 22158,20025 22302,20025 22328,20025 22346,20025 22609,20025 22640,20025 22968,20025 23543,20025 23602,20025 23996,20025 24068,20025 24144,20025 24282,20025 24414,20025 24592,20025 24614,20025 24628,20025 24640,20025 24684,20025 24738,20025 24754,20025 24775,20025 24778,20025 24790,20025 24793,20025 24806,20025 24818,20025 24824,20025 24878,20025 24908,20025 24925,20025 24947,20025 24960,20025 25220,20025 28723,16235 28463,16235 28463,16222 29608,14983 29598,14992 29588,15000 29577,15007 29566,15012 29557,15015 29596,14972 29604,14964 29611,14955 29617,14945 29621,14935 29625,14925 29628,14914 29629,14903 29630,14891 29629,14879 29628,14868 29625,14857 29621,14847 29617,14837 29611,14828 29604,14819 29596,14810 29588,14802 29579,14796 29569,14790 29559,14785 29549,14781 29538,14779 29527,14777 29515,14777 29504,14777 29493,14779 29482,14781 29472,14785 29462,14790 29452,14796 29443,14802 29434,14810 29388,14860 29390,14853 29394,14841 29400,14830 29406,14819 29414,14809 29423,14799 29227,15010 29215,15004 29195,14996 29173,14990 29150,14985 29125,14981 29099,14979 29071,14978 29034,14980 28999,14987 28965,14998 28933,15013 28903,15033 28874,15058 28463,15502 28463,15353 28729,15066 28759,14990 28795,14924 28835,14868 28463,15270 28463,14767 27723,15567 27664,15567 27856,15359 27855,15310 27850,15265 27842,15222 27832,15182 27819,15145 27803,15111 27784,15080 27762,15051 27738,15026 27711,15003 27682,14985 27650,14969 27616,14957 27580,14949 27542,14944 27500,14942 27462,14944 27425,14949 27390,14958 27356,14971 27323,14987 27291,15007 27261,15030 27232,15057 26822,15500 26825,15425 26834,15346 26850,15271 26871,15200 26899,15132 26932,15068 26972,15008 27018,14951 25844,16221 25836,16202 25998,16027 26001,15999 26005,15972 26010,15946 26016,15920 26022,15894 26029,15869 26036,15845 26044,15821 26420,14767 25621,15631 25297,14767 25085,14996 25064,14990 25040,14985 25016,14981 24990,14979 24962,14978 24925,14980 24889,14987 24856,14998 24824,15013 24793,15033 24765,15058 24354,15502 24354,15353 24619,15066 24650,14990 24685,14924 24726,14868 24354,15270 24354,14767 23614,15567 23554,15567 23747,15359 23745,15310 23740,15265 23733,15222 23723,15182 23709,15145 23693,15111 23674,15080 23653,15051 23628,15026 23601,15003 23572,14985 23541,14969 23507,14957 23471,14949 23432,14944 23391,14942 23353,14944 23316,14949 23280,14958 23246,14971 23213,14987 23182,15007 23151,15030 23122,15057 22713,15500 22716,15425 22725,15346 22740,15271 22762,15200 22789,15132 22823,15068 22863,15008 22908,14951 22161,15759 22164,15730 22163,15708 22161,15688 22158,15667 22153,15648 22146,15628 22138,15610 22128,15592 22117,15574 22105,15557 22092,15541 22078,15525 22063,15509 22046,15494 22028,15480 22010,15465 21990,15452 21968,15438 21941,15422 21909,15404 21874,15384 21833,15363 21789,15340 21740,15315 21686,15289 21650,15270 22355,14508 22307,14478 22256,14451 22202,14429 22145,14411 22085,14397 22021,14387 21955,14381 21885,14379 21839,14380 21795,14384 21754,14390 21714,14399 21677,14410 21642,14423 21609,14440 21578,14458 21550,14479 21526,14502 21202,14852 21194,14822 21186,14783 21182,14742 21180,14700 21183,14638 21193,14579 21209,14523 21232,14471 21261,14421 21296,14376 19577,16235 19075,16235 19075,14179 18371,14940 18351,14861 18325,14787 18294,14719 18256,14657 18213,14600 18165,14549 18113,14505 18056,14468 17995,14437 17930,14413 17861,14397 17787,14386 17709,14383 17633,14387 17560,14397 17490,14415 17425,14440 17363,14472 17304,14512 17250,14558 17199,14612 16729,15120 16730,15110 16742,14994 16763,14885 16793,14783 16831,14687 16877,14597 16932,14514 16995,14437 16036,15475 16024,15465 16004,15452 15982,15438 15955,15422 15924,15404 15888,15384 15848,15363 15803,15340 15754,15315 15700,15289 15665,15270 16370,14508 16322,14478 16270,14451 16216,14429 16159,14411 16099,14397 16036,14387 15969,14381 15900,14379 15854,14380 15810,14384 15768,14390 15728,14399 15691,14410 15656,14423 15623,14440 15592,14458 15564,14479 15540,14502 15216,14852 15208,14822 15201,14783 15196,14742 15194,14700 15198,14638 15207,14579 15223,14523 15246,14471 15275,14421 15310,14376 12487,17429 12157,17413 12151,17413 12324,17226 12406,17088 12479,16945 12544,16799 12603,16648 12657,16494 12710,16337 12761,16176 12814,16013 12642,16078 13000,15691 13040,15581 13080,15471 13103,15404 19355,8642 19328,8660 19285,8672 19226,8679 19143,8684 19053,8692 18957,8702 18854,8714 18819,8718 19015,8506 18920,8389 18823,8274 18723,8161 18620,8051 18514,7944 18405,7840 18293,7739 18178,7640 18059,7544 17937,7451 17812,7361 17684,7273 17553,7189 17418,7108 17279,7029 17138,6954 16208,7959 16253,7900 16364,7751 16474,7601 16583,7451 16689,7300 16794,7150 16897,6999 16997,6848 16804,6904 16611,6961 16419,7019 16363,7036 16710,6661 16573,6605 16435,6550 16296,6497 16155,6445 16013,6394 15870,6345 15726,6298 15582,6252 15438,6208 15293,6166 15148,6126 15004,6088 14860,6051 14716,6017 14574,5986 14432,5956 "/>
   <path fill="white" d="M12493 17429c1229,-2725 1704,-4974 1398,-7571 2438,-753 4487,-1126 5335,-1179 176,-11 192,-64 10,-289 -1958,-2418 -4628,-2759 -7747,-3252 343,50 680,102 1003,158 -587,-844 -998,-1750 -1285,-2700 -1160,520 -2308,1050 -3195,1812 167,65 343,124 526,177 -689,-171 -799,-395 -94,117 2578,1874 2652,4369 -225,7138 -248,239 -517,527 -777,803 -4228,2829 1541,4670 5051,4786l0 0z"/>
   <path fill="#4B4B4D" fill-rule="nonzero" d="M29385 14891c0,-36 12,-67 38,-92 25,-25 56,-38 93,-38 36,0 66,13 92,38 25,25 38,56 38,92 0,36 -13,67 -38,92 -26,26 -56,38 -93,38 -36,0 -67,-12 -92,-38 -26,-25 -38,-56 -38,-92zm16 0c0,32 11,59 33,81 23,22 50,33 81,33 32,0 59,-11 81,-33 23,-22 34,-49 34,-81 0,-32 -11,-59 -34,-81 -22,-22 -49,-33 -81,-33 -31,0 -58,11 -81,33 -22,22 -33,49 -33,81zm178 81l-30 0 -17 -40c-4,-9 -9,-16 -14,-21 -4,-5 -9,-8 -15,-8l-15 0 0 69 -24 0 0 -165 47 0c20,0 34,4 45,12 11,8 16,19 16,33 0,12 -3,21 -11,29 -7,8 -17,14 -30,16 4,2 9,5 13,10 5,5 9,12 14,21l21 44 0 0zm-91 -144l0 55 25 0c11,0 19,-2 24,-7 6,-5 9,-12 9,-21 0,-9 -3,-17 -9,-21 -6,-4 -16,-6 -28,-6l-21 0 0 0zm-238 196c-43,-31 -103,-46 -179,-46 -101,0 -184,47 -249,142 -66,94 -99,218 -99,372l0 743 -260 0 0 -1468 260 0 0 299 6 0c74,-217 202,-324 385,-324 59,0 105,6 136,19l0 263 0 0zm-1394 335c-1,-133 -32,-235 -94,-308 -62,-72 -149,-109 -262,-109 -103,0 -193,38 -268,115 -76,77 -124,178 -143,302l767 0zm260 208l-1027 0c5,157 47,278 129,364 81,85 195,128 341,128 165,0 315,-53 453,-158l0 232c-129,92 -301,137 -514,137 -213,0 -378,-67 -497,-202 -120,-134 -179,-321 -179,-560 0,-225 65,-411 196,-557 130,-146 293,-219 487,-219 192,0 342,62 450,185 108,124 161,297 161,519l0 131 0 0zm-1423 -800l-581 1468 -263 0 -552 -1468 284 0 358 1049c29,84 47,154 52,211l7 0c8,-74 24,-143 46,-206l376 -1054 273 0zm-1552 257c-44,-31 -103,-46 -179,-46 -101,0 -185,47 -250,142 -65,94 -98,218 -98,372l0 743 -260 0 0 -1468 260 0 0 299 5 0c75,-217 203,-324 385,-324 60,0 105,6 137,19l0 263 0 0zm-1394 335c-1,-133 -32,-235 -94,-308 -62,-72 -150,-109 -262,-109 -104,0 -193,38 -269,115 -75,77 -123,178 -142,302l767 0 0 0zm260 208l-1027 0c4,157 47,278 128,364 82,85 196,128 342,128 164,0 315,-53 452,-158l0 232c-129,92 -300,137 -514,137 -212,0 -378,-67 -497,-202 -119,-134 -178,-321 -178,-560 0,-225 65,-411 195,-557 131,-146 293,-219 487,-219 192,0 342,62 450,185 108,124 162,297 162,519l0 131 0 0zm-2828 282c63,55 147,100 252,135 105,36 206,53 300,53 289,0 433,-102 433,-307 0,-58 -15,-110 -47,-156 -30,-46 -73,-86 -127,-122 -54,-36 -155,-90 -304,-163 -206,-103 -342,-198 -407,-286 -66,-89 -99,-189 -99,-303 0,-171 69,-306 206,-406 137,-100 310,-150 519,-150 205,0 355,25 450,75l0 289c-124,-86 -280,-129 -470,-129 -125,0 -228,26 -307,79 -79,53 -119,126 -119,220 0,83 28,151 82,203 55,52 175,123 358,214 201,96 343,193 423,289 81,97 121,205 121,326 0,180 -65,319 -197,415 -131,97 -313,145 -545,145 -82,0 -177,-11 -285,-34 -108,-22 -188,-50 -237,-84l0 -303 0 0zm-1019 386l-1085 0 0 -2056 265 0 0 1821 820 0 0 235 0 0zm-3156 -1025c0,249 64,448 191,598 127,150 293,226 497,226 220,0 392,-72 517,-216 125,-144 188,-345 188,-604 0,-265 -61,-470 -184,-614 -122,-145 -290,-217 -504,-217 -209,0 -379,76 -510,229 -129,152 -195,351 -195,598l0 0zm1733 1559c-64,21 -142,31 -232,31 -128,0 -249,-31 -362,-93 -114,-62 -271,-208 -472,-437 -276,2 -502,-96 -680,-293 -177,-198 -265,-446 -265,-745 0,-334 89,-599 269,-795 180,-195 425,-293 737,-293 281,0 508,96 683,288 175,192 262,442 262,751 0,273 -61,503 -184,688 -123,186 -298,306 -525,360 114,124 212,209 292,255 81,45 171,68 270,68 81,0 150,-12 207,-36l0 251 0 0zm-3544 -920c63,55 147,100 253,135 105,36 205,53 300,53 288,0 432,-102 432,-307 0,-58 -15,-110 -46,-156 -31,-46 -74,-86 -128,-122 -54,-36 -155,-90 -304,-163 -206,-103 -342,-198 -407,-286 -66,-89 -99,-189 -99,-303 0,-171 69,-306 206,-406 138,-100 311,-150 520,-150 204,0 354,25 450,75l0 289c-125,-86 -281,-129 -470,-129 -126,0 -229,26 -308,79 -79,53 -119,126 -119,220 0,83 28,151 83,203 55,52 174,123 357,214 201,96 343,193 423,289 81,97 121,205 121,326 0,180 -65,319 -197,415 -131,97 -312,145 -545,145 -81,0 -177,-11 -285,-34 -108,-22 -187,-50 -237,-84l0 -303 0 0z"/>
   <path fill="#373435" fill-opacity="0.031373" d="M2082 17547c68,104 112,203 155,312 32,64 49,183 199,183 44,0 107,-14 163,-45 63,-33 111,-83 136,-159l60 -202 146 -72 10 10c-20,77 -25,149 -25,206 0,170 146,234 262,234 68,0 129,-34 129,-95 0,-81 -34,-217 -78,-339 68,-68 136,-136 214,-191l12 6c34,144 53,287 53,381 0,93 -41,196 -75,264 -70,132 -194,238 -344,238 -114,0 -241,-58 -328,-163l-5 0c-82,101 -209,193 -412,193l-63 0c-10,134 -39,229 -83,314 -121,237 -480,404 -818,404 -470,0 -706,-272 -706,-633 0,-223 73,-431 185,-578l92 38c-70,134 -117,262 -117,385 0,338 275,499 592,499 294,0 658,-187 724,-404 -25,-237 -114,-348 -250,-565 41,-72 94,-144 160,-221l12 0 0 0zm5421 -1274c99,62 196,136 291,221 -53,74 -119,142 -201,202 -95,-77 -190,-143 -287,-213 66,-74 131,-146 197,-210l0 0zm51 926c-160,0 -291,105 -291,183 0,168 320,219 703,217 -48,-196 -216,-400 -412,-400zm-359 895c208,0 390,-6 529,-41 155,-39 286,-118 286,-171 0,-15 0,-31 -5,-46 -87,8 -187,8 -274,8 -282,0 -498,-64 -583,-222 -21,-44 -36,-93 -36,-149 0,-152 66,-303 182,-406 97,-85 204,-138 313,-138 197,0 354,158 464,408 60,136 101,293 101,491 0,132 -36,243 -118,326 -153,148 -435,204 -867,204l-196 0 0 0 -51 0c-107,0 -184,-19 -245,-66l-10 0c3,25 5,50 5,72 0,97 -32,221 -97,320 -192,287 -400,410 -580,410 -182,0 -405,-70 -606,-161l36 -70c65,27 155,46 279,46 325,0 752,-314 805,-619 -12,-25 -34,-58 -65,-93 -95,-113 -155,-208 -211,-307 48,-95 92,-171 133,-239l17 -2c139,282 265,445 546,445l44 0 0 0 204 0 0 0zm-1408 299c24,-130 26,-276 26,-413l0 -202c0,-377 -48,-926 -87,-1282 68,-75 163,-161 238,-219l22 6c51,450 63,972 63,1452 0,126 -5,250 -17,340 -7,114 -73,201 -214,332l-31 -14 0 0zm-1449 -596c7,177 94,318 398,318 189,0 349,-50 526,-135 32,-14 49,-33 49,-49 0,-111 -85,-258 -228,-392 -139,-126 -323,-237 -495,-311 -59,-25 -78,-52 -78,-77 0,-51 68,-158 124,-235l19 -2c197,103 417,256 580,427 148,157 240,316 240,489 0,128 -39,250 -102,361 -216,109 -446,192 -674,192 -277,0 -466,-130 -466,-436 0,-33 0,-84 12,-150l95 0 0 0zm-501 -503l172 278c63,103 122,215 122,392l0 227c0,183 -117,379 -306,573 -148,132 -279,188 -400,188 -180,0 -386,-56 -624,-159l27 -70c75,21 162,37 269,37 342,-2 692,-252 852,-557 19,-35 26,-68 26,-90 0,-36 -19,-75 -34,-110 -87,-165 -184,-315 -291,-453 56,-89 112,-174 173,-258l14 2z"/>
   <path fill="#727376" d="M12493 17429c1230,-2726 1705,-4976 1398,-7574 -2015,686 -3931,1290 -5693,2316 -46,520 42,1003 326,1432 -736,192 -1473,384 -2209,576 72,-942 879,-1392 1880,-2006 -255,148 -506,305 -753,470 -4228,2829 1541,4670 5051,4786l0 0zm-4481 -13021c887,-762 2035,-1292 3195,-1812 287,950 698,1856 1285,2700 -356,-62 -730,-118 -1110,-174 252,-15 605,28 857,13 -106,-143 -352,-429 -473,-647 -203,178 -609,360 -947,463 61,43 285,97 346,139 -1115,-163 -2263,-336 -3153,-682zm1088 -439c168,226 366,510 670,706 -212,14 -424,29 -636,43 -130,-63 -197,-158 -542,-218 97,-241 275,-441 508,-531l0 0zm439 -254c455,-299 981,-527 1556,-705 127,398 275,737 462,970 -646,-14 -1312,-85 -2018,-265zm2120 598c-277,211 -700,420 -1128,570 -465,-237 -933,-694 -1172,-1021 676,203 1623,429 2300,451zm-2470 12394c497,-434 966,-1018 1071,-1558 -833,300 -1820,638 -2728,802 503,376 1064,606 1657,756zm744 203c985,-225 1942,-536 2881,-897 -144,439 -256,850 -490,1213 -813,-25 -1608,-140 -2391,-316l0 0zm-501 -112c1115,-204 2194,-471 3174,-915 -704,-135 -1446,-243 -2090,-620 -252,560 -606,1020 -1084,1535zm1302 -1750c557,447 1551,513 2266,643 214,-590 417,-1159 519,-1806 -887,376 -1898,787 -2785,1163l0 0zm-203 -68c819,-320 2185,-1023 3004,-1343 -453,-68 -1174,-436 -1778,-865 -140,696 -785,1753 -1226,2208l0 0zm3106 -1671c64,-572 145,-1042 118,-1625 -601,312 -1284,625 -1885,937 507,401 1123,627 1767,688l0 0zm130 -2122c20,-317 -21,-634 -91,-951 -341,84 -683,168 -1025,251 484,135 871,355 1116,700l0 0zm-1962 1287c582,-297 1289,-707 1871,-1005 -274,-395 -796,-666 -1431,-880 -106,591 -335,1294 -440,1885l0 0zm-158 -90c90,-501 259,-1148 181,-1592 -388,139 -899,358 -1286,497 397,680 905,1002 1105,1095zm-169 192c-686,375 -1820,868 -2537,942 361,-654 1049,-1462 1410,-2116 300,628 766,967 1127,1174zm127 141c-97,635 -717,1564 -1266,2139 -531,-279 -990,-624 -1274,-1129 802,-150 1843,-725 2540,-1010zm-1593 2320c-574,-378 -965,-721 -1240,-1107 -346,695 -818,1337 -1375,1942 884,-215 1761,-470 2615,-835zm-2897 699c645,-582 1122,-1208 1375,-1896 -730,166 -1460,331 -2190,497 11,657 247,1149 815,1399l0 0zm1714 -2381c468,-597 870,-1203 1127,-1829 -466,196 -932,391 -1398,587 -175,411 -41,1004 271,1242l0 0z"/>
   <path fill="#FF7878" d="M8198 12171c-252,157 -504,315 -756,472 260,-276 529,-564 777,-803 2877,-2769 2803,-5264 225,-7138 -728,-529 -587,-273 162,-100 4359,1009 8092,654 10630,3788 182,225 166,278 -10,289 -1472,92 -6570,1148 -11028,3492l0 0zm1801 -6167c-54,-313 -186,-702 -376,-1000 -266,-105 -511,-150 -730,-156 418,314 839,767 1106,1156l0 0zm-28 -877c184,488 274,868 363,1247 348,-385 807,-700 1260,-965 -522,-178 -1086,-238 -1623,-282zm639 1382c446,143 891,286 1336,429 -41,-482 -82,-963 -124,-1445 -451,282 -915,549 -1212,1016l0 0zm1596 474c-70,-493 -140,-986 -209,-1479 696,17 1367,123 2018,305 -647,310 -1252,699 -1809,1174zm236 119c572,-508 1193,-900 1855,-1197 -128,633 -314,1248 -682,1806 -329,-281 -724,-479 -1173,-609zm1410 722c288,-492 562,-1286 580,-1868 752,152 1556,403 2278,705 -1006,290 -1958,678 -2858,1163l0 0zm157 113c942,-463 1956,-792 2988,-1089 -529,808 -1162,1596 -1781,2404 -267,-495 -684,-971 -1207,-1315l0 0zm1488 1241c654,-705 1167,-1458 1641,-2224 765,393 1382,918 1877,1552 -1157,111 -2331,351 -3518,672zm-4954 -914c22,-419 9,-890 -46,-1370 399,113 797,225 1196,337 -391,345 -760,689 -1150,1033l0 0zm-12 429c466,-451 932,-903 1398,-1354 -235,596 -469,1193 -704,1789 -168,-232 -405,-369 -694,-435l0 0zm790 531c280,-595 559,-1189 839,-1784 404,92 731,262 1015,474 -618,437 -1236,873 -1854,1310zm78 136c676,-424 1353,-847 2030,-1271 -556,753 -1214,1573 -1770,2326 -28,-403 -112,-757 -260,-1055l0 0zm621 902c529,-666 1116,-1349 1646,-2015 503,230 910,585 1324,1056 -990,320 -1980,639 -2970,959zm-2633 1107c724,-385 1459,-691 2080,-886 -41,-353 -49,-769 -270,-1017 -553,578 -1258,1325 -1810,1903l0 0zm-347 -164c351,-241 701,-482 1052,-722 -43,-136 -87,-271 -130,-407 -204,304 -433,656 -922,1129zm990 -1276c282,-190 563,-380 845,-570 -143,-187 -313,-285 -502,-321 -59,324 -193,612 -343,891l0 0z"/>
  </g>
 </g>
</svg>
